<?xml version="1.0" encoding="UTF-8"?>
<svg class="gridItem__media" enable-background="new 0 0 1600 1200" fill="none" version="1.1" viewBox="0 0 1600 1200" xml:space="preserve" xmlns="http://www.w3.org/2000/svg">    
<path d="m1228.9 1017.1 159.54-316.72c4.22-8.382 6.27-17.69 5.96-27.07-0.32-9.379-2.99-18.53-7.76-26.61l-247.27-418.56c-4.78-8.097-11.53-14.859-19.62-19.662-8.08-4.803-17.25-7.491-26.65-7.818l-608-21.08c-9.011-0.312-17.964 1.556-26.098 5.445-8.134 3.89-15.208 9.686-20.622 16.895l-221.29 294.64c-5.088 6.773-8.572 14.611-10.192 22.926-1.619 8.314-1.332 16.887 0.842 25.074l125.33 472.56 895.83-0.02z" fill="#3F4249"/>
<path d="m286.39 849.48h1027l-84.41 167.59h-895.87l-46.72-167.59z" fill="#858990"/>
<path d="m819.16 396s-41.56 44-72.07 72.45c-21.51 20.08-87.17 80.45-87.17 80.45s51.86 32.37 72.57 44.42c16.12 9.38 65.24 38.41 65.24 38.41s99.5-48.39 132.2-65.83c18.07-9.66 70.86-40.9 70.86-40.9s-77.42-47.56-102.16-65.13c-20.63-14.72-79.47-63.87-79.47-63.87z" fill="#D9DCDE"/>
<path d="m659.92 548.86s65.66-60.36 87.17-80.45c30.51-28.48 72.07-72.41 72.07-72.41v54.81l-17.88 1.74 29.07 34.86-54.88-1.16 11.41 23.75-91.61 66.06-35.35-27.2z" fill="#fff"/>
<path d="m1102.3 439.12s-107.3 65.32-145.6 86.21c-45.89 25-191.51 95.46-191.51 95.46l211.51 143.48 376.14-109.7-53-105s-82.36-37.59-108.37-51.49c-31.43-16.937-61.28-36.67-89.17-58.96z" fill="#D9DCDE"/>
<path d="m1102.3 439.12s-107.3 65.32-145.6 86.21c-45.89 25-191.51 95.46-191.51 95.46l211.51 143.48 376.14-109.7-53-105s-82.36-37.59-108.37-51.49c-31.43-16.937-61.28-36.67-89.17-58.96z" fill="#000" opacity=".2"/>
<path d="m765.19 620.79s145.62-70.42 191.51-95.46c38.29-20.89 145.6-86.21 145.6-86.21l-52.21 71 41.53 13.47-58.41 13.59 3.17 29.84-118.9 25.68 27.69 25.89-165.55 22.35-14.43-20.15z" fill="#fff"/>
<path d="m535.49 409s63.6 43.48 84.67 57.35c84.23 55.47 419.1 247.42 419.1 247.42l-204.26 85-601-156.77-15-53.44s115.25-52.67 162.78-78.14c52.99-28.33 153.71-101.42 153.71-101.42z" fill="#858990"/>
<path d="m219.06 588.59s95.51-39.43 162.78-78.14c69.23-39.84 153.66-101.45 153.66-101.45l14.5 60.63-51.3 18.55 39.3 21.82-283.95 172.58-34.99-93.99z" fill="#fff"/>
<path d="m243.75 461.08-27 35.94c-4.982 6.634-8.428 14.292-10.088 22.42s-1.494 16.524 0.488 24.58l48.6 197.62 266.08 10.06 56.36-54.59s-51.271-41-86.1-1.05c0 0 12.879-114.53-48.761-132-18.11-5.12-41.759 5.56-51.939 33.7 0 0-3.05-34.06-28.69-42.86-14.21-4.87-23.32 3.37-28.621 11.7 0 0 0.281-32.86-38.509-28.23-0.01 0.04-0.72-55.27-51.82-77.29z" fill="#D9DCDE"/>
<path d="m751.89 780s31.11-73 104-65.38c17.92 1.88 44.58 19 46.94 34 0 0 3.14-31.23 39.55-31 9.617-8e-3 19.048 2.647 27.25 7.67 0 0-7.94-30.84 34.719-33 0 0-14.609-43.85 0-49.77 14.61-5.92 22.43 23.94 22.43 23.94s-6.56-49.74 5.5-52.49 22 43.57 22 43.57 5.38-72.89 92.09-60.59c0 0-16.47-39.3 7-42.28 6.59-0.84 12.27 2.92 17 8.76 0 0-8.08-43.19 39.13-63.26 0 0-19.85-26.53-6.06-33.93 9.85-5.29 23.77 13 30.92 23.95 0 0 10.47-33.27 36.08-40.29l116 196.44c4.84 8.198 7.54 17.484 7.84 27s-1.8 18.954-6.12 27.44l-75.63 148.78h-524l-36.64-69.56z" fill="#D9DCDE"/>
<path d="m292.68 650.24c1.407 4.363 3.043 8.649 4.9 12.84-1.279-4.407-2.918-8.701-4.9-12.84z" fill="#AFB3B8"/>
<path d="m521.82 751.71c-0.6-8.27-6.18-13.36-12.21-16.28-21-10.18-33.44 8.6-33.44 8.6 0.53-13.23-2.24-24.76-11.42-30.33-29.37-17.81-50.62 15.3-50.62 15.3s3.12-36.25-11.56-67.81-43.43 5.62-43.43 5.62 11.87-79.37-12.19-75-20.95 59.82-20.95 59.82-12.81-55.74-30.62-43.86c-11.55 7.7-7.2 28.67-2.71 42.47 1.988 4.136 3.627 8.431 4.9 12.84-1.857-4.191-3.492-8.477-4.9-12.84-5.45-11.41-15.63-25.72-31.35-21.84-25.31 6.25-10.19 97.23-10.19 97.23l35.25 123.86h164l71.44-97.78z" fill="#AFB3B8"/>
<path d="m1313.2 849.54-399.64-0.06s-8-35.67 7.11-44.66 34.38 19.46 34.38 19.46-3.65-18.46 9.79-18c6.77 0.25 10.84 8.25 12 16.25 0 0-4.05-59.3 72.591-49.55 0 0-7-19.73 20.25-24.89 0 0 13-63 77.23-43.16 0 0-4.31-24 11.74-33.75 13.43-8.21 22.95-3.34 28.71 2.49 0 0-13-23.78 5.41-41.89 6.35-6.356 14.62-10.443 23.53-11.63 0 0 8.4-36.66 58.35-30 20 2.68 33.11 10.08 41.58 18 0 0 12.24-28.78 41.86-9.9l27.91 48.08c4.91 8.169 7.73 17.423 8.22 26.943 0.48 9.52-1.39 19.012-5.45 27.637l-75.57 148.63z" fill="#AFB3B8"/>
<path d="m603.57 1017.1s-7.8-33.179 1.61-37.159 5.65 27.459 5.65 27.459 7.45-58.469 26.93-57.879-11.51 54.309-11.51 54.309 20.3-20.519 27.44-12.599c6.73 7.47-14.87 25.869-14.87 25.869h-35.25z" fill="#000"/>
<path d="m1001 734.65s-3.811 22.06-11.411 38.8-10.66 38-10.66 45.65-16.73 12.17-16.73 12.17l-5.33 57.83h273.9s-14.46-37.29-23.59-37.29-28.15-3-28.15-3l-29.67-64.67-17.76-24.72c-6.47-9.001-15.07-16.254-25.04-21.106-9.96-4.853-20.98-7.153-32.05-6.694l-73.51 3.03z" fill="#3F4249"/>
<path d="m1001 734.65s20.54 3.8 26.63 9.89 16.74 42.61 16.74 42.61l7.6 18.25 68.48 5.33 26.17-30.44-20.82-29c-4.68-6.523-10.92-11.779-18.14-15.295-7.22-3.515-15.2-5.181-23.22-4.845l-83.44 3.5z" fill="#fff" opacity=".2"/>
<path d="m997.73 889.1 51.93-15.79 101.57 15.79h-153.5z" fill="#000" opacity=".3"/>
<path d="m1051.9 805.4-2.28 67.91 101.57 15.79-30.81-78.37-68.48-5.33z" fill="#000" opacity=".3"/>
<path d="m1122.9 850.1c0 0.271 0.08 0.536 0.23 0.762 0.15 0.225 0.37 0.401 0.62 0.504 0.25 0.104 0.52 0.131 0.79 0.078 0.26-0.053 0.51-0.183 0.7-0.375 0.19-0.191 0.32-0.436 0.37-0.701 0.06-0.266 0.03-0.541-0.07-0.792-0.11-0.25-0.28-0.464-0.51-0.615-0.22-0.15-0.49-0.231-0.76-0.231-0.18 0-0.36 0.036-0.52 0.105-0.17 0.069-0.32 0.17-0.45 0.297s-0.23 0.278-0.3 0.444c-0.06 0.166-0.1 0.345-0.1 0.524z" fill="#514A4A"/>
<path d="m1009.9 769.84s-18.829 28.16-18.829 44.56-12.08 28.2-18.26 34.33 0 40.37 0 40.37h24.91s-16.34-29-7.73-37.63 10.999-26.91 10.999-40.74 8.91-40.89 8.91-40.89z" fill="#000" opacity=".3"/>
<path d="m1206.8 856.24s-46.77 27.76-46.77 20.76 15.22-23.39 15.22-23.39 1.52 1.38 6.08 1.9c9.43 1.05 25.47-3.07 25.47 0.73z" fill="#fff" opacity=".2"/>
<path class="change-color-in-svg" d="m658.22 1017.1s20-24.111 51.7-23.571 49.57 23.571 49.57 23.571h-101.27z" fill="#8fbcbb"/>
<path class="change-color-in-svg" d="m909.42 1017.1s6.14-12.39 35.1-13c18.7-0.39 32.25 10.56 32.25 10.56s4.85-11.82 16.27-10.9 26 13.34 26 13.34h-109.62z" fill="#8fbcbb"/>
<path d="m746.66 1017.1s-10.66-15.29-2.66-20.699c8-5.41 31.4 20.699 31.4 20.699h-28.74z" fill="#000"/>
<path d="m781.53 1017.1s7-41.84 21-43.06-2.2 38.74-2.2 38.74 27.25-31.9 43.14-30.06-14 29.94-14 29.94 26.73-15.11 49.13-8.68c17.62 5.06 23.71 13.12 23.71 13.12h-120.78z" fill="#000"/>
<path d="m1224.3 1017.1h-185.07s8.1-15.75 37.45-17.39c0 0-21.35-14.73-14.91-21.72s32.45 16.78 32.45 16.78-6.45-19.56 0-22 18.13 19.86 18.13 19.86 2.38-25.11 37.94-18.94c0 0-21-24.65-2.1-38.06 8.23-5.84 19.93-2.45 30.51 3.24 0 0-35.69-46.26-11.19-56.14s55.07 33.31 55.07 33.31 6.57-37.94 58.36-2.82l-52 103.89" fill="#000"/>
<path d="m1257.3 1020.5h-948.22c-0.34 0-0.57-0.69-0.57-1.71s0.23-1.71 0.57-1.71h948.34c0.34 0 0.57 0.68 0.57 1.71s-0.35 1.71-0.69 1.71z" fill="#B2B6BB"/>
<path d="m669.75 249.12c6.754 10.078 10.069 22.069 9.449 34.185s-5.141 23.706-12.889 33.041c-7.747 9.336-18.306 15.916-30.099 18.759-11.794 2.843-24.191 1.796-35.341-2.985 5.149 6.205 11.602 11.199 18.9 14.626 7.298 3.428 15.262 5.205 23.324 5.205 8.063 0 16.027-1.777 23.325-5.204s13.751-8.421 18.9-14.625c5.149-6.205 8.868-13.468 10.891-21.273s2.301-15.959 0.815-23.884c-1.487-7.925-4.701-15.424-9.415-21.965-4.715-6.541-10.812-11.963-17.86-15.88z" fill="#fff"/>
<path d="m830.35 273.41c0.382 0 0.755-0.113 1.072-0.325 0.318-0.213 0.565-0.514 0.711-0.867 0.146-0.352 0.184-0.74 0.11-1.115-0.075-0.374-0.258-0.718-0.528-0.988s-0.614-0.454-0.989-0.528c-0.374-0.075-0.762-0.036-1.115 0.11-0.352 0.146-0.654 0.393-0.866 0.711-0.212 0.317-0.325 0.69-0.325 1.072 3e-3 0.511 0.207 1 0.568 1.362 0.361 0.361 0.851 0.565 1.362 0.568z" fill="#fff"/>
<path d="m710.56 228.83c0.382 0 0.755-0.113 1.072-0.326 0.318-0.212 0.565-0.513 0.711-0.866 0.146-0.352 0.184-0.74 0.11-1.115-0.075-0.374-0.258-0.718-0.528-0.988s-0.614-0.454-0.989-0.528c-0.374-0.075-0.762-0.036-1.115 0.11-0.352 0.146-0.654 0.393-0.866 0.71-0.212 0.318-0.325 0.691-0.325 1.073 2e-3 0.511 0.207 1 0.568 1.362 0.361 0.361 0.851 0.565 1.362 0.568z" fill="#fff"/>
<path d="m1102.3 273.41c0.38 0 0.75-0.113 1.07-0.325 0.32-0.213 0.57-0.514 0.71-0.867 0.15-0.352 0.19-0.74 0.11-1.115-0.07-0.374-0.26-0.718-0.53-0.988s-0.61-0.454-0.98-0.528c-0.38-0.075-0.77-0.036-1.12 0.11s-0.65 0.393-0.87 0.711c-0.21 0.317-0.32 0.69-0.32 1.072 0 0.512 0.2 1.003 0.56 1.365 0.37 0.361 0.86 0.565 1.37 0.565z" fill="#fff"/>
<path d="m325.63 408.05c0.382 0 0.755-0.113 1.072-0.325 0.318-0.212 0.565-0.513 0.711-0.866s0.185-0.741 0.11-1.115c-0.074-0.374-0.258-0.718-0.528-0.988s-0.614-0.454-0.988-0.528c-0.375-0.075-0.763-0.037-1.115 0.109-0.353 0.146-0.654 0.394-0.867 0.711-0.212 0.318-0.325 0.691-0.325 1.072 3e-3 0.512 0.207 1.001 0.568 1.362 0.362 0.362 0.851 0.566 1.362 0.568z" fill="#fff"/>
<path d="m911.25 331.68c0.382 0 0.755-0.113 1.073-0.325 0.317-0.212 0.564-0.513 0.71-0.866s0.185-0.741 0.11-1.115c-0.074-0.375-0.258-0.718-0.528-0.988s-0.614-0.454-0.988-0.529c-0.375-0.074-0.763-0.036-1.115 0.11-0.353 0.146-0.654 0.394-0.866 0.711-0.213 0.317-0.326 0.691-0.326 1.072 3e-3 0.511 0.207 1.001 0.568 1.362 0.362 0.362 0.851 0.566 1.362 0.568z" fill="#fff"/>
<path d="m1000.8 251.05c0.38 0 0.75-0.113 1.07-0.325s0.57-0.513 0.71-0.866c0.15-0.353 0.19-0.741 0.11-1.115-0.07-0.374-0.26-0.718-0.53-0.988s-0.61-0.454-0.98-0.528c-0.38-0.075-0.77-0.037-1.12 0.109-0.352 0.146-0.653 0.394-0.865 0.711-0.212 0.318-0.326 0.691-0.326 1.072 0 0.512 0.204 1.003 0.566 1.365s0.855 0.565 1.365 0.565z" fill="#fff"/>
<path d="m1154.9 371.82c0.38 0 0.76-0.113 1.07-0.325 0.32-0.212 0.57-0.514 0.71-0.866 0.15-0.353 0.19-0.741 0.11-1.116-0.07-0.374-0.25-0.718-0.52-0.988s-0.62-0.454-0.99-0.528c-0.38-0.074-0.77-0.036-1.12 0.11s-0.65 0.393-0.86 0.711c-0.22 0.317-0.33 0.69-0.33 1.072 0 0.512 0.2 1.003 0.57 1.365 0.36 0.362 0.85 0.565 1.36 0.565z" fill="#fff"/>
<path d="m1008.7 421.89c0.38 0 0.76-0.113 1.07-0.325 0.32-0.212 0.57-0.513 0.71-0.866 0.15-0.353 0.19-0.741 0.11-1.115-0.07-0.375-0.25-0.719-0.52-0.988-0.27-0.27-0.62-0.454-0.99-0.529-0.38-0.074-0.77-0.036-1.12 0.11s-0.65 0.394-0.86 0.711c-0.22 0.317-0.33 0.691-0.33 1.072 0 0.512 0.2 1.003 0.57 1.365 0.36 0.362 0.85 0.565 1.36 0.565z" fill="#fff"/>
<path d="m765.19 364.31c0.381 0 0.755-0.113 1.072-0.325s0.565-0.514 0.711-0.866c0.146-0.353 0.184-0.741 0.11-1.115-0.075-0.375-0.259-0.719-0.529-0.988-0.269-0.27-0.613-0.454-0.988-0.529-0.374-0.074-0.762-0.036-1.115 0.11-0.352 0.146-0.654 0.394-0.866 0.711s-0.325 0.69-0.325 1.072c2e-3 0.511 0.207 1.001 0.568 1.362s0.851 0.566 1.362 0.568z" fill="#fff"/>
<path d="m420.84 439.12c0.382 0 0.755-0.113 1.072-0.326 0.318-0.212 0.565-0.513 0.711-0.866 0.146-0.352 0.185-0.74 0.11-1.115-0.074-0.374-0.258-0.718-0.528-0.988s-0.614-0.454-0.988-0.528c-0.375-0.075-0.763-0.036-1.115 0.11-0.353 0.146-0.655 0.393-0.867 0.71-0.212 0.318-0.325 0.691-0.325 1.073 3e-3 0.511 0.207 1 0.568 1.362 0.362 0.361 0.851 0.565 1.362 0.568z" fill="#fff"/>
<path d="m490.34 335.54c0.382 0 0.755-0.114 1.072-0.326 0.318-0.212 0.565-0.513 0.711-0.866 0.146-0.352 0.185-0.74 0.11-1.115-0.074-0.374-0.258-0.718-0.528-0.988s-0.614-0.454-0.988-0.528c-0.375-0.075-0.763-0.036-1.115 0.11-0.353 0.146-0.655 0.393-0.867 0.71-0.212 0.318-0.325 0.691-0.325 1.073 3e-3 0.511 0.207 1 0.568 1.362 0.362 0.361 0.851 0.565 1.362 0.568z" fill="#fff"/>
<path d="m332.15 489.89c0.381 0 0.755-0.113 1.072-0.325s0.565-0.513 0.711-0.866 0.184-0.741 0.11-1.115c-0.075-0.375-0.259-0.719-0.529-0.988-0.27-0.27-0.613-0.454-0.988-0.529-0.374-0.074-0.762-0.036-1.115 0.11s-0.654 0.394-0.866 0.711-0.325 0.691-0.325 1.072c2e-3 0.511 0.207 1.001 0.568 1.362s0.851 0.566 1.362 0.568z" fill="#fff"/>
<path d="m569.26 287.59c0.382 0 0.755-0.113 1.072-0.325 0.318-0.212 0.565-0.513 0.711-0.866s0.184-0.741 0.11-1.115c-0.075-0.374-0.258-0.718-0.528-0.988s-0.614-0.454-0.988-0.528c-0.375-0.075-0.763-0.037-1.116 0.109-0.352 0.146-0.654 0.394-0.866 0.711-0.212 0.318-0.325 0.691-0.325 1.072 3e-3 0.512 0.207 1.001 0.568 1.362 0.362 0.362 0.851 0.566 1.362 0.568z" fill="#fff"/>
<path d="m480.31 232.69c0.382 0 0.755-0.113 1.072-0.325 0.318-0.212 0.565-0.514 0.711-0.866 0.146-0.353 0.184-0.741 0.11-1.115-0.075-0.375-0.259-0.719-0.528-0.989-0.27-0.27-0.614-0.453-0.989-0.528-0.374-0.074-0.762-0.036-1.115 0.11-0.352 0.146-0.654 0.393-0.866 0.711-0.212 0.317-0.325 0.69-0.325 1.072 2e-3 0.511 0.207 1.001 0.568 1.362s0.851 0.565 1.362 0.568z" fill="#fff"/>
<path d="m619.62 406.12c0.382 0 0.755-0.113 1.073-0.326 0.317-0.212 0.564-0.513 0.711-0.866 0.146-0.352 0.184-0.74 0.109-1.115-0.074-0.374-0.258-0.718-0.528-0.988s-0.614-0.454-0.988-0.528c-0.374-0.075-0.762-0.036-1.115 0.11s-0.654 0.393-0.866 0.71c-0.212 0.318-0.326 0.691-0.326 1.073 3e-3 0.511 0.207 1 0.569 1.362 0.361 0.361 0.85 0.565 1.361 0.568z" fill="#fff"/>
<path d="m745.14 429.49c0.382 0 0.755-0.113 1.072-0.325 0.318-0.212 0.565-0.514 0.711-0.867 0.146-0.352 0.184-0.74 0.11-1.115-0.075-0.374-0.258-0.718-0.528-0.988s-0.614-0.454-0.989-0.528c-0.374-0.075-0.762-0.036-1.115 0.11-0.352 0.146-0.654 0.393-0.866 0.711-0.212 0.317-0.325 0.69-0.325 1.072 3e-3 0.511 0.207 1 0.568 1.362 0.361 0.361 0.851 0.565 1.362 0.568z" fill="#fff"/>
<path d="m394.89 337.46c0.382 0 0.755-0.114 1.072-0.326 0.318-0.212 0.565-0.513 0.711-0.866 0.146-0.352 0.184-0.741 0.11-1.115-0.075-0.374-0.258-0.718-0.528-0.988s-0.614-0.454-0.989-0.528c-0.374-0.075-0.762-0.037-1.115 0.11-0.352 0.146-0.654 0.393-0.866 0.71-0.212 0.318-0.325 0.691-0.325 1.073 3e-3 0.511 0.207 1 0.568 1.361 0.362 0.362 0.851 0.566 1.362 0.569z" fill="#fff"/>
<path d="m535.18 691-160.85 186 0.76 0.65 160.84-186-0.75-0.65z" fill="#000"/>
<path class="change-color-in-svg" d="m535.57 691.35s76.71 21 169.15-1.44l-124.4 187.45h-180.63l135.88-186.01z" fill="#8fbcbb"/>
<path class="change-color-in-svg" d="m704.72 689.91 102.49 187.45h-226.89l124.4-187.45z" fill="#8fbcbb"/>
<path d="m704.72 689.91 102.49 187.45h-226.89l124.4-187.45z" fill="#fff" opacity=".3"/>
<path class="change-color-in-svg" d="m704.72 689.91-9 11.55h16.56l-7.56-11.55z" fill="#8fbcbb"/>
<path d="m704.72 689.91-9 11.55h16.56l-7.56-11.55z" fill="#000" opacity=".5"/>
<path d="m699.77 701.46s-22.6 114.27-73.94 162.54c0 0 16.8 4.58 21.92 13.38 0 0 46-56.56 57-157.2 11 100.63 57 157.2 57 157.2 5.12-8.8 21.92-13.38 21.92-13.38-51.34-48.26-73.94-162.53-73.94-162.53l-9.96-0.01z" fill="#fff" opacity=".3"/>
<path class="change-color-in-svg" d="m559.37 877.36 6.38-8.23h72.58s7.26 3.9 9.42 8.23h-88.38z" fill="#8fbcbb"/>
<path class="change-color-in-svg" d="m807.21 877.36-4.79-8.23h-31.29s-7.26 3.9-9.42 8.23h45.5z" fill="#8fbcbb"/>
<g fill="#000" opacity=".3">
<path d="m399.69 877.36 6-8.23h232.64s7.26 3.9 9.42 8.23h-248.06z" opacity=".3"/>
<path d="m807.21 877.36-4.79-8.23h-31.29s-7.26 3.9-9.42 8.23h45.5z" opacity=".3"/>
</g>
<path d="m565.38 870.43-0.79-0.62 140.16-180.76 0.38 0.58 116.94 179.23-0.84 0.55-116.55-178.64-139.3 179.66z" fill="#000"/>
<path d="m546.53 747.5c6.19 1.73 29.09 6.93 61.8 0.39 0.515-0.098 1.047-0.038 1.527 0.172 0.481 0.209 0.886 0.559 1.164 1.004 0.278 0.444 0.415 0.962 0.394 1.486-0.022 0.524-0.202 1.028-0.515 1.448l-43 54.81c-0.238 0.306-0.541 0.554-0.887 0.727s-0.726 0.267-1.113 0.273h-62.25c-0.484-2e-3 -0.958-0.14-1.368-0.396s-0.741-0.622-0.956-1.055c-0.215-0.434-0.305-0.919-0.26-1.401 0.045-0.481 0.223-0.941 0.514-1.328l42.18-55.24c0.321-0.406 0.756-0.708 1.249-0.866 0.493-0.159 1.023-0.167 1.521-0.024z" fill="#000" opacity=".5"/>
<path d="m547.69 753.53c4.95 1.38 23.27 5.55 49.43 0.31 0.413-0.071 0.837-0.016 1.218 0.158s0.7 0.459 0.916 0.818 0.319 0.775 0.295 1.193-0.173 0.819-0.429 1.151l-34.34 43.84c-0.195 0.248-0.444 0.45-0.728 0.588-0.284 0.139-0.596 0.211-0.912 0.212h-49.76c-0.387-1e-3 -0.767-0.11-1.095-0.315-0.329-0.205-0.594-0.497-0.765-0.844-0.172-0.347-0.243-0.735-0.206-1.121 0.037-0.385 0.181-0.752 0.416-1.06l33.74-44.19c0.253-0.332 0.6-0.58 0.996-0.712s0.822-0.142 1.224-0.028z" fill="#fff" opacity=".4"/>
<path class="change-color-in-svg" d="m608.36 758.83-24.789-2.07c-7.291-0.651-14.627-0.61-21.911 0.12l-19.49 1.94c-2.493 0-4.883-0.991-6.646-2.754-1.763-1.762-2.753-4.153-2.753-6.647 0-2.493 0.99-4.883 2.753-6.646s4.153-2.753 6.646-2.753l20.411 1.86c6.374 0.581 12.786 0.638 19.17 0.169l26.159-2 0.45 18.781z" fill="#8fbcbb"/>
<path d="m608.36 758.83-24.789-2.07c-7.291-0.651-14.627-0.61-21.911 0.12l-19.49 1.94c-2.493 0-4.883-0.991-6.646-2.754-1.763-1.762-2.753-4.153-2.753-6.647 0-2.493 0.99-4.883 2.753-6.646s4.153-2.753 6.646-2.753l20.411 1.86c6.374 0.581 12.786 0.638 19.17 0.169l26.159-2 0.45 18.781z" fill="#fff" opacity=".3"/>
<path class="change-color-in-svg" d="m607.78 750.53c0.465 0.194 0.972 0.267 1.473 0.213s0.98-0.233 1.394-0.521c0.413-0.288 0.748-0.675 0.972-1.127 0.224-0.451 0.331-0.951 0.311-1.455-0.053-0.811-0.378-1.581-0.923-2.185-0.544-0.604-1.276-1.007-2.077-1.145-0.595-0.118-1.207-0.118-1.801 3e-3 -0.595 0.12-1.159 0.357-1.661 0.698-0.501 0.341-0.93 0.778-1.261 1.286s-0.558 1.077-0.667 1.673c-0.214 1.106-0.093 2.25 0.347 3.287s1.179 1.919 2.123 2.533c0.711 0.439 1.516 0.702 2.349 0.768s1.67-0.067 2.441-0.388c1.729-0.604 3.164-1.84 4.018-3.46 0.853-1.62 1.061-3.503 0.582-5.27-0.46-1.61-1.447-3.02-2.803-4.002-1.357-0.983-3.003-1.482-4.677-1.418-2.383 0.058-4.655 1.018-6.357 2.687-1.701 1.67-2.705 3.923-2.808 6.305-0.103 2.381 0.703 4.713 2.254 6.523 1.551 1.809 3.732 2.962 6.101 3.225 2.849 0.325 5.714-0.466 7.992-2.207 2.279-1.742 3.794-4.298 4.228-7.133l-3.84-0.54" fill="#8fbcbb"/>
<g opacity=".5">
<g opacity=".5">
<path d="m607.78 750.53c0.465 0.194 0.972 0.267 1.473 0.213s0.98-0.233 1.394-0.521c0.413-0.288 0.748-0.675 0.972-1.127 0.224-0.451 0.331-0.951 0.311-1.455-0.053-0.811-0.378-1.581-0.923-2.185-0.544-0.604-1.276-1.007-2.077-1.145-0.595-0.118-1.207-0.118-1.801 3e-3 -0.595 0.12-1.159 0.357-1.661 0.698-0.501 0.341-0.93 0.778-1.261 1.286s-0.558 1.077-0.667 1.673c-0.214 1.106-0.093 2.25 0.347 3.287s1.179 1.919 2.123 2.533c0.711 0.439 1.516 0.702 2.349 0.768s1.67-0.067 2.441-0.388c1.729-0.604 3.164-1.84 4.018-3.46 0.853-1.62 1.061-3.503 0.582-5.27-0.46-1.61-1.447-3.02-2.803-4.002-1.357-0.983-3.003-1.482-4.677-1.418-2.383 0.058-4.655 1.018-6.357 2.687-1.701 1.67-2.705 3.923-2.808 6.305-0.103 2.381 0.703 4.713 2.254 6.523 1.551 1.809 3.732 2.962 6.101 3.225 2.849 0.325 5.714-0.466 7.992-2.207 2.279-1.742 3.794-4.298 4.228-7.133l-3.84-0.54" fill="#fff" opacity=".5"/>
</g>
</g>
<path class="change-color-in-svg" d="m554.7 877.36v-22.8c0-0.406 0.161-0.795 0.448-1.082s0.676-0.448 1.082-0.448h1.77c0.373 0 0.734 0.136 1.014 0.383 0.28 0.246 0.46 0.587 0.506 0.957l0.73 5.54 1-4.63c0.074-0.343 0.263-0.65 0.536-0.871 0.273-0.22 0.613-0.34 0.964-0.339h1.25c0.406 0 0.795 0.161 1.082 0.448s0.448 0.676 0.448 1.082v21.76h-10.83z" fill="#8fbcbb"/>
<path class="change-color-in-svg" d="m821 877.36v-26.27c0-0.215 0.085-0.421 0.237-0.572 0.152-0.152 0.358-0.238 0.573-0.238h3.11c0.203 0 0.399 0.075 0.549 0.212s0.243 0.326 0.261 0.528l0.83 8.89 1-5.95c0.019-0.11 0.06-0.216 0.122-0.31 0.061-0.094 0.141-0.175 0.235-0.237s0.199-0.104 0.31-0.123c0.11-0.019 0.224-0.016 0.333 0.01l2.65 0.62c0.179 0.041 0.339 0.141 0.453 0.285 0.115 0.144 0.177 0.322 0.177 0.505v22.65h-10.84z" fill="#8fbcbb"/>
<path class="change-color-in-svg" d="m369.28 877.36v-22.8c0-0.406 0.161-0.795 0.448-1.082s0.677-0.448 1.082-0.448h1.78c0.373 0 0.734 0.136 1.014 0.383 0.28 0.246 0.46 0.587 0.506 0.957l0.73 5.54 1-4.63c0.074-0.343 0.263-0.65 0.536-0.871 0.273-0.22 0.613-0.34 0.964-0.339h1.22c0.406 0 0.795 0.161 1.082 0.448s0.448 0.676 0.448 1.082v21.76h-10.81z" fill="#8fbcbb"/>
<g fill="#000" opacity=".5">
<path d="m554.7 877.36v-22.8c0-0.406 0.161-0.795 0.448-1.082s0.676-0.448 1.082-0.448h1.77c0.373 0 0.734 0.136 1.014 0.383 0.28 0.246 0.46 0.587 0.506 0.957l0.73 5.54 1-4.63c0.074-0.343 0.263-0.65 0.536-0.871 0.273-0.22 0.613-0.34 0.964-0.339h1.25c0.406 0 0.795 0.161 1.082 0.448s0.448 0.676 0.448 1.082v21.76h-10.83z" opacity=".5"/>
<path d="m369.28 877.36v-22.8c0-0.406 0.161-0.795 0.448-1.082s0.677-0.448 1.082-0.448h1.78c0.373 0 0.734 0.136 1.014 0.383 0.28 0.246 0.46 0.587 0.506 0.957l0.73 5.54 1-4.63c0.074-0.343 0.263-0.65 0.536-0.871 0.273-0.22 0.613-0.34 0.964-0.339h1.22c0.406 0 0.795 0.161 1.082 0.448s0.448 0.676 0.448 1.082v21.76h-10.81z" opacity=".5"/>
<path d="m821 877.36v-26.27c0-0.215 0.085-0.421 0.237-0.572 0.152-0.152 0.358-0.238 0.573-0.238h3.11c0.203 0 0.399 0.075 0.549 0.212s0.243 0.326 0.261 0.528l0.83 8.89 1-5.95c0.019-0.11 0.06-0.216 0.122-0.31 0.061-0.094 0.141-0.175 0.235-0.237s0.199-0.104 0.31-0.123c0.11-0.019 0.224-0.016 0.333 0.01l2.65 0.62c0.179 0.041 0.339 0.141 0.453 0.285 0.115 0.144 0.177 0.322 0.177 0.505v22.65h-10.84z" opacity=".5"/>
</g>
<path d="m531.64 696.73s-3.82 34.55 78 30c49.67-2.74 82.26-26.94 95-36.87 0 0-34 9.38-85.38 10.24-37.33 0.62-65.21-5.14-83.76-8.79l-3.86 5.42z" fill="#fff" opacity=".3"/>
<path d="m535.15 691.19s-2.8 30.91 65.34 27.15c41.35-2.28 63.55-14.34 74.18-22.61 0 0-22.37 4.55-65 4.45s-74.52-8.99-74.52-8.99z" fill="#fff" opacity=".5"/>
<path d="m647.75 877.36s46-56.56 57-157.2c11 100.63 57 157.2 57 157.2h-114z" fill="#000"/>
<path class="change-color-in-svg" d="m700.88 746.68s1.46-8.58 1.89-11.47c0.56-3.73 1.94-15 1.94-15s1.27 10.47 1.78 14c0.46 3.13 2 12.54 2 12.54v130.61h-7.67v-130.68h0.06z" fill="#8fbcbb"/>
<path class="change-color-in-svg" d="m608.36 759.28c-0.435 1e-3 -0.869-0.022-1.3-0.07-2.171-0.262-4.193-1.235-5.753-2.767-1.559-1.533-2.567-3.538-2.867-5.703-0.184-1.366-0.08-2.756 0.307-4.079s1.047-2.55 1.937-3.602c0.891-1.051 1.993-1.905 3.234-2.504s2.594-0.932 3.972-0.975c1.152-0.057 2.302 0.143 3.367 0.584 1.066 0.44 2.021 1.112 2.796 1.966 0.776 0.853 1.352 1.868 1.689 2.971 0.336 1.104 0.425 2.267 0.258 3.409l3.38 0.47c0.116 0.017 0.22 0.079 0.291 0.172 0.071 0.094 0.103 0.211 0.089 0.328-0.408 2.729-1.784 5.221-3.877 7.02s-4.763 2.786-7.523 2.78zm-0.21-18.81h-0.22c-2.191 0.172-4.243 1.141-5.769 2.722s-2.421 3.666-2.515 5.862c-0.095 2.195 0.617 4.35 2.001 6.057 1.384 1.706 3.345 2.848 5.513 3.209 2.658 0.302 5.332-0.407 7.492-1.985s3.648-3.911 4.168-6.535l-3-0.42c-0.344 1.191-0.966 2.283-1.814 3.187s-1.899 1.594-3.066 2.013c-0.834 0.349-1.739 0.494-2.64 0.423s-1.772-0.357-2.54-0.833c-1.024-0.666-1.826-1.622-2.303-2.746s-0.609-2.365-0.377-3.564c0.119-0.654 0.368-1.277 0.731-1.833 0.364-0.557 0.834-1.035 1.384-1.407 0.551-0.373 1.17-0.632 1.821-0.762 0.652-0.131 1.323-0.13 1.974 2e-3 0.903 0.159 1.726 0.618 2.337 1.301 0.611 0.684 0.975 1.553 1.033 2.469 0.011 0.597-0.133 1.187-0.416 1.712-0.284 0.526-0.699 0.969-1.204 1.288-0.464 0.306-0.996 0.493-1.549 0.544-0.553 0.05-1.11-0.037-1.621-0.254-0.06-0.022-0.114-0.056-0.159-0.101-0.046-0.044-0.081-0.097-0.104-0.156-0.024-0.059-0.034-0.122-0.032-0.185 3e-3 -0.063 0.019-0.125 0.048-0.182 0.028-0.057 0.068-0.107 0.117-0.147s0.106-0.069 0.167-0.086 0.125-0.02 0.187-0.01c0.063 9e-3 0.123 0.032 0.176 0.067 0.374 0.149 0.779 0.205 1.179 0.163 0.401-0.042 0.785-0.18 1.121-0.403 0.38-0.235 0.692-0.565 0.904-0.959 0.213-0.393 0.318-0.835 0.306-1.281-0.055-0.71-0.346-1.381-0.826-1.907-0.48-0.525-1.122-0.875-1.824-0.993-0.538-0.11-1.092-0.111-1.631-2e-3 -0.538 0.108-1.048 0.324-1.502 0.633-0.453 0.31-0.839 0.708-1.136 1.169-0.297 0.462-0.498 0.979-0.591 1.52-0.199 1.016-0.089 2.069 0.316 3.022 0.404 0.954 1.085 1.764 1.954 2.328 0.652 0.406 1.392 0.649 2.158 0.708s1.535-0.067 2.242-0.368c1.075-0.4 2.038-1.054 2.808-1.905 0.769-0.851 1.322-1.875 1.612-2.985v-0.11c0.207-1.049 0.166-2.131-0.12-3.16-0.423-1.475-1.315-2.772-2.539-3.695-1.225-0.924-2.717-1.424-4.251-1.425z" fill="#8fbcbb"/>
<g opacity=".5">
<g opacity=".5">
<g opacity=".5">
<path d="m608.36 759.28c-0.435 1e-3 -0.869-0.022-1.3-0.07-2.171-0.262-4.193-1.235-5.753-2.767-1.559-1.533-2.567-3.538-2.867-5.703-0.184-1.366-0.08-2.756 0.307-4.079s1.047-2.55 1.937-3.602c0.891-1.051 1.993-1.905 3.234-2.504s2.594-0.932 3.972-0.975c1.152-0.057 2.302 0.143 3.367 0.584 1.066 0.44 2.021 1.112 2.796 1.966 0.776 0.853 1.352 1.868 1.689 2.971 0.336 1.104 0.425 2.267 0.258 3.409l3.38 0.47c0.116 0.017 0.22 0.079 0.291 0.172 0.071 0.094 0.103 0.211 0.089 0.328-0.408 2.729-1.784 5.221-3.877 7.02s-4.763 2.786-7.523 2.78zm-0.21-18.81h-0.22c-2.191 0.172-4.243 1.141-5.769 2.722s-2.421 3.666-2.515 5.862c-0.095 2.195 0.617 4.35 2.001 6.057 1.384 1.706 3.345 2.848 5.513 3.209 2.658 0.302 5.332-0.407 7.492-1.985s3.648-3.911 4.168-6.535l-3-0.42c-0.344 1.191-0.966 2.283-1.814 3.187s-1.899 1.594-3.066 2.013c-0.834 0.349-1.739 0.494-2.64 0.423s-1.772-0.357-2.54-0.833c-1.024-0.666-1.826-1.622-2.303-2.746s-0.609-2.365-0.377-3.564c0.119-0.654 0.368-1.277 0.731-1.833 0.364-0.557 0.834-1.035 1.384-1.407 0.551-0.373 1.17-0.632 1.821-0.762 0.652-0.131 1.323-0.13 1.974 2e-3 0.903 0.159 1.726 0.618 2.337 1.301 0.611 0.684 0.975 1.553 1.033 2.469 0.011 0.597-0.133 1.187-0.416 1.712-0.284 0.526-0.699 0.969-1.204 1.288-0.464 0.306-0.996 0.493-1.549 0.544-0.553 0.05-1.11-0.037-1.621-0.254-0.06-0.022-0.114-0.056-0.159-0.101-0.046-0.044-0.081-0.097-0.104-0.156-0.024-0.059-0.034-0.122-0.032-0.185 3e-3 -0.063 0.019-0.125 0.048-0.182 0.028-0.057 0.068-0.107 0.117-0.147s0.106-0.069 0.167-0.086 0.125-0.02 0.187-0.01c0.063 9e-3 0.123 0.032 0.176 0.067 0.374 0.149 0.779 0.205 1.179 0.163 0.401-0.042 0.785-0.18 1.121-0.403 0.38-0.235 0.692-0.565 0.904-0.959 0.213-0.393 0.318-0.835 0.306-1.281-0.055-0.71-0.346-1.381-0.826-1.907-0.48-0.525-1.122-0.875-1.824-0.993-0.538-0.11-1.092-0.111-1.631-2e-3 -0.538 0.108-1.048 0.324-1.502 0.633-0.453 0.31-0.839 0.708-1.136 1.169-0.297 0.462-0.498 0.979-0.591 1.52-0.199 1.016-0.089 2.069 0.316 3.022 0.404 0.954 1.085 1.764 1.954 2.328 0.652 0.406 1.392 0.649 2.158 0.708s1.535-0.067 2.242-0.368c1.075-0.4 2.038-1.054 2.808-1.905 0.769-0.851 1.322-1.875 1.612-2.985v-0.11c0.207-1.049 0.166-2.131-0.12-3.16-0.423-1.475-1.315-2.772-2.539-3.695-1.225-0.924-2.717-1.424-4.251-1.425z" fill="#000" opacity=".5"/>
</g>
</g>
</g>
<path d="m570.11 756.36c-0.658-2.416-0.712-4.957-0.156-7.399 0.557-2.441 1.706-4.708 3.346-6.601h1.09l-0.08 0.2c-0.06 0.14-2.27 4.91 2.06 13.58l0.1 0.21h-1c-2.78-5.66-2.87-9.72-2.53-12-1.173 1.722-1.954 3.68-2.287 5.736-0.334 2.056-0.212 4.16 0.357 6.164v0.11h-0.9z" fill="#000"/>
<path d="m565.51 872.64-10.81-7.58v-1.22l10.81 7.58v1.22z" fill="#000"/>
<path d="m554.7 872.6v-1.14l10.81-5.89v1.14l-10.81 5.89z" fill="#000"/>
<path d="m831.8 872.64-10.8-7.58v-1.22l10.82 7.58-0.02 1.22z" fill="#000"/>
<path d="m821 872.6v-1.14l10.82-5.89v1.14l-10.82 5.89z" fill="#000"/>
<path d="m273.21 802.2c1.23-2.13 2.78-3.33 4.76-3.07 10.54 1.39 24.68 56.3 24.68 56.3s-5.52-38.23 2.53-40.91 11.49 38.31 11.49 38.31-4.41-64.17 9.58-64.17 6.51 76.43 6.51 76.43 12.68-24.58 21.15-21.16-7 40-7 40 19.56-20.47 36.65-14.53 20.55 43.09 20.55 43.09 13.14-10 24.22-2.42 1 22 1 22 57.82-26.2 89.34 29.65c6.5 11.51 10 26.76 11.49 43.7 0 0 23.25-22.25 49.92-5.76 6.634 4.03 11.758 10.14 14.58 17.37h-261.55l-59.9-214.83z" fill="#000"/>
<path d="m841 913 2.06 6.67c0.079 0.26 0.103 0.534 0.069 0.804-0.033 0.27-0.123 0.53-0.264 0.763-0.14 0.233-0.328 0.433-0.551 0.589s-0.477 0.263-0.744 0.314l-62.88 11.86-2.69-14.32 62.84-8c0.459-0.082 0.932 7e-3 1.33 0.251 0.398 0.243 0.693 0.623 0.83 1.069z" fill="#3F4249"/>
<path d="m841 913 2.06 6.67c0.079 0.26 0.103 0.534 0.069 0.804-0.033 0.27-0.123 0.53-0.264 0.763-0.14 0.233-0.328 0.433-0.551 0.589s-0.477 0.263-0.744 0.314l-62.88 11.86-2.69-14.32 62.84-8c0.459-0.082 0.932 7e-3 1.33 0.251 0.398 0.243 0.693 0.623 0.83 1.069z" fill="#000" opacity=".2"/>
<path d="m778.74 934c1.68-0.31 2.45-3.78 1.71-7.74s-2.7-6.92-4.39-6.61-2.44 3.78-1.71 7.74 2.71 6.95 4.39 6.61z" fill="#21252B"/>
<path d="m778.74 934c1.68-0.31 2.45-3.78 1.71-7.74s-2.7-6.92-4.39-6.61-2.44 3.78-1.71 7.74 2.71 6.95 4.39 6.61z" fill="#000" opacity=".3"/>
<path d="m780.68 928.34 21.28-4c1.689-0.316 3.265-1.072 4.57-2.19 1.236-1.065 2.747-1.758 4.36-2l7.85-1.18c0.134-0.037 0.251-0.121 0.327-0.237s0.108-0.256 0.088-0.394-0.089-0.263-0.195-0.353c-0.106-0.091-0.241-0.139-0.38-0.136l-7.85 1.15c-1.822 0.27-3.531 1.05-4.93 2.25-1.141 0.984-2.52 1.653-4 1.94l-21.18 4 0.06 1.15z" fill="#61656D" opacity=".3"/>
<g opacity=".3">
<path d="m811.54 925h0.09l31.45-5v-0.17c-0.06-0.23-0.28-0.92-0.28-0.92l-31.31 5c-0.148 0.025-0.28 0.107-0.368 0.229-0.088 0.121-0.125 0.273-0.102 0.421 0.03 0.119 0.096 0.226 0.189 0.305s0.209 0.126 0.331 0.135z" fill="#000" opacity=".3"/>
</g>
<path d="m780.09 924.82 13.539-2.33c0.078-9e-3 0.153-0.034 0.22-0.072 0.068-0.039 0.127-0.091 0.173-0.154 0.047-0.062 0.08-0.134 0.098-0.21 0.018-0.075 0.02-0.154 6e-3 -0.231-0.014-0.076-0.043-0.149-0.086-0.214s-0.099-0.121-0.164-0.163c-0.065-0.043-0.139-0.071-0.215-0.084-0.077-0.013-0.156-0.011-0.232 8e-3l-13.7 2.36 0.361 1.09z" fill="#61656D" opacity=".3"/>
<path d="m808.68 916c-30.12-3-27.21-32.67-27.21-32.67 1.764 2.967 4.376 5.339 7.5 6.81 0 0-9-14.06-6-30.24 0 0 1.81 5 9.52 7.84 0 0-11.08-36.23 21.63-56.18 0 0-7 12.59 2.73 26.26 8.69 12.22 10.83 12.17 8.4 28.71 0 0 4-14.26 17-12.24 0 0-9 2.35-5.22 12.9 5.25 14.57 11.73 52.74-28.35 48.81z" fill="#fff"/>
<path class="change-color-in-svg" d="m808.67 916s-14.95-0.49-17.06-29.6c1.568 0.459 2.99 1.317 4.127 2.489 1.137 1.173 1.952 2.62 2.363 4.201 0 0 1.45-8.74-3.63-14.71s-5-8.64-5-8.64 5.67 3.38 11.21 3.41c0 0-4.7-4.25-3-14.15s9.39-23.5 9.39-23.5c-0.533 4.173 0.072 8.413 1.749 12.271s4.366 7.192 7.781 9.649c12 9.08 3.92 29.46 3.92 29.46s4.34-16 11.48-20.86c0 0-1.66 6.13 2.6 14.85 5.75 11.73 1.19 40.32-25.93 35.13z" fill="#8fbcbb"/>
<path class="change-color-in-svg" d="m831 849.18c-0.32-1.94 0-5.22 3-10.38-0.276 1.995-0.218 4.023 0.17 6 0.7 2.35 1.001 3.22 0.841 4.38 0 0.532-0.212 1.042-0.588 1.418s-0.886 0.587-1.418 0.587c-0.531 0-1.041-0.211-1.417-0.587s-0.588-0.886-0.588-1.418z" fill="#8fbcbb"/>
<path class="change-color-in-svg" d="m852.44 860.34c-1 5.46-5.14 3.7-7.44 5.65s0.16 7.4 0.16 7.4c0.341-0.924 0.889-1.757 1.601-2.436s1.57-1.187 2.509-1.484c5.45-1.68 3.17-9.13 3.17-9.13z" fill="#8fbcbb"/>
<path class="change-color-in-svg" d="m770.63 861.6c-1.58-1.31-4.14-4.77-1.26-12.31 0 0-1.31 4.17 1.83 6.37 2.75 1.93 3.82 5.13 1.95 6.24-0.401 0.211-0.856 0.295-1.306 0.241-0.45-0.053-0.873-0.242-1.214-0.541z" fill="#8fbcbb"/>
<path class="change-color-in-svg" d="m777.54 883.75c-2.38 0-5.34-2.07-6.46-7 0 0 3 2.53 5.52 2.83 3.6 0.42 2.55 4.15 0.94 4.17z" fill="#8fbcbb"/>
<path d="m787.24 914.85-2.06 6.67c-0.081 0.26-0.106 0.534-0.073 0.805 0.033 0.27 0.122 0.531 0.263 0.764 0.141 0.234 0.329 0.434 0.553 0.59 0.224 0.155 0.479 0.261 0.747 0.311l62.84 11.83 2.66-14.33-62.84-8c-0.454-0.059-0.913 0.045-1.296 0.294-0.383 0.25-0.665 0.627-0.794 1.066z" fill="#3F4249"/>
<path d="m853.92 929.19c0.74-4 0-7.43-1.71-7.74s-3.65 2.64-4.38 6.61 0 7.43 1.71 7.74 3.64-2.65 4.38-6.61z" fill="#3F4249"/>
<path d="m853.92 929.19c0.74-4 0-7.43-1.71-7.74s-3.65 2.64-4.38 6.61 0 7.43 1.71 7.74 3.64-2.65 4.38-6.61z" fill="#000" opacity=".3"/>
<path d="m847.53 930.15-21.28-4c-1.69-0.316-3.266-1.071-4.571-2.19-1.235-1.065-2.747-1.758-4.359-2l-7.851-1.18c-0.134-0.036-0.25-0.12-0.326-0.237-0.077-0.116-0.108-0.256-0.088-0.393 0.019-0.138 0.088-0.264 0.194-0.354s0.241-0.138 0.381-0.136l7.849 1.18c1.823 0.271 3.532 1.051 4.93 2.25 1.142 0.984 2.521 1.653 4 1.94l21.181 4-0.06 1.12z" fill="#868A91" opacity=".3"/>
<path d="m816.66 926.85h-0.09l-31.45-5.06v-0.17c0.06-0.23 0.28-0.92 0.28-0.92l31.31 5c0.074 6e-3 0.145 0.026 0.211 0.06s0.124 0.08 0.172 0.136 0.084 0.121 0.107 0.191c0.022 0.071 0.031 0.145 0.025 0.218-6e-3 0.074-0.026 0.145-0.06 0.211-0.033 0.066-0.08 0.124-0.136 0.172s-0.121 0.084-0.191 0.107-0.144 0.031-0.218 0.025l0.04 0.03z" fill="#868A91" opacity=".3"/>
<path d="m848.12 926.63-13.54-2.33c-0.141-0.034-0.263-0.121-0.342-0.242-0.079-0.122-0.109-0.269-0.084-0.411 0.026-0.143 0.105-0.271 0.221-0.357 0.116-0.087 0.261-0.126 0.405-0.11l13.7 2.36-0.36 1.09z" fill="#868A91" opacity=".3"/>
<path d="m1032.3 938.09c64.29 0 116.41-11.972 116.41-26.74s-52.12-26.74-116.41-26.74c-64.292 0-116.41 11.972-116.41 26.74s52.119 26.74 116.41 26.74z" fill="#000" opacity=".2"/>
<path d="m1099.6 789.74 13.36 21.93c1.71 2.657 2.31 5.876 1.69 8.973-0.63 3.096-2.44 5.825-5.05 7.607l-50.92 31.36-8.93-11.5 33.44-32.61-6.81-10.06 23.22-15.7z" fill="#FC9D9D"/>
<path d="m935.88 789.74-13.34 21.93c-1.71 2.656-2.317 5.874-1.691 8.971 0.625 3.096 2.434 5.826 5.041 7.609l52.41 31.36 8.93-11.5-34.93-32.61 6.81-10.06-23.23-15.7z" fill="#FC9D9D"/>
<path d="m1036.3 738.72-36.339-1.26-31.66 6.35c-2.533 0.444-4.945 1.415-7.079 2.85s-3.944 3.302-5.311 5.48l-21.67 38.46 24.48 16.51 11.87-17.26v72.84h94.809v-72.84l10.67 16.42 25-15.69-21.15-38.58c-1.4-2.3-3.3-4.263-5.54-5.751-2.25-1.488-4.79-2.464-7.46-2.859l-30.66-4.64" fill="#21252B"/>
<path d="m998.68 702.3-0.35 35.31c-6e-3 0.79 0.243 1.562 0.71 2.2l0.32 0.55c8.39 13 28.9 8.84 35.5 2.13 0.54-0.453 0.96-1.038 1.21-1.699 0.24-0.66 0.32-1.374 0.21-2.071l-5.9-39-31.7 2.58z" fill="#FC9D9D"/>
<path d="m1033.8 686.25s6.45 42.63-17.07 44.36c-22.999 1.73-23.679-41.37-23.679-41.37l-0.62-12.35 29.529-5.19 7.47 3.85 4.37 10.7z" fill="#FC9D9D"/>
<path d="m1034.4 727.07-1.73-11.72c-2.12 7.56-6.53 13.85-14.24 15.11h0.08l-1.65 0.23c-6.14 0.47-11.25-2.36-15.1-8.41-0.07-0.116-0.19-0.197-0.32-0.227s-0.27-6e-3 -0.39 0.067c-0.11 0.073-0.2 0.188-0.23 0.321-0.03 0.134 0 0.273 0.07 0.389 4.09 6.45 9.52 9.44 16 9 1.36-0.097 2.7-0.359 4-0.78 4.85 0.485 9.7-0.943 13.51-3.98z" fill="#000" opacity=".15"/>
<path d="m1028.3 676.73s7.47-5 11 3.54c3 7.16-2 15-2 15l-4.32-0.47c-1.81-0.08-3.07-1-3.23-2.68l-1.45-15.39z" fill="#21252B"/>
<path d="m1033.6 671.54c0.63 8.1-6.29 10.23-9.12 10.46l-23.2 2c-0.91 0.084-1.753 0.515-2.355 1.204-0.601 0.689-0.914 1.582-0.875 2.496l0.39 7.39c0.03 0.48-0.124 0.954-0.43 1.325-0.307 0.371-0.742 0.613-1.22 0.675l-1.41 0.16-1.58 2c-9.12-2.2-12.9-28.08 3.86-33.27 1.804-0.582 3.3-1.855 4.17-3.54 2.43-5 12.42-6.37 17.46-0.71 0.49 0.579 1.1 1.036 1.8 1.336 0.69 0.301 1.45 0.435 2.2 0.394 6.07-0.18 10 3.6 10.31 8.08z" fill="#21252B"/>
<path d="m995.45 699.78c-0.067-0.687-0.318-1.344-0.728-1.9s-0.962-0.991-1.6-1.257c-0.637-0.267-1.334-0.356-2.018-0.258s-1.328 0.38-1.864 0.815l-0.08 0.08c-4 3.46-1.41 14.32 7.4 13.37l-1.11-10.85z" fill="#FC9D9D"/>
<path d="m1039.3 694-0.08-0.08c-0.59-0.345-1.27-0.525-1.95-0.52-0.69 6e-3 -1.36 0.195-1.94 0.549-0.59 0.354-1.07 0.859-1.4 1.463-0.32 0.603-0.48 1.283-0.45 1.968l0.47 10.38c8.89-0.27 9.75-10.89 5.35-13.76z" fill="#FC9D9D"/>
<path d="m996.56 701.12c0.014 0.27-0.077 0.536-0.254 0.741s-0.427 0.333-0.696 0.359c-0.26 0.035-0.523-0.026-0.74-0.171-0.218-0.146-0.374-0.366-0.44-0.619l-1-7 2.91 0.08 0.22 6.61z" fill="#21252B"/>
<path d="m1035.3 698.28c0.01 0.279-0.08 0.553-0.27 0.761s-0.45 0.333-0.73 0.349c-0.26 0.033-0.52-0.029-0.74-0.174-0.21-0.145-0.37-0.364-0.44-0.616l-1-7 2.91 0.08 0.27 6.6z" fill="#21252B"/>
<path d="m1024.6 683c-0.39 0.042-0.79 0.042-1.18 0-0.11-0.038-0.2-0.111-0.26-0.207s-0.09-0.21-0.08-0.323c0.01-0.114 0.05-0.221 0.13-0.306s0.18-0.142 0.29-0.164c0.07 0 4.72 0.24 6.68-2.83 0.07-0.115 0.19-0.197 0.32-0.227 0.14-0.03 0.28-6e-3 0.39 0.067 0.12 0.073 0.2 0.189 0.23 0.322s0 0.273-0.07 0.388c-0.75 1.002-1.73 1.818-2.85 2.386-1.11 0.569-2.35 0.874-3.6 0.894z" fill="#FC9D9D"/>
<path d="m1007.2 707.92c0.4 0 0.78-0.117 1.11-0.337s0.59-0.532 0.74-0.898c0.15-0.365 0.19-0.767 0.11-1.155s-0.27-0.745-0.55-1.024c-0.28-0.28-0.63-0.47-1.02-0.548-0.39-0.077-0.79-0.037-1.16 0.114-0.36 0.152-0.67 0.408-0.89 0.737s-0.34 0.715-0.34 1.111c0 0.53 0.21 1.039 0.59 1.414 0.37 0.375 0.88 0.586 1.41 0.586z" fill="#21252B"/>
<path d="m1007.3 707.16c0.13-3e-3 0.25-0.054 0.34-0.143 0.09-0.09 0.14-0.211 0.14-0.337s-0.05-0.245-0.14-0.333-0.21-0.137-0.34-0.137c-0.12 0-0.24 0.049-0.33 0.138-0.09 0.088-0.14 0.207-0.14 0.332s0.05 0.246 0.14 0.336 0.21 0.141 0.33 0.144z" fill="#fff"/>
<path d="m1022.9 706.74c0.4 0 0.78-0.117 1.11-0.337s0.59-0.532 0.74-0.897c0.15-0.366 0.19-0.768 0.11-1.156s-0.27-0.744-0.55-1.024-0.63-0.47-1.02-0.547-0.79-0.038-1.16 0.113c-0.36 0.152-0.67 0.408-0.89 0.737s-0.34 0.716-0.34 1.111c0 0.531 0.21 1.039 0.59 1.414 0.37 0.376 0.88 0.586 1.41 0.586z" fill="#21252B"/>
<path d="m1023 706.05c0.09-2e-3 0.18-0.031 0.26-0.084 0.07-0.053 0.13-0.127 0.17-0.213 0.03-0.086 0.04-0.18 0.02-0.27-0.02-0.091-0.07-0.174-0.13-0.238-0.07-0.065-0.15-0.109-0.24-0.126-0.09-0.018-0.19-8e-3 -0.27 0.028-0.09 0.036-0.16 0.096-0.21 0.173s-0.08 0.168-0.08 0.26c0 0.126 0.05 0.245 0.14 0.333s0.21 0.137 0.34 0.137z" fill="#fff"/>
<g opacity=".3">
<path d="m1016.1 713.47 1.65-0.16c0.16-0.015 0.3-0.088 0.4-0.205 0.11-0.117 0.16-0.269 0.16-0.425-0.01-0.154-0.09-0.298-0.21-0.4-0.11-0.102-0.26-0.156-0.42-0.15l-1.66 0.16c-0.16 0.01-0.33-0.013-0.49-0.067-0.15-0.054-0.3-0.139-0.42-0.249-0.13-0.11-0.23-0.243-0.3-0.392s-0.11-0.311-0.12-0.477c-0.01-0.165 0.01-0.331 0.06-0.488 0.06-0.156 0.14-0.301 0.25-0.425s0.25-0.225 0.39-0.297c0.15-0.073 0.32-0.115 0.48-0.125 0.08-5e-3 0.15-0.026 0.22-0.06 0.07-0.035 0.14-0.082 0.19-0.141 0.05-0.058 0.09-0.126 0.11-0.2 0.03-0.074 0.04-0.151 0.03-0.229 0-0.077-0.02-0.153-0.06-0.223-0.03-0.069-0.08-0.131-0.14-0.182s-0.13-0.09-0.2-0.115-0.15-0.035-0.23-0.03c-0.32 0.017-0.63 0.099-0.91 0.24-0.29 0.142-0.54 0.34-0.75 0.582-0.2 0.242-0.36 0.524-0.45 0.828s-0.12 0.624-0.09 0.94c0 0.32 0.07 0.636 0.2 0.929 0.13 0.292 0.31 0.554 0.55 0.77 0.24 0.215 0.52 0.379 0.82 0.481s0.62 0.139 0.94 0.11z" fill="#000" opacity=".3"/>
</g>
<path d="m1074.8 910.31-18.63-3.43-2.47 17.75 18.26 2 2.84-16.32z" fill="#FC9D9D"/>
<path d="m1056.5 924.83 6.44-17.15-0.25 8.87c0.08 0.406 0.28 0.778 0.58 1.06 0.31 0.283 0.69 0.461 1.1 0.51l8.86 1.11-1.28 7.38-15.45-1.78z" fill="#000" opacity=".15"/>
<path class="change-color-in-svg" d="m1087 938.49c-3.26-0.468-6.25-2.076-8.44-4.54l-2.58-2.9c-1.55-1.762-3.53-3.089-5.75-3.85-1.81-0.634-3.35-1.878-4.35-3.52s-1.39-3.579-1.12-5.48v-0.37c0.33-2.309 1.56-4.394 3.42-5.8s4.2-2.017 6.51-1.7l15.88 2.21-3.57 25.95z" fill="#8fbcbb"/>
<path d="m1072.2 925.57c-0.13 0-0.38 0-0.41-0.18-0.64-1.574-0.86-3.29-0.62-4.974 0.23-1.684 0.9-3.276 1.95-4.616 0.03-0.032 0.06-0.058 0.1-0.075 0.04-0.018 0.08-0.027 0.13-0.027 0.04 0 0.08 9e-3 0.12 0.027 0.04 0.017 0.07 0.043 0.1 0.075 0.03 0.028 0.05 0.062 0.07 0.1s0.03 0.079 0.03 0.12-0.01 0.082-0.03 0.12-0.04 0.072-0.07 0.1c-0.98 1.239-1.62 2.719-1.83 4.286-0.22 1.567-0.02 3.163 0.59 4.624 0.01 0.029 0.02 0.062 0.02 0.095s-0.01 0.065-0.02 0.095c-0.02 0.087-0.07 0.167-0.13 0.23z" fill="#fff"/>
<path d="m1074.4 926.88c-0.14 0-0.39 0-0.42-0.18-0.64-1.575-0.86-3.292-0.62-4.976 0.23-1.684 0.91-3.276 1.96-4.614 0.03-0.031 0.06-0.055 0.1-0.071 0.04-0.017 0.08-0.025 0.12-0.025s0.08 8e-3 0.12 0.025c0.04 0.016 0.07 0.04 0.1 0.071 0.03 0.029 0.05 0.064 0.07 0.102 0.02 0.039 0.03 0.081 0.03 0.123s-0.01 0.083-0.03 0.122-0.04 0.074-0.07 0.103c-0.98 1.238-1.61 2.716-1.83 4.281s-0.02 3.159 0.59 4.619c0.02 0.065 0.02 0.135 0 0.2 0.02 0.11-0.06 0.23-0.12 0.22z" fill="#fff"/>
<path d="m1076.6 928.4c-0.13 0-0.38 0-0.42-0.19-0.64-1.575-0.85-3.291-0.62-4.975 0.24-1.683 0.91-3.275 1.96-4.615 0.03-0.028 0.06-0.051 0.1-0.067s0.08-0.024 0.12-0.024 0.08 8e-3 0.12 0.024 0.07 0.039 0.1 0.067c0.03 0.029 0.05 0.064 0.07 0.101 0.01 0.038 0.02 0.079 0.02 0.119 0 0.041-0.01 0.082-0.02 0.119-0.02 0.038-0.04 0.073-0.07 0.101-0.98 1.24-1.62 2.72-1.83 4.287-0.22 1.566-0.02 3.163 0.59 4.623 0.01 0.03 0.02 0.063 0.02 0.095 0 0.033-0.01 0.066-0.02 0.095-0.01 0.093-0.05 0.179-0.12 0.24z" fill="#fff"/>
<path d="m1089.2 938.85-2.11-0.29 3.63-26 2.11 0.29c0.15 0.017 0.3 0.064 0.43 0.138s0.25 0.173 0.34 0.292 0.16 0.256 0.2 0.402c0.04 0.145 0.05 0.298 0.03 0.448l-3.31 23.73c-0.05 0.304-0.21 0.579-0.46 0.764-0.24 0.185-0.55 0.266-0.86 0.226z" fill="#3F4249"/>
<path d="m962.76 924.73 18.14-2.84-3.31-17.61-18.45 4.3 3.62 16.15z" fill="#FC9D9D"/>
<path d="m975.8 922.66-13 2.07-1.63-7.31 8.79-1.52c0.406-0.075 0.778-0.274 1.067-0.569 0.288-0.296 0.478-0.673 0.543-1.081l2.34-9.1 2 17.5-0.11 0.01z" fill="#000" opacity=".15"/>
<path class="change-color-in-svg" d="m943.39 911.55 15.75-3c2.29-0.425 4.656 0.072 6.581 1.383 1.926 1.311 3.255 3.33 3.699 5.617l0.07 0.37c0.367 1.883 0.069 3.836-0.843 5.525-0.911 1.689-2.381 3.009-4.157 3.735-2.18 0.867-4.096 2.287-5.56 4.12l-2.44 3c-2.069 2.566-4.983 4.313-8.22 4.93l-4.88-25.68z" fill="#8fbcbb"/>
<path d="m962.2 923.49c-0.014-0.032-0.021-0.066-0.021-0.1 0-0.035 7e-3 -0.069 0.021-0.1 0.535-1.487 0.663-3.089 0.371-4.641s-0.993-2.999-2.031-4.189c-0.03-0.029-0.055-0.064-0.071-0.103-0.017-0.039-0.026-0.08-0.026-0.122 0-0.043 9e-3 -0.084 0.026-0.123 0.016-0.039 0.041-0.073 0.071-0.102 0.029-0.029 0.063-0.053 0.101-0.068 0.038-0.016 0.078-0.024 0.119-0.024s0.082 8e-3 0.119 0.024c0.038 0.015 0.072 0.039 0.101 0.068 1.107 1.29 1.854 2.849 2.169 4.52 0.314 1.671 0.183 3.395-0.379 5 0 0.2-0.27 0.24-0.41 0.2-0.073-0.065-0.128-0.148-0.16-0.24z" fill="#fff"/>
<path d="m960.16 924.9c-0.014-0.032-0.021-0.066-0.021-0.1 0-0.035 7e-3 -0.069 0.021-0.1 0.535-1.488 0.664-3.092 0.372-4.646s-0.993-3.002-2.032-4.194c-0.061-0.056-0.097-0.133-0.101-0.216s0.025-0.163 0.081-0.224 0.133-0.098 0.216-0.101c0.082-4e-3 0.163 0.025 0.224 0.081 1.113 1.287 1.865 2.846 2.179 4.518 0.314 1.673 0.18 3.398-0.389 5.002 0 0.19-0.27 0.24-0.41 0.2s-0.11-0.12-0.14-0.22z" fill="#fff"/>
<path d="m958 926.51c-0.015-0.03-0.022-0.062-0.022-0.095s7e-3 -0.065 0.022-0.095c0.538-1.487 0.668-3.092 0.376-4.647-0.292-1.554-0.995-3.002-2.036-4.193-0.029-0.029-0.052-0.063-0.068-0.101s-0.024-0.078-0.024-0.119 8e-3 -0.081 0.024-0.119 0.039-0.072 0.068-0.101c0.028-0.032 0.062-0.057 0.101-0.075 0.039-0.017 0.081-0.026 0.124-0.026 0.042 0 0.084 9e-3 0.123 0.026 0.039 0.018 0.073 0.043 0.102 0.075 1.107 1.288 1.856 2.846 2.17 4.515 0.314 1.67 0.183 3.392-0.38 4.995 0 0.2-0.28 0.25-0.41 0.21-0.048-0.023-0.089-0.058-0.119-0.102s-0.048-0.095-0.051-0.148z" fill="#fff"/>
<path d="m944.75 936.82-4.43-23.54c-0.056-0.296 7e-3 -0.602 0.176-0.851 0.168-0.249 0.428-0.421 0.724-0.479l2.1-0.39 4.86 25.83-2.1 0.39c-0.304 0.046-0.613-0.029-0.862-0.208-0.249-0.18-0.417-0.45-0.468-0.752z" fill="#3F4249"/>
<path d="m1028.6 697.18-8.89 0.48-1.18 0.07-7.79 0.48h-0.07l-10 0.55c-0.39 0.022-0.768 0.121-1.118 0.291s-0.663 0.408-0.92 0.7c-0.257 0.293-0.453 0.633-0.577 1.002-0.123 0.369-0.173 0.759-0.144 1.147l0.16 2.28c0.056 1.051 0.319 2.08 0.773 3.029 0.455 0.949 1.091 1.799 1.876 2.502 0.78 0.703 1.69 1.245 2.69 1.595 0.99 0.35 2.04 0.501 3.09 0.444 1.05-0.056 2.08-0.319 3.03-0.773s1.8-1.091 2.5-1.874 1.25-1.696 1.6-2.688c0.35-0.993 0.5-2.044 0.44-3.095l-0.16-2.28c-0.03-0.641-0.28-1.252-0.71-1.73l3.07-0.16c-0.35 0.534-0.52 1.171-0.47 1.81l0.16 2.28c0.06 1.051 0.32 2.08 0.77 3.029 0.46 0.949 1.1 1.799 1.88 2.502s1.69 1.245 2.69 1.595c0.99 0.35 2.04 0.501 3.09 0.444 1.05-0.056 2.08-0.319 3.03-0.773s1.8-1.091 2.5-1.874 1.25-1.696 1.6-2.688c0.35-0.993 0.5-2.044 0.44-3.095l-0.15-2.29c-0.01-0.404-0.1-0.803-0.27-1.17-0.17-0.368-0.41-0.698-0.71-0.97s-0.65-0.48-1.04-0.612c-0.38-0.133-0.79-0.186-1.19-0.158zm-15.89 3.82 0.16 2.28c0.05 1.76-0.59 3.469-1.78 4.766-1.2 1.296-2.84 2.078-4.6 2.181s-3.49-0.482-4.82-1.631c-1.34-1.149-2.17-2.772-2.329-4.526l-0.16-2.29c-0.02-0.465 0.141-0.92 0.448-1.271 0.307-0.35 0.741-0.568 1.201-0.609l10-0.55h0.08c0.23-0.021 0.46 7e-3 0.68 0.08 0.22 0.074 0.42 0.192 0.59 0.347 0.17 0.156 0.3 0.345 0.39 0.555 0.09 0.211 0.14 0.438 0.14 0.668zm18 1.26c0.04 1.759-0.6 3.465-1.79 4.759-1.19 1.293-2.84 2.073-4.6 2.174-1.75 0.102-3.48-0.484-4.81-1.632-1.34-1.148-2.17-2.769-2.33-4.521l-0.15-2.28c-0.02-0.466 0.14-0.923 0.45-1.274 0.31-0.352 0.74-0.572 1.2-0.616l1.18-0.07 8.89-0.48c0.47-0.019 0.92 0.142 1.28 0.452 0.35 0.309 0.56 0.742 0.6 1.208l0.08 2.28z" fill="#21252B"/>
<path d="m1011 716.69 10-0.71c0.23 0 0.47 0.241 0.39 0.471-0.31 1.122-0.95 2.122-1.85 2.865-0.89 0.743-2 1.192-3.15 1.287-1.16 0.095-2.32-0.169-3.33-0.756-1-0.587-1.8-1.469-2.29-2.527v-0.08c-0.03-0.048-0.06-0.105-0.06-0.164-0.01-0.06 0-0.12 0.02-0.175 0.03-0.055 0.06-0.103 0.11-0.14s0.1-0.061 0.16-0.071z" fill="#fff"/>
<g fill="#000" opacity=".3">
<path d="m993.25 705.44c-0.152-6e-3 -0.297-0.064-0.412-0.164-0.114-0.1-0.191-0.236-0.218-0.386l-0.15-1.26c-0.033-1.019-0.427-1.993-1.11-2.75-0.128-0.113-0.277-0.199-0.438-0.252-0.162-0.053-0.333-0.073-0.502-0.058-0.157 0.024-0.318-0.011-0.449-0.1-0.132-0.089-0.225-0.225-0.261-0.38-0.03-0.155 3e-3 -0.315 0.091-0.446s0.224-0.222 0.379-0.254c0.666-0.076 1.337 0.091 1.89 0.47 0.493 0.449 0.888 0.996 1.16 1.605s0.415 1.268 0.42 1.935l0.15 1.26c9e-3 0.173-0.04 0.344-0.14 0.486-0.1 0.141-0.244 0.245-0.41 0.294z" opacity=".3"/>


<path d="m1036.5 702.22c0.16-0.016 0.3-0.089 0.4-0.206s0.16-0.269 0.15-0.424v-1.26c-0.08-0.496-0.06-1.003 0.06-1.49s0.34-0.943 0.65-1.34c0.12-0.151 0.27-0.271 0.45-0.353 0.17-0.081 0.36-0.122 0.55-0.117 0.15-9e-3 0.3-0.067 0.41-0.167s0.19-0.235 0.22-0.383c-0.01-0.152-0.06-0.297-0.16-0.412-0.1-0.114-0.24-0.191-0.39-0.218-0.33 7e-3 -0.65 0.079-0.95 0.213s-0.57 0.327-0.79 0.567c-0.42 0.527-0.72 1.135-0.89 1.785-0.18 0.651-0.21 1.33-0.11 1.995v1.26c-0.22 0.33 0.01 0.55 0.4 0.55z" opacity=".3"/>
</g>
<path d="m1058.7 859.61-0.8 0.56 51.72-31.92c2.61-1.781 4.42-4.511 5.05-7.607 0.62-3.097 0.02-6.316-1.69-8.973l-2.6-4.27s6.71 11.46-9.35 21.61l-45.28 28.81 2.95 1.79z" fill="#000" opacity=".15"/>
<path d="m931.5 827.75c-10.89-5.25-8-17.64-8-17.64l-0.94 1.56c-1.71 2.656-2.317 5.874-1.692 8.971 0.626 3.096 2.435 5.826 5.042 7.609l52.6 31.36-1.2-0.61 3.61-2.5-49.42-28.75z" fill="#000" opacity=".15"/>
<path class="change-color-in-svg" d="m927.68 855.25 42.89 4.86h94.81l40.72-4.86-7.09 42.81h-154.05l-15.79-41.58" fill="#8fbcbb"/>
<path d="m927.68 855.25 42.89 4.86h94.81l40.72-4.86-7.09 42.81h-154.05l-15.79-41.58" fill="#000" opacity=".3"/>
<path class="change-color-in-svg" d="m1017 889.13 69.57-27.81c7.12-2.848 14.49-5.06 22-6.61 4.06-0.835 8.29-0.282 12 1.57 5.19 2.592 9.15 7.137 11 12.64l0.38 1.08c1.55 4.653 1.19 9.732-1 14.12-1.21 2.438-2.93 4.58-5.06 6.274s-4.6 2.898-7.25 3.526l-141.64 33.72-5.86-22.64 45.861-15.87z" fill="#8fbcbb"/>
<path d="m1131 884.13c2.19-4.389 2.55-9.467 1-14.12l-0.36-1.09c-1.07-3.177-2.85-6.067-5.21-8.45 0 0 7 23.81-18.15 29.25l-35 8.58c-5.16 1.268-10.55 1.312-15.73 0.13l-39.72-9.07 13.5 25.38 87.44-20.81c2.63-0.639 5.09-1.848 7.2-3.541 2.12-1.694 3.83-3.83 5.03-6.259z" fill="#000" opacity=".2"/>
<path class="change-color-in-svg" d="m1017.8 889.36-69.571-27.81c-7.124-2.848-14.486-5.06-22-6.61-4.063-0.837-8.289-0.284-12 1.57-5.198 2.592-9.155 7.142-11 12.65l-0.36 1.08c-1.55 4.653-1.191 9.732 1 14.12 1.208 2.439 2.938 4.583 5.067 6.278s4.606 2.901 7.253 3.532l143.47 33.7 4.07-22.6-45.93-15.91z" fill="#8fbcbb"/>
<path d="m1064.4 882.28h-92.3l-4.4-60c-0.03-0.434 0.029-0.87 0.174-1.28s0.373-0.786 0.669-1.105 0.655-0.573 1.053-0.748c0.399-0.174 0.829-0.265 1.264-0.267h94.79c0.43 2e-3 0.87 0.093 1.26 0.267 0.4 0.175 0.76 0.429 1.06 0.748 0.29 0.319 0.52 0.695 0.67 1.105 0.14 0.41 0.2 0.846 0.17 1.28l-4.41 60z" fill="#61656D"/>
<path d="m1064.4 884h-92.3l-4.4-60c-0.031-0.435 0.027-0.871 0.172-1.282 0.144-0.411 0.372-0.787 0.668-1.106 0.297-0.319 0.656-0.574 1.055-0.748s0.83-0.264 1.265-0.264h94.79c0.44 0 0.87 0.09 1.27 0.264s0.75 0.429 1.05 0.748 0.52 0.695 0.67 1.106c0.14 0.411 0.2 0.847 0.17 1.282l-4.41 60z" fill="#868A91"/>
<path d="m972.07 879.36h92.33c0.08 3e-3 0.16 0.037 0.22 0.097 0.06 0.059 0.1 0.139 0.1 0.223v4c0 0.084-0.04 0.164-0.1 0.224-0.06 0.059-0.14 0.094-0.22 0.096h-92c-0.082 1e-3 -0.16-0.03-0.22-0.086-0.059-0.056-0.095-0.132-0.1-0.214l-0.3-4c-4e-3 -0.082 0.024-0.163 0.078-0.226s0.129-0.104 0.212-0.114z" fill="#000" opacity=".4"/>
<path d="m972.03 908.76 35.121 11.72 9.74-2.34-45.111-10.7 0.25 1.32z" fill="#000" opacity=".2"/>
<path d="m1060.6 924.42-123.37-32.78c-3-0.8-6-1.49-9-2.15-24.77-5.49-24.15-22.49-24.15-22.49-0.32 0.7-0.6 1.41-0.85 2.14l-0.36 1.08c-1.551 4.653-1.191 9.732 1 14.12 1.208 2.439 2.937 4.583 5.067 6.278 2.129 1.696 4.605 2.901 7.253 3.532l143.47 33.7 0.94-3.43z" fill="#000" opacity=".2"/>
<path d="m1023.6 852.33c-0.71 0-1.41-0.204-2.01-0.589-0.6-0.384-1.08-0.933-1.38-1.58-0.3-0.648-0.41-1.368-0.31-2.075 0.09-0.707 0.39-1.372 0.85-1.916-1.32-0.551-2.78-0.663-4.17-0.319s-2.63 1.126-3.55 2.231c-0.91 1.104-1.44 2.473-1.51 3.902-0.07 1.43 0.32 2.845 1.11 4.037s1.95 2.097 3.29 2.581c1.35 0.484 2.82 0.522 4.19 0.109 1.37-0.414 2.57-1.258 3.42-2.407 0.86-1.149 1.32-2.542 1.32-3.974v-0.22c-0.4 0.146-0.82 0.221-1.25 0.22z" fill="#000" opacity=".4"/>
<path d="m1098.5 786.1-25.6 16.411 2.84 4.428 25.6-16.411-2.84-4.428z" fill="#fff"/>
<path d="m933.88 790.33 25.074 17.207 2.976-4.337-25.073-17.207-2.977 4.337z" fill="#fff"/>
<path d="m1017.3 752c-2.45 1e-3 -4.88-0.336-7.24-1-3.34-0.904-6.46-2.463-9.19-4.587-2.734-2.123-5.014-4.769-6.711-7.783l4.13-1c0.14 0.29 3.611 6.75 12.891 9.35 4.96 1.316 10.21 1.04 15-0.79 3.69-1.34 8.85-3.42 10-7.45l4.07 0.61c-1.33 4.52-6.1 8.37-12.68 10.76-3.29 1.222-6.76 1.861-10.27 1.89z" fill="#fff"/>
<path d="m1065.4 789.85-4.98-5.9-0.81 34.91h6.03l-0.24-29.01z" fill="#000" opacity=".3"/>
</svg>
