<?xml version="1.0" encoding="UTF-8"?>
<svg class="gridItem__media" enable-background="new 0 0 1600 1200" fill="none" version="1.1" viewBox="0 0 1600 1200" xml:space="preserve" xmlns="http://www.w3.org/2000/svg">
<path d="m1369.3 1060.6h-1154.8l-52.38-569.27c-0.735-8.037 0.308-16.137 3.054-23.725 2.746-7.589 7.129-14.48 12.836-20.185l266.23-266.51c5.587-5.597 12.315-9.924 19.725-12.685s15.329-3.892 23.215-3.315l769.35 56.58c11.1 0.816 21.69 4.982 30.37 11.945 8.69 6.963 15.05 16.397 18.26 27.055l131 435.07c2.61 8.67 3.05 17.852 1.26 26.73l-68.13 338.31z" fill="#F0F0F0"/>
<path d="m561.31 818.41c-0.635-4.402-2.822-8.433-6.166-11.367-3.344-2.933-7.626-4.576-12.074-4.633h-10l-3.9 1v0.59l-84.41 10.75c-5.188 0.641-10.062 2.832-13.987 6.285-3.925 3.454-6.717 8.01-8.013 13.075l-58.86 226.29h14.2l57.95-222.84c0.616-2.405 1.942-4.569 3.806-6.208 1.865-1.64 4.18-2.679 6.644-2.982l95.54-12.16c1.315-0.172 2.645 0.18 3.703 0.978 1.059 0.799 1.762 1.981 1.957 3.292l36.55 239.92h13.95l-36.89-241.99z" fill="#B2B6BB"/>
<path d="m369.15 1060.4h-14.15l58.81-226.29c1.296-5.065 4.088-9.622 8.013-13.075 3.924-3.454 8.799-5.644 13.987-6.285l95.54-12.16c4.879-0.658 9.821 0.636 13.753 3.6 3.931 2.963 6.535 7.358 7.247 12.23l36.89 242h-13.94l-36.55-239.94c-0.198-1.313-0.903-2.495-1.963-3.293-1.06-0.799-2.391-1.149-3.707-0.977l-95.53 12.16c-2.464 0.302-4.78 1.341-6.644 2.981s-3.191 3.803-3.806 6.209l-57.95 222.84z" fill="#DADDDF"/>
<path d="m278.87 885.55-48-199.85c-0.337-1.408-0.351-2.873-0.04-4.287 0.31-1.413 0.937-2.738 1.833-3.874 0.896-1.137 2.038-2.055 3.34-2.687 1.301-0.632 2.729-0.961 4.177-0.962h-13c-1.448 1e-3 -2.876 0.33-4.177 0.962-1.302 0.632-2.444 1.55-3.34 2.687-0.896 1.136-1.523 2.461-1.833 3.874-0.311 1.414-0.297 2.879 0.04 4.287l48 199.85 155.69 0.32-142.69-0.32z" fill="#B2B6BB"/>
<path d="m381.29 681.17c-0.512-2.078-1.705-3.923-3.389-5.243s-3.761-2.037-5.901-2.037h-131.8c-1.447 1e-3 -2.875 0.33-4.177 0.962s-2.444 1.55-3.339 2.687c-0.896 1.136-1.523 2.461-1.834 3.874-0.31 1.414-0.297 2.879 0.04 4.287l48 199.85 152.87 0.32-50.47-204.7z" fill="#868A91"/>
<path d="m588.64 885.55h-206.95c-3.805 0-6.89 3.082-6.89 6.885 0 3.802 3.085 6.885 6.89 6.885h206.95c3.805 0 6.89-3.083 6.89-6.885 0-3.803-3.085-6.885-6.89-6.885z" fill="#868A91"/>
<path d="m434.89 885.55h-176.56c-3.805 0-6.89 3.082-6.89 6.885 0 3.802 3.085 6.885 6.89 6.885h176.56c3.806 0 6.89-3.083 6.89-6.885 0-3.803-3.084-6.885-6.89-6.885z" fill="#858990"/>
<path d="m461.52 890.07c0.432 1.237 0.509 2.57 0.221 3.848s-0.93 2.45-1.851 3.382c-0.637 0.64-1.397 1.147-2.233 1.491-0.836 0.343-1.733 0.516-2.637 0.509h-196.69c-0.859 4e-3 -1.711-0.155-2.51-0.47l3.46-13.3h195.72c1.424-0.017 2.818 0.412 3.987 1.226s2.054 1.972 2.533 3.314z" fill="#B2B6BB"/>
<path d="m282.01 889.34 11.62-44.7h1.6l-11.38 44.7h-1.84z" fill="#858990"/>
<path d="m420.72 818.41c-0.636-4.402-2.823-8.433-6.167-11.367-3.344-2.933-7.626-4.576-12.073-4.633h-10l-3.9 1v0.59l-84.41 10.75c-5.189 0.641-10.063 2.832-13.988 6.285-3.924 3.454-6.717 8.01-8.012 13.075l-58.86 226.29h14.2l57.99-222.85c0.618-2.412 1.952-4.581 3.826-6.221 1.874-1.641 4.2-2.675 6.674-2.969l95.54-12.16c1.314-0.172 2.644 0.18 3.702 0.978 1.059 0.799 1.762 1.981 1.958 3.292l36.55 239.92h13.91l-36.94-241.98z" fill="#B2B6BB"/>
<path d="m228.56 1060.4h-14.2l58.86-226.29c1.296-5.065 4.088-9.622 8.013-13.075 3.924-3.454 8.799-5.644 13.987-6.285l95.53-12.16c4.88-0.658 9.821 0.636 13.753 3.6 3.932 2.963 6.536 7.358 7.247 12.23l36.89 242h-13.93l-36.55-239.94c-0.198-1.313-0.903-2.495-1.963-3.293-1.06-0.799-2.391-1.149-3.707-0.977l-95.49 12.16c-2.464 0.302-4.779 1.341-6.644 2.981-1.864 1.64-3.19 3.803-3.806 6.209l-57.99 222.84z" fill="#DADDDF"/>
<path d="m1384.2 514.18 0.01 0.01h13.55v-0.01h-13.56z" fill="#ECECEC"/>
<path d="m912.44 514.18h-0.01v0.01h0.01v-0.01z" fill="#D6D9DB"/>
<path d="m1384.2 514.19-0.01-0.01h-471.75v0.01h471.76z" fill="#D6D9DB"/>
<path d="m918.7 316.77v-14.63h27.89v14.63h39.22v82.72l20.21 5.71v-41.22l70.14-22.41v97.83l22.97 4.88v-57.42h20.39v-77.55h44.84v-13.25l33.24-22.6 34.44 22.6v103.07h29.36v37.44h16.28v-106.65l12.28-4.35v-16.26h21.89v8.49l11.92-4.23-16.28-54.04h-395.05v57.24h6.26z" fill="#ECECEC"/>
<path d="m899.52 527.1h488.57l-3.89-12.9h-471.76v-0.01h-0.01v-254.66h395.06l-3.88-12.9h-404.09v280.47z" fill="#fff"/>
<path d="m1384.2 514.19h-471.76v0.01h471.76v-0.01z" fill="#D6D9DB"/>
<path d="m1076.2 439.4v-97.83l-70.14 22.41v41.22l12.4 3.51v105.47h17.19v-83.38l40.55 8.6z" fill="#D6D9DB"/>
<path d="m1164.4 309.31h-44.84v77.55h44.84v-77.55z" fill="#D6D9DB"/>
<path d="m1261.4 436.57v-37.44h-29.36v115.05h12.08v-77.61h17.28z" fill="#D6D9DB"/>
<path d="m1373.2 514.18h11.03l-11.03-36.63v36.63z" fill="#D6D9DB"/>
<path d="m1076.2 439.4v74.78h22.97v-69.9l-22.97-4.88z" fill="#D6D9DB"/>
<path d="m1035.6 430.8v83.38h40.55v-74.78l-40.55-8.6z" fill="#D6D9DB"/>
<path d="m1277.7 436.57h-16.28v77.61h16.28v-77.61z" fill="#D6D9DB"/>
<path d="m1261.4 436.57h-17.28v77.61h17.28v-77.61z" fill="#D6D9DB"/>
<path d="m912.44 316.77h-0.01v197.41h0.01v-197.41z" fill="#D6D9DB"/>
<path d="m985.81 399.49v-82.72h-39.22v13.26h-27.89v-13.26h-6.26v197.41h40.75v-123.91l32.62 9.22z" fill="#D6D9DB"/>
<path d="m1099.1 386.86v57.42l1.72 0.36v69.54h18.67v-127.32h-20.39z" fill="#D6D9DB"/>
<path d="m1164.4 386.86h-44.84v127.32h44.84v-127.32z" fill="#D6D9DB"/>
<path d="m1099.1 444.28v69.9h1.72v-69.54l-1.72-0.36z" fill="#D6D9DB"/>
<path d="m985.81 399.49v114.69h20.21v-108.98l-20.21-5.71z" fill="#D6D9DB"/>
<path d="m1006 405.2v108.98h12.4v-105.47l-12.4-3.51z" fill="#D6D9DB"/>
<path d="m953.19 390.27v123.91h32.62v-114.69l-32.62-9.22z" fill="#D6D9DB"/>
<path d="m1360.8 436.57-37.05-123-11.92 4.23v23.77h-21.89v-16l-12.28 4.35v106.65h12.28v77.61h57.9v-77.61h12.96z" fill="#D6D9DB"/>
<path d="m1360.8 436.57h-12.96v77.61h25.3v-36.63l-12.34-40.98z" fill="#D6D9DB"/>
<path d="m1290 436.57h-12.28v77.61h12.28v-77.61z" fill="#D6D9DB"/>
<path d="m1232 399.13v-103.07l-34.44-22.6-33.24 22.6v13.25h17.37v204.87h29.08v-115.05h21.23z" fill="#D6D9DB"/>
<path d="m1164.4 309.31v204.87h17.37v-204.87h-17.37z" fill="#D6D9DB"/>
<path d="m1232 399.13h-21.23v115.05h21.23v-115.05z" fill="#D6D9DB"/>
<path d="m946.59 302.14h-27.89v14.63h27.89v-14.63z" fill="#D6D9DB"/>
<path d="m946.59 316.77h-27.89v13.26h27.89v-13.26z" fill="#D6D9DB"/>
<path d="m1311.8 309.31h-21.89v16.26l21.89-7.77v-8.49z" fill="#D6D9DB"/>
<path d="m1311.8 341.57v-23.77l-21.89 7.77v16h21.89z" fill="#D6D9DB"/>
<path d="m1047 259.53-134.58 140.93v113.73h8.31l243.16-254.66h-116.89z" fill="#fff" opacity=".2"/>
<path d="m1222.1 259.53-243.16 254.66h43.54l243.18-254.66h-43.56z" fill="#fff" opacity=".2"/>
<path d="m1271.6 514.19 85.6-89.65-28.03-93.07-174.48 182.72h116.91z" fill="#fff" opacity=".2"/>
<path d="m1373.3 514.19 8.29-8.68-10.67-35.44-41.17 44.12h43.55z" fill="#fff" opacity=".2"/>
<path class="change-color-in-svg" d="m1285.7 977.43c-0.72-17.77 6.09-35 14.81-50.12 6-10.47 13-20.3 19.49-30.46 0.53-0.84 1.32-1.482 2.25-1.825 0.94-0.343 1.96-0.369 2.9-0.074 0.95 0.295 1.78 0.895 2.35 1.707 0.57 0.811 0.86 1.789 0.82 2.782-0.2 9.404-1.51 18.752-3.9 27.85-2.52 9.06-6.41 17.59-10.29 26.07-4.57 10-9.14 20-13.7 30" fill="#8fbcbb"/>
<path d="m1285.7 977.43c-0.72-17.77 6.09-35 14.81-50.12 6-10.47 13-20.3 19.49-30.46 0.53-0.84 1.32-1.482 2.25-1.825 0.94-0.343 1.96-0.369 2.9-0.074 0.95 0.295 1.78 0.895 2.35 1.707 0.57 0.811 0.86 1.789 0.82 2.782-0.2 9.404-1.51 18.752-3.9 27.85-2.52 9.06-6.41 17.59-10.29 26.07-4.57 10-9.14 20-13.7 30" fill="#000" opacity=".3"/>
<path class="change-color-in-svg" d="m1244 975.34c-9.69-29.084-13.82-59.729-12.19-90.34 0.06-1.023 0.46-1.995 1.14-2.758 0.69-0.763 1.61-1.272 2.62-1.442 1.01-0.171 2.05 6e-3 2.94 0.502 0.9 0.496 1.6 1.282 1.99 2.228 12.75 30.837 20.38 63.546 22.59 96.84" fill="#8fbcbb"/>
<path d="m1244 975.34c-9.69-29.084-13.82-59.729-12.19-90.34 0.06-1.023 0.46-1.995 1.14-2.758 0.69-0.763 1.61-1.272 2.62-1.442 1.01-0.171 2.05 6e-3 2.94 0.502 0.9 0.496 1.6 1.282 1.99 2.228 12.75 30.837 20.38 63.546 22.59 96.84" fill="#000" opacity=".3"/>
<path d="m1295.8 974.38-0.82-0.28c6.73-19.801 14.73-39.147 23.94-57.92l0.77 0.38c-9.2 18.738-17.18 38.052-23.89 57.82z" fill="#21252B"/>
<path d="m1251.2 970.72c-6.6-28.386-11.43-57.155-14.47-86.14l0.84-0.08c3.03 28.938 7.86 57.66 14.46 86l-0.83 0.22z" fill="#21252B"/>
<path class="change-color-in-svg" d="m1238.4 983.94c-15.14-23.943-24.69-50.99-27.94-79.13-0.1-0.956 0.1-1.921 0.58-2.755s1.21-1.493 2.09-1.882c0.88-0.388 1.86-0.487 2.8-0.281s1.79 0.707 2.43 1.428c7.9 8.92 14 19.69 18.72 31 6.34 15.19 10.26 31.39 14.14 47.51" fill="#8fbcbb"/>
<path class="change-color-in-svg" d="m1255.5 980.74c-8.3-33.4-6.8-84.41 1.08-116.46 0.24-1.005 0.82-1.897 1.64-2.527s1.83-0.96 2.86-0.934 2.02 0.405 2.81 1.075 1.32 1.59 1.51 2.606c6.44 35.26 6.81 77.66 7.12 115.81" fill="#8fbcbb"/>
<path class="change-color-in-svg" d="m1274.8 988.76c-6.33-17.804-8.57-36.803-6.56-55.59 2-17.66 5.5-35.18 9-52.61l1.68-8.44c0.21-1.023 0.76-1.942 1.57-2.602s1.82-1.021 2.86-1.021 2.05 0.361 2.86 1.021 1.36 1.579 1.57 2.602c5.32 28 6 70.3 3.5 98.29" fill="#8fbcbb"/>
<path d="m1274.8 988.76c-6.33-17.804-8.57-36.803-6.56-55.59 2-17.66 5.5-35.18 9-52.61l1.68-8.44c0.21-1.023 0.76-1.942 1.57-2.602s1.82-1.021 2.86-1.021 2.05 0.361 2.86 1.021 1.36 1.579 1.57 2.602c5.32 28 6 70.3 3.5 98.29" fill="#000" opacity=".3"/>
<path d="m1276.4 977.87c-2.52-17 6.55-95.32 6.64-96.11l0.85 0.1c-0.1 0.79-9.14 79-6.64 95.88l-0.85 0.13z" fill="#21252B"/>
<path class="change-color-in-svg" d="m1282 968.89c0-33 8.34-69.36 16.56-94.06 0.32-0.95 0.95-1.765 1.79-2.318 0.83-0.553 1.83-0.812 2.83-0.736 1 0.075 1.95 0.481 2.69 1.153 0.74 0.673 1.24 1.574 1.42 2.561 2.41 13.597 3.42 27.407 3 41.21-0.75 19.18-5 38.43-14.15 55" fill="#8fbcbb"/>
<path d="m1242.9 990.06c-6.55-35.58-25.52-80.66-25.72-81.11l0.8-0.33c0.19 0.45 19.19 45.61 25.77 81.28l-0.85 0.16z" fill="#21252B"/>
<path d="m1260.7 882.22-0.86 2e-3 0.26 106.59 0.86-2e-3 -0.26-106.59z" fill="#21252B"/>
<path d="m1290.1 967.93-0.82-0.26c7.08-22.766 11.07-46.381 11.86-70.21h0.86c-0.79 23.917-4.8 47.618-11.9 70.47z" fill="#21252B"/>
<path d="m1228.4 975.33 1.25 25.17 4.16 49.72c0.2 2.42 1.31 4.68 3.1 6.33 1.78 1.65 4.13 2.56 6.56 2.56h56c2.43 0 4.78-0.91 6.57-2.56 1.78-1.65 2.89-3.91 3.09-6.33l4.16-49.72 1.28-25.73-86.17 0.56z" fill="#84888F"/>
<path d="m1299 974.87-1.27 25.63-4.16 49.72c-0.2 2.42-1.31 4.69-3.1 6.33-1.79 1.65-4.14 2.56-6.57 2.56h15.56c2.43 0 4.78-0.91 6.57-2.56 1.78-1.65 2.89-3.91 3.09-6.33l4.16-49.72 1.28-25.73-15.56 0.1z" fill="#000" opacity=".2"/>
<path d="m1228.3 973.74 0.65 13.38h84.95l0.61-12.35-86.21-1.03z" fill="#61656D"/>
<path d="m1230 985.5h82.9c0.94 0 1.86-0.184 2.73-0.543 0.86-0.358 1.65-0.883 2.31-1.545s1.19-1.448 1.55-2.313c0.36-0.866 0.54-1.793 0.54-2.729 0-1.889-0.75-3.7-2.09-5.035s-3.15-2.085-5.04-2.085h-82.9c-1.89 0-3.7 0.75-5.04 2.085-1.33 1.335-2.09 3.146-2.09 5.035 0 0.937 0.18 1.865 0.54 2.732 0.35 0.866 0.88 1.653 1.54 2.316 0.67 0.662 1.45 1.187 2.32 1.545 0.86 0.357 1.79 0.54 2.73 0.537z" fill="#84888F"/>
<path d="m1312.9 971.25h-13.82c0.96-0.036 1.91 0.122 2.81 0.464s1.71 0.861 2.4 1.526 1.24 1.463 1.62 2.345c0.37 0.882 0.57 1.831 0.57 2.79s-0.2 1.908-0.57 2.79c-0.38 0.883-0.93 1.68-1.62 2.345s-1.5 1.185-2.4 1.526c-0.9 0.342-1.85 0.5-2.81 0.464h13.82c0.96 0.036 1.91-0.122 2.81-0.464 0.9-0.341 1.71-0.861 2.4-1.526s1.24-1.462 1.62-2.345c0.37-0.882 0.57-1.831 0.57-2.79s-0.2-1.908-0.57-2.79c-0.38-0.882-0.93-1.68-1.62-2.345s-1.5-1.184-2.4-1.526-1.85-0.5-2.81-0.464z" fill="#000" opacity=".2"/>
<path d="m320.81 516.11h105.39v-145.83h-105.39v145.83z" fill="#fff"/>
<path d="m334.87 502.61h77.28v-118.84h-77.28v118.84z" fill="#ddd"/>
<path d="m429.27 370.28h-3.06v145.83h3.06v-145.83z" fill="#DADDDF"/>
<path d="m355.41 483.26h36.2v-57.43h-36.2v57.43z" fill="#B1B5BA"/>
<path class="change-color-in-svg" d="m373.53 418.7c4.734 0 9.274-1.881 12.622-5.229 3.347-3.347 5.228-7.887 5.228-12.621h-35.7c0 4.734 1.88 9.274 5.228 12.621 3.347 3.348 7.888 5.229 12.622 5.229z" fill="#8fbcbb"/>
<path d="m1148.4 246.63h-12.91v277.5h12.91v-277.5z" fill="#fff"/>
<path d="m1148.4 259.53h-12.91v3h12.91v-3z" fill="#F0F0F0"/>
<path class="change-color-in-svg" d="m1159.4 356.18h-395.46c-8.958 0-16.22 7.262-16.22 16.22v670.5c0 8.96 7.262 16.22 16.22 16.22h395.46c8.96 0 16.22-7.26 16.22-16.22v-670.5c0-8.958-7.26-16.22-16.22-16.22z" fill="#8fbcbb"/>
<path d="m1159.4 356.18h-395.46c-8.958 0-16.22 7.262-16.22 16.22v670.5c0 8.96 7.262 16.22 16.22 16.22h395.46c8.96 0 16.22-7.26 16.22-16.22v-670.5c0-8.958-7.26-16.22-16.22-16.22z" fill="#fff" opacity=".2"/>
<path class="change-color-in-svg" d="m1151.1 356.18h-395.46c-8.958 0-16.22 7.262-16.22 16.22v670.5c0 8.96 7.262 16.22 16.22 16.22h395.46c8.96 0 16.22-7.26 16.22-16.22v-670.5c0-8.958-7.26-16.22-16.22-16.22z" fill="#8fbcbb"/>
<path d="m1151.1 356.18h-395.46c-8.958 0-16.22 7.262-16.22 16.22v670.5c0 8.96 7.262 16.22 16.22 16.22h395.46c8.96 0 16.22-7.26 16.22-16.22v-670.5c0-8.958-7.26-16.22-16.22-16.22z" fill="#fff" opacity=".6"/>
<path d="m1130.1 668.83h-353.35c-3.341 0-6.05 2.709-6.05 6.05v347.51c0 3.34 2.709 6.05 6.05 6.05h353.35c3.34 0 6.05-2.71 6.05-6.05v-347.51c0-3.341-2.71-6.05-6.05-6.05z" fill="#fff"/>
<path class="change-color-in-svg" d="m1076 592.65h-248.51c-1.944 0-3.52 1.576-3.52 3.52v8.92c0 1.944 1.576 3.52 3.52 3.52h248.51c1.94 0 3.52-1.576 3.52-3.52v-8.92c0-1.944-1.58-3.52-3.52-3.52z" fill="#8fbcbb"/>
<path d="m1054.1 632.96h-204.64c-2.37 0-4.29 1.921-4.29 4.29v0.3c0 2.369 1.92 4.29 4.29 4.29h204.64c2.37 0 4.29-1.921 4.29-4.29v-0.3c0-2.369-1.92-4.29-4.29-4.29z" fill="#F3F3F3"/>
<path d="m1081.8 703.99h-190.04c-2.198 0-3.98 1.782-3.98 3.98v0.29c0 2.198 1.782 3.98 3.98 3.98h190.04c2.2 0 3.98-1.782 3.98-3.98v-0.29c0-2.198-1.78-3.98-3.98-3.98z" fill="#868A91"/>
<path d="m980.54 734.79h-88.59c-2.275 0-4.12 1.845-4.12 4.12v0.01c0 2.275 1.845 4.12 4.12 4.12h88.59c2.275 0 4.12-1.845 4.12-4.12v-0.01c0-2.275-1.845-4.12-4.12-4.12z" fill="#868A91"/>
<path d="m1081.8 786.85h-190.04c-2.198 0-3.98 1.782-3.98 3.98v0.29c0 2.198 1.782 3.98 3.98 3.98h190.04c2.2 0 3.98-1.782 3.98-3.98v-0.29c0-2.198-1.78-3.98-3.98-3.98z" fill="#868A91"/>
<path d="m980.54 817.65h-88.59c-2.275 0-4.12 1.845-4.12 4.12v0.01c0 2.276 1.845 4.12 4.12 4.12h88.59c2.275 0 4.12-1.844 4.12-4.12v-0.01c0-2.275-1.845-4.12-4.12-4.12z" fill="#868A91"/>
<path d="m1081.8 869.71h-190.04c-2.198 0-3.98 1.782-3.98 3.98v0.29c0 2.198 1.782 3.98 3.98 3.98h190.04c2.2 0 3.98-1.782 3.98-3.98v-0.29c0-2.198-1.78-3.98-3.98-3.98z" fill="#868A91"/>
<path d="m980.54 900.51h-88.59c-2.275 0-4.12 1.844-4.12 4.12v0.01c0 2.275 1.845 4.12 4.12 4.12h88.59c2.275 0 4.12-1.845 4.12-4.12v-0.01c0-2.276-1.845-4.12-4.12-4.12z" fill="#868A91"/>
<path d="m1081.8 952.57h-190.04c-2.198 0-3.98 1.782-3.98 3.98v0.29c0 2.198 1.782 3.98 3.98 3.98h190.04c2.2 0 3.98-1.782 3.98-3.98v-0.29c0-2.198-1.78-3.98-3.98-3.98z" fill="#868A91"/>
<path d="m980.54 983.37h-88.59c-2.275 0-4.12 1.845-4.12 4.12v0.01c0 2.276 1.845 4.12 4.12 4.12h88.59c2.275 0 4.12-1.844 4.12-4.12v-0.01c0-2.275-1.845-4.12-4.12-4.12z" fill="#868A91"/>
<path class="change-color-in-svg" d="m1038.5 480.47c0 16.829-4.99 33.281-14.34 47.274s-22.64 24.899-38.187 31.339c-15.549 6.44-32.657 8.125-49.163 4.842s-31.668-11.387-43.568-23.287-20.004-27.062-23.287-43.568c-3.283-16.505-1.598-33.614 4.842-49.162 6.44-15.549 17.347-28.838 31.34-38.188 13.993-9.349 30.444-14.34 47.273-14.34 11.191-0.061 22.284 2.098 32.635 6.353s19.755 10.52 27.665 18.433c7.92 7.914 14.18 17.318 18.44 27.67 4.25 10.351 6.41 21.443 6.35 32.634z" fill="#8fbcbb"/>
<path d="m987.28 447.23v21.06l-11.71 0.85 1.74-14.79 9.97-7.12z" fill="#21252B"/>
<path d="m1028.5 520.5c-6.92 12.978-17.09 23.939-29.512 31.816-12.421 7.878-26.671 12.401-41.362 13.131-14.69 0.729-29.318-2.361-42.459-8.97-13.14-6.608-24.343-16.509-32.517-28.737 3.522-4.515 8.611-7.541 14.26-8.48l32.82-5.49 1.83-0.31 2.8-0.47h0.23l46.7 1.26h1.62l2.86 0.38 0.43 0.05 1.43 0.19 37.69 5c1.07 0.137 2.14 0.347 3.18 0.63z" fill="#21252B"/>
<path d="m982.91 514.3c0 0.21 4.8 0.47 4.81 0.67s0 0.61 0 0.9c0 9-13.07 16.3-29.18 16.3s-29.18-7.3-29.18-16.3c1e-3 -0.672 0.074-1.343 0.22-2 0.07-0.28 4.65-0.56 4.74-0.84l48.59 1.27z" fill="#fff"/>
<path d="m934.67 461s42.9-26.92 44.58 6l-1.25 8 3.43 40.8c1.25 15.7-47.07 16.33-47.07-1l2.74-21.6c-0.567-2.487-0.845-5.03-0.83-7.58-0.44-12.91-1.6-24.62-1.6-24.62z" fill="#F39494"/>
<path d="m930.88 459.75c8.014 0 14.51-6.496 14.51-14.51 0-8.013-6.496-14.51-14.51-14.51s-14.51 6.497-14.51 14.51c0 8.014 6.496 14.51 14.51 14.51z" fill="#21252B"/>
<path d="m929.84 437.81s-15.25 63.91 17.56 68.19c28.38 3.78 31.54-40.48 31.54-40.48l-1.36-28.7-47.74 0.99z" fill="#F39494"/>
<path d="m973.63 458.67c0.2 9.5 0 18.36-1.78 23.86-0.89 2.82-2.73 5.42-8.38 2.26-21.25-11.93-35.86-0.85-35.86-0.85s2.13 17.52 16.62 21.32 33.4-5.16 33.33-25c0-2.42 1.35-16.57-0.64-23.74s-4.44-7.62-4.44-7.62l1.15 9.77z" fill="#21252B"/>
<path d="m945.13 410.79c8 0 15 3.34 18.86 8.34 0.985 1.208 2.274 2.134 3.734 2.682 1.459 0.548 3.038 0.699 4.576 0.438 0.937-0.028 1.875-1e-3 2.81 0.08 25.63 1.79 22 40.1-1.19 37-4.89-0.66-9.27-4.11-11.73-9.62-0.789-1.835-2.214-3.322-4.013-4.188-1.8-0.866-3.852-1.051-5.777-0.522-2.368 0.659-4.813 0.996-7.27 1-12.26 0-22.2-7.88-22.2-17.6s9.94-17.61 22.2-17.61z" fill="#21252B"/>
<path d="m929.62 443c1.276 0.842 2.613 1.587 4 2.23 0.165 0.071 0.351 0.076 0.519 0.013 0.168-0.064 0.305-0.19 0.381-0.353 0.14-0.41 0.07-0.77-0.34-0.91 0 0-3.81-2.26-4.17-2.5-1.075-0.828-2.079-1.744-3-2.74-0.054-0.078-0.124-0.144-0.205-0.194-0.081-0.049-0.172-0.081-0.266-0.093s-0.19-5e-3 -0.281 0.022-0.176 0.073-0.248 0.135c-0.072 0.052-0.134 0.119-0.18 0.195-0.047 0.077-0.077 0.162-0.09 0.25-0.013 0.089-9e-3 0.179 0.014 0.266 0.022 0.086 0.062 0.168 0.116 0.239 1.103 1.297 2.363 2.452 3.75 3.44z" fill="#966363"/>
<path d="m935.32 510.69 0.92-9.8c3.52 3.36 9.3 6 18.34 5 4.441-0.509 8.742-1.867 12.67-4 0.48-0.29 0.77-0.32 1.06-0.08 0.048 0.063 0.082 0.134 0.1 0.211 0.019 0.077 0.022 0.156 9e-3 0.234-0.013 0.077-0.042 0.152-0.085 0.218s-0.098 0.123-0.164 0.167c-1.29 1.09-6.17 3.54-13.85 4.64-10.68 6.93-19 3.41-19 3.41z" fill="#000" opacity=".15"/>
<path d="m953.37 465.9c1.447 0 2.62-1.173 2.62-2.62s-1.173-2.62-2.62-2.62-2.62 1.173-2.62 2.62 1.173 2.62 2.62 2.62z" fill="#21252B"/>
<path d="m952.23 462.96c0.293 0 0.53-0.237 0.53-0.53 0-0.292-0.237-0.53-0.53-0.53s-0.53 0.238-0.53 0.53c0 0.293 0.237 0.53 0.53 0.53z" fill="#fff"/>
<path d="m932.56 466c1.447 0 2.62-1.173 2.62-2.62s-1.173-2.62-2.62-2.62-2.62 1.173-2.62 2.62 1.173 2.62 2.62 2.62z" fill="#21252B"/>
<path d="m931.4 463.06c0.293 0 0.53-0.237 0.53-0.53s-0.237-0.53-0.53-0.53-0.53 0.237-0.53 0.53 0.237 0.53 0.53 0.53z" fill="#fff"/>
<path d="m961.14 456.54h-36c-0.824-4e-3 -1.626 0.267-2.28 0.77-0.465 0.349-0.843 0.802-1.104 1.323-0.26 0.52-0.396 1.095-0.396 1.677v2.95c0.084 2.675 1.205 5.212 3.127 7.075 1.921 1.862 4.492 2.904 7.168 2.904 2.677 0 5.248-1.042 7.169-2.904 1.922-1.863 3.043-4.4 3.126-7.075v-2.95c0.037-0.832-0.221-1.651-0.73-2.31h4c-0.529 0.655-0.825 1.468-0.84 2.31v2.95c0.084 2.675 1.205 5.212 3.127 7.075 1.921 1.862 4.492 2.904 7.168 2.904 2.677 0 5.248-1.042 7.169-2.904 1.922-1.863 3.043-4.4 3.126-7.075v-2.95c2e-3 -0.501-0.097-0.997-0.289-1.459-0.193-0.462-0.476-0.88-0.833-1.232-0.357-0.351-0.78-0.627-1.245-0.813-0.465-0.185-0.962-0.276-1.463-0.266zm-20.79 6.84c-5e-3 1.618-0.461 3.203-1.315 4.577-0.855 1.374-2.075 2.483-3.525 3.203-1.24 0.627-2.61 0.953-4 0.95-1.878 0-3.704-0.614-5.2-1.75-1.096-0.827-1.985-1.896-2.598-3.125-0.612-1.229-0.931-2.582-0.932-3.955l-0.1-2.84c6e-3 -0.501 0.172-0.988 0.474-1.387 0.303-0.4 0.725-0.692 1.206-0.833 0.205-0.061 0.417-0.091 0.63-0.09h13c0.416 0 0.824 0.114 1.18 0.33 0.345 0.208 0.63 0.501 0.828 0.852 0.198 0.35 0.302 0.745 0.302 1.148l0.05 2.92zm23 0c-0.013 2.328-0.951 4.556-2.607 6.193-1.656 1.638-3.894 2.55-6.223 2.537-2.328-0.014-4.556-0.951-6.193-2.607-1.638-1.656-2.55-3.895-2.537-6.223v-2.94c0-0.291 0.058-0.58 0.17-0.848 0.111-0.269 0.275-0.513 0.481-0.719 0.206-0.205 0.451-0.367 0.721-0.478 0.269-0.11 0.557-0.167 0.848-0.165h13c0.611 5e-3 1.196 0.25 1.628 0.682s0.677 1.017 0.682 1.628l0.03 2.94z" fill="#21252B"/>
<path d="m977.49 478.64-0.57-16.41s2.62-6.8 9.27-4c7.81 3.21 2.06 23.95-8.7 20.41z" fill="#F39494"/>
<g opacity=".5">
<path d="m979.62 469.14c0.225 0 0.441-0.089 0.601-0.249 0.159-0.159 0.248-0.375 0.248-0.601 0-2.58 0.59-4.34 1.7-5.08 0.501-0.25 1.049-0.39 1.608-0.409 0.56-0.019 1.116 0.083 1.632 0.299 0.209 0.087 0.443 0.089 0.653 5e-3 0.209-0.084 0.377-0.248 0.468-0.455 0.086-0.207 0.088-0.439 3e-3 -0.647-0.084-0.208-0.247-0.374-0.453-0.463-0.771-0.329-1.607-0.477-2.444-0.434-0.838 0.043-1.654 0.277-2.386 0.684-1.64 1.07-2.48 3.26-2.48 6.5 0 0.226 0.089 0.442 0.248 0.601 0.16 0.16 0.376 0.249 0.602 0.249z" fill="#000" opacity=".5"/>
</g>
<path d="m953.11 485.09h-14.69l0.46 1.14c0.592 1.478 1.64 2.728 2.991 3.569 1.352 0.841 2.937 1.229 4.524 1.108 1.587-0.122 3.094-0.747 4.302-1.784s2.053-2.432 2.413-3.983v-0.05z" fill="#fff"/>
<g opacity=".5">
<path d="m941.18 479.05h1.55c0.226-3e-3 0.443-0.095 0.602-0.256s0.248-0.378 0.248-0.604-0.089-0.442-0.249-0.602c-0.159-0.159-0.376-0.248-0.601-0.248h-1.55c-0.575 0-1.13-0.21-1.56-0.593-0.429-0.382-0.703-0.909-0.768-1.481-0.066-0.571 0.081-1.146 0.413-1.616s0.825-0.801 1.385-0.93c0.22-0.051 0.411-0.187 0.531-0.378s0.159-0.422 0.109-0.642c-0.05-0.221-0.186-0.412-0.377-0.532-0.192-0.12-0.423-0.159-0.643-0.108-1.061 0.12-2.03 0.657-2.695 1.493-0.665 0.835-0.971 1.901-0.85 2.962 0.121 1.06 0.658 2.03 1.493 2.695 0.836 0.665 1.901 0.97 2.962 0.85v-0.01z" fill="#000" opacity=".5"/>
</g>
<path class="change-color-in-svg" d="m1009.9 522.59-3.64 4.424 2.16 1.78 3.64-4.424-2.16-1.78z" fill="#8fbcbb"/>
<path class="change-color-in-svg" d="m914.36 518.35-3.642 4.423 2.161 1.78 3.643-4.423-2.162-1.78z" fill="#8fbcbb"/>
<path class="change-color-in-svg" d="m954.22 557.04-0.196 5.726 2.799 0.096 0.196-5.726-2.799-0.096z" fill="#8fbcbb"/>
<path class="change-color-in-svg" d="m989.95 547.21-0.572 2.73 5.608 1.176 0.572-2.731-5.608-1.175z" fill="#8fbcbb"/>
<path class="change-color-in-svg" d="m900.98 542.24-1.987 1.958 4.022 4.082 1.987-1.959-4.022-4.081z" fill="#8fbcbb"/>
<path class="change-color-in-svg" d="m962.03 532.78-0.573 2.731 5.608 1.175 0.573-2.73-5.608-1.176z" fill="#8fbcbb"/>
<path class="change-color-in-svg" d="m931.48 542.23-0.573 2.731 5.608 1.176 0.573-2.731-5.608-1.176z" fill="#8fbcbb"/>
<path class="change-color-in-svg" d="m840.49 700.62h-34.89c-1.878 0-3.4 1.522-3.4 3.4v43.89c0 1.878 1.522 3.4 3.4 3.4h34.89c1.878 0 3.4-1.522 3.4-3.4v-43.89c0-1.878-1.522-3.4-3.4-3.4z" fill="#8fbcbb"/>
<path class="change-color-in-svg" d="m840.49 700.62h-34.89c-1.878 0-3.4 1.522-3.4 3.4v43.89c0 1.878 1.522 3.4 3.4 3.4h34.89c1.878 0 3.4-1.522 3.4-3.4v-43.89c0-1.878-1.522-3.4-3.4-3.4z" fill="#8fbcbb"/>
<path class="change-color-in-svg" d="m838.32 703.68h-30.55v41.34h30.55v-41.34z" fill="#8fbcbb"/>
<path d="m838.32 703.68h-30.55v41.34h30.55v-41.34z" fill="#fff" opacity=".7"/>
<path class="change-color-in-svg" d="m827.57 698.91c-0.204 0-0.404-0.062-0.572-0.178s-0.296-0.281-0.368-0.472c-0.263-0.742-0.75-1.383-1.393-1.837s-1.41-0.697-2.197-0.697-1.554 0.243-2.197 0.697-1.129 1.095-1.393 1.837c-0.071 0.191-0.2 0.356-0.368 0.472s-0.368 0.178-0.572 0.178h-4.72c-0.265 0-0.52 0.105-0.707 0.292-0.188 0.188-0.293 0.442-0.293 0.708v5.26c0 0.265 0.105 0.519 0.293 0.707 0.187 0.187 0.442 0.293 0.707 0.293h18.51c0.265 0 0.52-0.106 0.707-0.293 0.188-0.188 0.293-0.442 0.293-0.707v-5.26c0-0.266-0.105-0.52-0.293-0.708-0.187-0.187-0.442-0.292-0.707-0.292h-4.73z" fill="#8fbcbb"/>
<path d="m827.57 698.91c-0.204 0-0.404-0.062-0.572-0.178s-0.296-0.281-0.368-0.472c-0.263-0.742-0.75-1.383-1.393-1.837s-1.41-0.697-2.197-0.697-1.554 0.243-2.197 0.697-1.129 1.095-1.393 1.837c-0.071 0.191-0.2 0.356-0.368 0.472s-0.368 0.178-0.572 0.178h-4.72c-0.265 0-0.52 0.105-0.707 0.292-0.188 0.188-0.293 0.442-0.293 0.708v5.26c0 0.265 0.105 0.519 0.293 0.707 0.187 0.187 0.442 0.293 0.707 0.293h18.51c0.265 0 0.52-0.106 0.707-0.293 0.188-0.188 0.293-0.442 0.293-0.707v-5.26c0-0.266-0.105-0.52-0.293-0.708-0.187-0.187-0.442-0.292-0.707-0.292h-4.73z" fill="#000" opacity=".5"/>
<path class="change-color-in-svg" d="m832.98 711.97h-19.87c-0.624 0-1.13 0.506-1.13 1.13s0.506 1.13 1.13 1.13h19.87c0.625 0 1.13-0.506 1.13-1.13s-0.505-1.13-1.13-1.13z" fill="#8fbcbb"/>
<path class="change-color-in-svg" d="m832.98 722.43h-19.87c-0.624 0-1.13 0.506-1.13 1.13s0.506 1.13 1.13 1.13h19.87c0.625 0 1.13-0.506 1.13-1.13s-0.505-1.13-1.13-1.13z" fill="#8fbcbb"/>
<path class="change-color-in-svg" d="m824.03 732.9h-10.921c-0.624 0-1.13 0.506-1.13 1.13s0.506 1.13 1.13 1.13h10.921c0.624 0 1.129-0.506 1.129-1.13s-0.505-1.13-1.129-1.13z" fill="#8fbcbb"/>
<path class="change-color-in-svg" d="m830.36 988.54h-14.63v3.79c0 0.353 0.141 0.691 0.39 0.941 0.249 0.249 0.588 0.389 0.94 0.389h0.901c0.054-1e-3 0.109 8e-3 0.159 0.028 0.051 0.02 0.098 0.05 0.137 0.089 0.039 0.038 0.07 0.083 0.091 0.134 0.022 0.05 0.033 0.104 0.032 0.159v0.79c0 0.35 0.14 0.686 0.387 0.933 0.248 0.248 0.583 0.387 0.934 0.387h6.679c0.175 1e-3 0.347-0.032 0.509-0.098 0.161-0.065 0.308-0.162 0.431-0.285 0.124-0.123 0.222-0.269 0.289-0.429 0.067-0.161 0.102-0.334 0.102-0.508v-0.79c-1e-3 -0.055 0.01-0.109 0.032-0.159 0.021-0.051 0.052-0.096 0.091-0.134 0.039-0.039 0.086-0.069 0.137-0.089 0.05-0.02 0.105-0.029 0.159-0.028h0.901c0.351-3e-3 0.688-0.143 0.937-0.392s0.39-0.586 0.392-0.938v-3.79z" fill="#8fbcbb"/>
<path d="m830.36 988.54h-14.63v3.79c0 0.353 0.141 0.691 0.39 0.941 0.249 0.249 0.588 0.389 0.94 0.389h0.901c0.054-1e-3 0.109 8e-3 0.159 0.028 0.051 0.02 0.098 0.05 0.137 0.089 0.039 0.038 0.07 0.083 0.091 0.134 0.022 0.05 0.033 0.104 0.032 0.159v0.79c0 0.35 0.14 0.686 0.387 0.933 0.248 0.248 0.583 0.387 0.934 0.387h6.679c0.175 1e-3 0.347-0.032 0.509-0.098 0.161-0.065 0.308-0.162 0.431-0.285 0.124-0.123 0.222-0.269 0.289-0.429 0.067-0.161 0.102-0.334 0.102-0.508v-0.79c-1e-3 -0.055 0.01-0.109 0.032-0.159 0.021-0.051 0.052-0.096 0.091-0.134 0.039-0.039 0.086-0.069 0.137-0.089 0.05-0.02 0.105-0.029 0.159-0.028h0.901c0.351-3e-3 0.688-0.143 0.937-0.392s0.39-0.586 0.392-0.938v-3.79z" fill="#000" opacity=".5"/>
<path class="change-color-in-svg" d="m833.8 951.81c-1.755-1.474-3.79-2.58-5.982-3.25-2.193-0.671-4.498-0.894-6.778-0.654-2.28 0.239-4.488 0.936-6.494 2.047-2.005 1.112-3.765 2.616-5.177 4.423-1.411 1.807-2.443 3.879-3.036 6.094s-0.733 4.526-0.413 6.797c0.32 2.27 1.095 4.452 2.277 6.417 1.182 1.964 2.747 3.67 4.603 5.016 1.488 1.142 2.483 2.809 2.78 4.66 0.05 0 0.12 3.24 0.17 3.24h14.63s0.07-3.26 0.12-3.24c0.406-1.954 1.516-3.691 3.12-4.88 2.012-1.585 3.641-3.602 4.768-5.902 1.126-2.3 1.721-4.824 1.74-7.385s-0.538-5.093-1.63-7.41c-1.091-2.316-2.69-4.358-4.678-5.973h-0.02zm-0.8 12.85c-0.47 0-0.921-0.186-1.255-0.517-0.333-0.332-0.522-0.782-0.525-1.253 0-1.559-0.619-3.055-1.722-4.157-1.103-1.103-2.598-1.723-4.158-1.723-0.472 0-0.925-0.187-1.258-0.521-0.334-0.334-0.522-0.787-0.522-1.259s0.188-0.924 0.522-1.258c0.333-0.334 0.786-0.522 1.258-0.522 1.24 0 2.468 0.245 3.613 0.719s2.186 1.17 3.062 2.046c0.877 0.877 1.572 1.917 2.047 3.063 0.474 1.145 0.718 2.373 0.718 3.612-2e-3 0.471-0.191 0.921-0.525 1.253-0.333 0.331-0.784 0.517-1.255 0.517z" fill="#8fbcbb"/>
<path class="change-color-in-svg" d="m837 799.13-3.09 3.09c1.944 3.568 2.536 7.717 1.669 11.686s-3.136 7.492-6.39 9.924c-3.255 2.432-7.277 3.609-11.329 3.316s-7.863-2.037-10.733-4.912c-2.871-2.874-4.609-6.688-4.896-10.74-0.287-4.053 0.896-8.073 3.333-11.324 2.436-3.251 5.963-5.514 9.934-6.376 3.97-0.861 8.118-0.262 11.682 1.686l3.091-3.09c-4.416-2.766-9.695-3.81-14.831-2.933s-9.769 3.613-13.017 7.688c-3.247 4.074-4.881 9.202-4.59 14.404s2.486 10.115 6.168 13.802c3.681 3.687 8.591 5.89 13.793 6.188 5.202 0.299 10.331-1.327 14.411-4.569 4.079-3.241 6.822-7.87 7.707-13.005s-0.152-10.415-2.912-14.835z" fill="#8fbcbb"/>
<path class="change-color-in-svg" d="m831.57 804.59-3.3 3.3c0.23 0.796 0.344 1.621 0.34 2.45 2e-3 1.885-0.555 3.729-1.601 5.297-1.046 1.569-2.534 2.792-4.275 3.515-1.741 0.722-3.657 0.913-5.507 0.546-1.849-0.367-3.548-1.273-4.882-2.606-1.334-1.332-2.242-3.03-2.611-4.879-0.368-1.849-0.18-3.766 0.541-5.508s1.942-3.231 3.51-4.278c1.567-1.048 3.41-1.607 5.295-1.607 0.833-9e-3 1.662 0.105 2.46 0.34l3.3-3.3c-1.802-0.844-3.769-1.278-5.76-1.27-2.722 0-5.382 0.807-7.645 2.32-2.263 1.512-4.027 3.662-5.068 6.177-1.041 2.514-1.313 5.282-0.782 7.951 0.532 2.67 1.844 5.121 3.769 7.045s4.378 3.234 7.048 3.764 5.437 0.256 7.951-0.787 4.662-2.809 6.173-5.073 2.316-4.925 2.314-7.647c5e-3 -1.987-0.429-3.95-1.27-5.75z" fill="#8fbcbb"/>
<path class="change-color-in-svg" d="m819.08 816.69c-1.256 0-2.484-0.372-3.528-1.07-1.045-0.698-1.859-1.689-2.339-2.85-0.481-1.16-0.607-2.437-0.362-3.669 0.245-1.231 0.85-2.363 1.738-3.251s2.02-1.493 3.252-1.738c1.231-0.245 2.508-0.119 3.668 0.362 1.161 0.48 2.153 1.294 2.85 2.338 0.698 1.045 1.07 2.272 1.07 3.528-2e-3 1.684-0.672 3.297-1.862 4.487-1.191 1.191-2.804 1.861-4.487 1.863zm0-8.46c-0.42 0-0.83 0.125-1.179 0.358-0.349 0.234-0.621 0.565-0.781 0.953s-0.202 0.815-0.119 1.227c0.083 0.411 0.286 0.789 0.583 1.085 0.298 0.296 0.676 0.497 1.088 0.578 0.412 0.08 0.839 0.037 1.226-0.125s0.717-0.435 0.949-0.785 0.354-0.761 0.352-1.181c-5e-3 -0.559-0.23-1.095-0.627-1.489-0.397-0.395-0.933-0.618-1.492-0.621z" fill="#8fbcbb"/>
<path class="change-color-in-svg" d="m848.05 787.51c-0.118-0.294-0.321-0.545-0.583-0.723-0.261-0.178-0.57-0.275-0.886-0.277h-3.701v-3.7c4e-3 -0.316-0.088-0.625-0.262-0.888s-0.422-0.468-0.714-0.588c-0.291-0.121-0.612-0.151-0.921-0.088-0.309 0.064-0.592 0.218-0.813 0.444l-6.35 6.35c-0.148 0.146-0.267 0.32-0.347 0.512-0.081 0.193-0.123 0.399-0.123 0.608v4.65h-0.06l-15.29 15.41c-0.22 0.222-0.37 0.504-0.431 0.812-0.06 0.307-0.029 0.625 0.091 0.915 0.119 0.289 0.322 0.537 0.582 0.712s0.565 0.269 0.878 0.271c0.424-3e-3 0.83-0.172 1.13-0.47l15.331-15.34v-0.06h4.649c0.209 0 0.415-0.042 0.608-0.123 0.192-0.08 0.366-0.199 0.512-0.347l6.351-6.35c0.223-0.221 0.376-0.504 0.439-0.812 0.062-0.308 0.031-0.628-0.09-0.918z" fill="#8fbcbb"/>
<path d="m848.05 787.51c-0.118-0.294-0.321-0.545-0.583-0.723-0.261-0.178-0.57-0.275-0.886-0.277h-3.701v-3.7c4e-3 -0.316-0.088-0.625-0.262-0.888s-0.422-0.468-0.714-0.588c-0.291-0.121-0.612-0.151-0.921-0.088-0.309 0.064-0.592 0.218-0.813 0.444l-6.35 6.35c-0.148 0.146-0.267 0.32-0.347 0.512-0.081 0.193-0.123 0.399-0.123 0.608v4.65h-0.06l-15.29 15.41c-0.22 0.222-0.37 0.504-0.431 0.812-0.06 0.307-0.029 0.625 0.091 0.915 0.119 0.289 0.322 0.537 0.582 0.712s0.565 0.269 0.878 0.271c0.424-3e-3 0.83-0.172 1.13-0.47l15.331-15.34v-0.06h4.649c0.209 0 0.415-0.042 0.608-0.123 0.192-0.08 0.366-0.199 0.512-0.347l6.351-6.35c0.223-0.221 0.376-0.504 0.439-0.812 0.062-0.308 0.031-0.628-0.09-0.918z" fill="#000" opacity=".5"/>
<path class="change-color-in-svg" d="m804.84 885h5.319c0.282 0 0.551 0.112 0.75 0.311 0.199 0.198 0.31 0.468 0.31 0.749v19.16h-7.449v-19.17c1e-3 -0.139 0.03-0.277 0.084-0.405s0.134-0.244 0.233-0.342c0.099-0.097 0.217-0.174 0.346-0.226s0.267-0.078 0.407-0.077z" fill="#8fbcbb"/>
<path class="change-color-in-svg" d="m815.2 875.49h5.32c0.281 0 0.551 0.112 0.749 0.311 0.199 0.199 0.311 0.468 0.311 0.749v28.66h-7.45v-28.66c0-0.14 0.028-0.278 0.081-0.408 0.054-0.129 0.133-0.246 0.233-0.345 0.099-0.098 0.217-0.176 0.347-0.229s0.269-0.079 0.409-0.078z" fill="#8fbcbb"/>
<path class="change-color-in-svg" d="m825.56 880.81h5.32c0.281 0 0.551 0.111 0.75 0.31 0.198 0.199 0.31 0.468 0.31 0.75v23.33h-7.44v-23.33c0-0.282 0.112-0.551 0.31-0.75 0.199-0.199 0.469-0.31 0.75-0.31z" fill="#8fbcbb"/>
<path class="change-color-in-svg" d="m835.92 872.22h5.32c0.281 0 0.55 0.111 0.749 0.31s0.311 0.469 0.311 0.75v31.93h-7.45v-31.93c0-0.14 0.027-0.279 0.081-0.408s0.133-0.247 0.233-0.345c0.099-0.099 0.217-0.177 0.347-0.229 0.13-0.053 0.269-0.08 0.409-0.078z" fill="#8fbcbb"/>
<path class="change-color-in-svg" d="m844.81 904.16h-43.53c-0.221 0-0.4 0.179-0.4 0.4v1.29c0 0.221 0.179 0.4 0.4 0.4h43.53c0.221 0 0.4-0.179 0.4-0.4v-1.29c0-0.221-0.179-0.4-0.4-0.4z" fill="#8fbcbb"/>
<path d="m844.81 904.16h-43.53c-0.221 0-0.4 0.179-0.4 0.4v1.29c0 0.221 0.179 0.4 0.4 0.4h43.53c0.221 0 0.4-0.179 0.4-0.4v-1.29c0-0.221-0.179-0.4-0.4-0.4z" fill="#000" opacity=".5"/>
<path d="m1379.4 1060.7h-1173.5c-0.213 0-0.416-0.08-0.566-0.23s-0.234-0.36-0.234-0.57 0.084-0.42 0.234-0.57 0.353-0.23 0.566-0.23h1173.6c0.1 0 0.21 0.02 0.31 0.06s0.18 0.1 0.26 0.17c0.07 0.08 0.13 0.16 0.17 0.26s0.06 0.2 0.06 0.31-0.03 0.22-0.08 0.33c-0.04 0.1-0.11 0.19-0.2 0.27-0.08 0.07-0.18 0.13-0.29 0.16-0.1 0.04-0.22 0.05-0.33 0.04z" fill="#ADB1B6"/>
<path d="m477.19 1044.7h29.06l5.37-49.16-34.33 0.1-0.1 49.06z" fill="#F39494"/>
<path d="m477.24 1009.9v4h22.76c0.76 0 1.512 0.16 2.206 0.47s1.315 0.76 1.821 1.33c0.507 0.56 0.889 1.23 1.12 1.96 0.232 0.72 0.308 1.48 0.223 2.24l-1.92 17.47h3.57l3-27.45-32.78-0.02z" fill="#000" opacity=".2"/>
<path d="m480.18 1026 0.88-0.77c6.59-5.71 17.93-5.64 24.33 0.26l0.49 0.5c0.77 0.67 1.392 1.5 1.826 2.42 0.434 0.93 0.67 1.94 0.694 2.96v3.2c-2e-3 1.87 0.337 3.72 1 5.47l3 8.66c0.772 2.07 1.168 4.27 1.17 6.48v1.09c0 1.69-1.75 3-3.78 3h-34.79c-2.14 0-3.78-1.36-3.78-3v-0.42c1e-3 -2.57 0.497-5.11 1.46-7.49l3.48-8.49c0.807-1.92 1.234-3.98 1.26-6.06l0.1-2.43c0.146-2.07 1.102-4.01 2.66-5.38z" fill="#25282F"/>
<path d="m590.42 1010.2 1.94 28.58 56.64 2.63-18.84-19c-3.59-2.58-5.79-8.24-6.52-12.54l-33.22 0.33z" fill="#F39494"/>
<path d="m610.66 1015c2.598 0 5.147 0.71 7.368 2.06s4.027 3.28 5.222 5.59c0.93 1.87 2.266 3.5 3.91 4.79l13.5 13.61 8.34 0.39-18.84-19c-3.59-2.58-5.79-8.24-6.52-12.54l-33.22 0.33 0.34 5 19.9-0.23z" fill="#000" opacity=".2"/>
<path d="m591.2 1026.7s12.84 8 27.25 1.09c-0.287-1.49-0.169-3.03 0.341-4.46s1.394-2.7 2.559-3.67c2.39-1.87 7.25-2.49 8.55-0.76s3.38 4.61 6.82 8.8c4.78 5.76 11.25 12.41 16.26 13.47 9.17 1.91 27.71-7.46 29 12.15 0 0-18.1 6.81-35 5.11-10.985-1.28-21.78-3.86-32.16-7.68v7.87h-26.19s-5.95-22.1 2.57-31.92z" fill="#25282F"/>
<path d="m586.72 1046.2c0.251 4.23 0.894 8.43 1.92 12.55h26.22v-7.87c10.38 3.82 21.175 6.39 32.16 7.68 16.86 1.7 35-5.1 35-5.1-0.089-1.52-0.323-3.02-0.7-4.49-13.177 6.68-28.414 8.07-42.58 3.87-9.63-2.79-17.38-4.73-24.18-6.67-0.05-0.03-22.56-0.52-27.84 0.03z" fill="#000"/>
<path d="m650.64 1042.1s-13.36 4-23.37-3.71c-7.39-5.66-11.16-9-8.17-15.74 0.552-1.32 1.472-2.46 2.651-3.27 1.179-0.82 2.567-1.27 3.999-1.32 0 0 9.32 21.82 24.89 24.04z" fill="#000"/>
<path d="m526.45 636.23c13.93-123.31-11.15-198.65-20-224.63l14-3.78 46.38 0.4 5.87 2.09c1.19 23.09 17.72 126.59 33.64 225.82h-79.89v0.1z" fill="#fff"/>
<path class="change-color-in-svg" d="m477.78 607.09 136.79 2.2 13.07 401.59h-38l-35.05-329.28c-0.105-1.02-0.583-1.965-1.341-2.655-0.758-0.689-1.744-1.076-2.769-1.085-1.049-0.035-2.072 0.333-2.859 1.028-0.786 0.696-1.277 1.666-1.371 2.712l-33 329.28h-37.93l2.46-403.79z" fill="#8fbcbb"/>
<path class="change-color-in-svg" d="m474.44 1002.7h41.07l-0.75 8.22h-40.44l0.12-8.22z" fill="#8fbcbb"/>
<path d="m500.01 1002.7h15.5l-0.75 8.22-15.42-0.12 0.67-8.1z" fill="#000" opacity=".2"/>
<path class="change-color-in-svg" d="m623.53 1002.6h-36l0.93 8.3h35.49l-0.42-8.3z" fill="#8fbcbb"/>
<path class="change-color-in-svg" d="m628.25 1002.6h-4.71l0.5 8.3h4.54l-0.33-8.3z" fill="#8fbcbb"/>
<path d="m628.25 1002.6h-4.71l0.5 8.3h4.54l-0.33-8.3z" fill="#000" opacity=".2"/>
<path d="m604.82 618.22 18.72 384.35h3.83l-12.51-384.35h-10.04z" fill="#000" opacity=".2"/>
<path d="m500 1002.6 27.35-307.14c1.25-10 10.16-17.54 20.62-17.54h2.81c-1.062-0.014-2.091 0.369-2.887 1.074-0.795 0.704-1.299 1.68-1.413 2.736l-32.58 320.87h-13.9z" fill="#000" opacity=".2"/>
<path d="m566.06 353.88s-40.6-25.48-42.2 5.67l-0.59 8.06-2.79 40.81c-0.018 1.124 0.369 2.218 1.09 3.08l28.19 16c0.346 0.22 0.751 0.328 1.161 0.311 0.41-0.018 0.804-0.162 1.129-0.411l12.72-14.83c0.583-0.495 1.033-1.127 1.31-1.839 0.278-0.712 0.374-1.483 0.28-2.241l-2.59-24.19c0.546-2.347 0.815-4.75 0.8-7.16 0.43-12.22 1.49-23.26 1.49-23.26z" fill="#F39494"/>
<path d="m568.05 355.77c8.362 0 15.14-6.778 15.14-15.14 0-8.361-6.778-15.14-15.14-15.14-8.361 0-15.14 6.779-15.14 15.14 0 8.362 6.779 15.14 15.14 15.14z" fill="#000"/>
<path d="m570.64 331.88s14.43 60.51-16.62 64.59c-26.87 3.59-29.86-38.31-29.86-38.31l1.3-27.17 45.18 0.89z" fill="#F39494"/>
<path d="m560.08 306.61c-8.37 0-15.71 3.5-19.81 8.76-1.037 1.268-2.391 2.239-3.924 2.815s-3.191 0.737-4.806 0.465c-0.981-0.038-1.963-0.011-2.94 0.08-26.91 1.88-23.09 42.1 1.24 38.82 5.13-0.69 9.73-4.32 12.32-10.11 0.842-1.912 2.344-3.457 4.231-4.353 1.888-0.896 4.035-1.083 6.049-0.527 2.49 0.675 5.06 1.012 7.64 1 12.87 0 23.3-8.27 23.3-18.48s-10.38-18.47-23.3-18.47z" fill="#000"/>
<path d="m523.11 369.63s2.58 0.2 4-0.89l-4.38 6.76 0.38-5.87z" fill="#000" opacity=".2"/>
<path d="m524.76 353.48s-2-5.67-8-3.09c-6.77 3-5.38 18.32 6.07 19.21 6 0.5 4.78-3 3.78-7.66l-1.85-8.46z" fill="#F39494"/>
<path d="m516.5 354.37c0.46-0.359 0.987-0.623 1.551-0.775 0.563-0.153 1.151-0.192 1.729-0.115 0.557 0.142 1.076 0.402 1.523 0.763 0.447 0.36 0.811 0.813 1.067 1.327 0.737 1.268 1.117 2.713 1.1 4.18l0.09 1.29c3e-3 0.092-0.013 0.183-0.047 0.269-0.033 0.085-0.084 0.163-0.148 0.228-0.065 0.066-0.142 0.117-0.227 0.152s-0.176 0.052-0.268 0.051c-0.093 3e-3 -0.185-0.014-0.271-0.048s-0.164-0.085-0.23-0.151-0.117-0.144-0.151-0.23-0.051-0.178-0.048-0.271l-0.1-1.29c-0.045-1.21-0.348-2.397-0.89-3.48-0.377-0.681-0.977-1.211-1.7-1.5-0.778-0.062-1.552 0.15-2.19 0.6-0.162 0.096-0.354 0.129-0.538 0.092-0.185-0.036-0.35-0.141-0.462-0.292-0.19-0.1-0.09-0.5 0.21-0.8z" fill="#000" opacity=".2"/>
<path d="m565.76 401.35-1-9.75c-2.59 2.68-10 6.57-18.51 4.57-4.241-1.048-8.041-3.415-10.85-6.76-0.052-0.067-0.117-0.123-0.19-0.164-0.074-0.042-0.155-0.068-0.239-0.077s-0.169-2e-3 -0.25 0.022c-0.081 0.025-0.156 0.065-0.221 0.119-0.067 0.05-0.122 0.114-0.164 0.187-0.041 0.073-0.067 0.153-0.076 0.236-0.01 0.083-2e-3 0.168 0.022 0.248s0.064 0.154 0.118 0.219c3.651 4.256 8.763 6.993 14.33 7.67 2.46 1.692 5.235 2.873 8.161 3.471 2.926 0.597 5.942 0.601 8.869 9e-3z" fill="#000" opacity=".15"/>
<path d="m556.31 384.13c0 0.1-0.1 0.1 0 0l-3.78 0.3c-0.224 6e-3 -0.441-0.073-0.608-0.222-0.167-0.148-0.272-0.355-0.292-0.578-0.011-0.112 1e-3 -0.225 0.036-0.332s0.092-0.205 0.168-0.289c0.075-0.084 0.167-0.151 0.269-0.197 0.103-0.046 0.214-0.071 0.327-0.072l3.68-0.3c0.212-0.025 0.425 0.034 0.594 0.165s0.278 0.324 0.306 0.535c-0.01 0.59-0.3 0.99-0.7 0.99z" fill="#000" opacity=".2"/>
<path d="m557.7 380.55c-6.77 1-9.85-2.69-11-4.48-0.1-0.185-0.124-0.402-0.068-0.605 0.056-0.202 0.187-0.376 0.368-0.485 0.186-0.1 0.403-0.127 0.607-0.073 0.205 0.054 0.381 0.184 0.493 0.363 1 1.8 4.38 5.68 12.54 3 0.191-0.042 0.39-0.013 0.561 0.083 0.17 0.096 0.299 0.252 0.361 0.437s0.053 0.387-0.025 0.566c-0.078 0.18-0.219 0.324-0.397 0.404-1.12 0.37-2.271 0.635-3.44 0.79z" fill="#000" opacity=".2"/>
<path d="m548.35 362.64c1.376 0 2.49-1.115 2.49-2.49s-1.114-2.49-2.49-2.49c-1.375 0-2.49 1.115-2.49 2.49s1.115 2.49 2.49 2.49z" fill="#000"/>
<path d="m549.44 359.85c0.277 0 0.5-0.224 0.5-0.5 0-0.277-0.223-0.5-0.5-0.5-0.276 0-0.5 0.223-0.5 0.5 0 0.276 0.224 0.5 0.5 0.5z" fill="#fff"/>
<path d="m568.05 362.74c1.375 0 2.49-1.115 2.49-2.49s-1.115-2.49-2.49-2.49c-1.376 0-2.49 1.115-2.49 2.49s1.114 2.49 2.49 2.49z" fill="#000"/>
<path d="m569.15 359.95c0.277 0 0.5-0.224 0.5-0.5s-0.223-0.5-0.5-0.5c-0.276 0-0.5 0.224-0.5 0.5s0.224 0.5 0.5 0.5z" fill="#fff"/>
<path d="m559.49 374.48-3.28 0.2c-0.199 0.013-0.395-0.053-0.545-0.185-0.15-0.131-0.242-0.316-0.255-0.515s0.053-0.395 0.184-0.545 0.317-0.242 0.516-0.255l3.28-0.19c0.197-0.013 0.389-0.064 0.567-0.151 0.177-0.087 0.335-0.208 0.466-0.356 0.13-0.148 0.23-0.32 0.294-0.507s0.09-0.384 0.078-0.581c-0.013-0.197-0.064-0.39-0.151-0.567s-0.207-0.336-0.356-0.466c-0.148-0.131-0.32-0.231-0.507-0.295-0.187-0.063-0.384-0.09-0.581-0.077-0.193-9e-3 -0.378-0.083-0.523-0.21s-0.243-0.3-0.277-0.49c-0.1-0.4 0.3-0.69 0.7-0.79 0.774-0.051 1.537 0.2 2.13 0.699 0.592 0.5 0.969 1.21 1.05 1.981 0.056 0.805-0.204 1.6-0.725 2.216s-1.262 1.005-2.065 1.084z" fill="#000" opacity=".2"/>
<path class="change-color-in-svg" d="m578.08 354.85h-38.08c-1.061 0-2.078 0.421-2.828 1.171-0.751 0.75-1.172 1.768-1.172 2.829v3.15c0 2.883 1.145 5.647 3.184 7.686 2.038 2.038 4.803 3.184 7.686 3.184s5.648-1.146 7.686-3.184c2.039-2.039 3.184-4.803 3.184-7.686v-3.1c-5e-3 -0.891-0.315-1.752-0.88-2.44h4.21c-0.532 0.699-0.804 1.562-0.77 2.44v3.1c0 2.883 1.145 5.647 3.184 7.686 2.038 2.038 4.803 3.184 7.686 3.184s5.648-1.146 7.686-3.184c2.039-2.039 3.184-4.803 3.184-7.686v-3.1c7e-3 -0.527-0.091-1.049-0.286-1.537-0.196-0.489-0.486-0.934-0.854-1.31s-0.806-0.676-1.29-0.883c-0.484-0.206-1.004-0.315-1.53-0.32zm-21.86 4v3.15c7e-3 1.216-0.225 2.421-0.684 3.547-0.458 1.127-1.135 2.152-1.989 3.017-0.855 0.864-1.872 1.553-2.993 2.025-1.12 0.472-2.323 0.718-3.539 0.726-1.216 7e-3 -2.422-0.226-3.548-0.684-1.126-0.459-2.151-1.135-3.016-1.99-0.865-0.854-1.553-1.871-2.025-2.992s-0.719-2.323-0.726-3.539v-3.11c5e-3 -0.646 0.264-1.264 0.72-1.72 0.457-0.456 1.075-0.715 1.72-0.72h13.75c0.61 2e-3 1.195 0.243 1.631 0.671 0.435 0.427 0.686 1.008 0.699 1.619zm24.3 3.1c0.048 1.241-0.155 2.48-0.596 3.642-0.44 1.161-1.11 2.223-1.969 3.121-0.859 0.897-1.89 1.613-3.031 2.105-1.141 0.491-2.37 0.748-3.612 0.756-1.243 7e-3 -2.474-0.235-3.621-0.713s-2.186-1.182-3.056-2.069c-0.869-0.888-1.552-1.941-2.006-3.098-0.454-1.156-0.672-2.392-0.639-3.634v-3.06c5e-3 -0.646 0.264-1.264 0.72-1.72 0.457-0.456 1.074-0.715 1.72-0.72h13.76c0.646 5e-3 1.263 0.264 1.72 0.72 0.456 0.456 0.715 1.074 0.72 1.72l-0.11 2.95z" fill="#8fbcbb" stroke="#4D61FC" stroke-miterlimit="10"/>
<path d="m602.19 618.22h-84.5c-0.49 0-0.79-2.34-0.79-4.67-0.033-1.92 0.233-3.833 0.79-5.67h84.5c0.611 1.825 0.882 3.747 0.8 5.67 0.01 2.33-0.3 4.67-0.8 4.67z" fill="#000"/>
<path d="m475.43 663.2 4.34-103.67-11.28-18.66-28.6-69.87 2.71-20.5c-0.28-14.14 12.19-27.18 25.11-30.17l52.17-12.33c7.25 22.79 25.76 114.39 22.13 219.39-0.84 25.08-20.27 45-43.7 45h-14.42c-4.74 0.07-8.55-4.11-8.46-9.19z" fill="#21252B"/>
<path d="m768.31 499.59 1.81 1.74c0.334 0.33 0.733 0.588 1.172 0.757 0.438 0.169 0.907 0.246 1.376 0.225 0.47-0.021 0.93-0.138 1.352-0.345s0.797-0.499 1.1-0.857c0.491-0.553 0.854-1.207 1.065-1.916 0.21-0.708 0.263-1.454 0.154-2.185-0.108-0.731-0.376-1.43-0.783-2.046-0.408-0.617-0.946-1.137-1.576-1.523l-0.13-0.07c-1.591-0.927-3.381-1.459-5.22-1.55l-23.31-1.76 1.87 11.45 21.12-1.92z" fill="#F39494"/>
<path d="m745.49 498.6 14.76 4.83-5.7 22.89-14.68 3.5-11.49-1.94c-0.692-0.116-1.4-0.085-2.08 0.09l-34 9-5.56-28 29.26-8.239 19.69-7.861c2.308-1.644 5.048-2.573 7.88-2.669l10.78-0.381c1.183-0.037 2.317-0.482 3.21-1.26l2.32-2c0.095-0.072 0.204-0.123 0.321-0.148s0.238-0.023 0.354 5e-3c0.116 0.027 0.224 0.081 0.317 0.156 0.092 0.075 0.167 0.17 0.218 0.277l0.47 0.851c0.37 0.625 0.547 1.346 0.509 2.071-0.037 0.726-0.287 1.424-0.719 2.008l-4.81 6-4.36-0.079-9.46 3.299" fill="#F39494"/>
<path d="m751.87 500.69c5.491 0.916 11.12 0.539 16.44-1.1 1 2.81 4.87 3.25 6.31 2.08l-5.1-4.09-11.45-4.53c-0.605-0.21-1.263-0.207-1.867 7e-3 -0.603 0.215-1.116 0.628-1.453 1.173l-2.88 6.46z" fill="#000" opacity=".15"/>
<path d="m737.78 506c-0.081-0.032-0.149-0.092-0.189-0.169-0.041-0.077-0.052-0.167-0.031-0.251 0.026-0.092 0.086-0.17 0.168-0.219 0.082-0.048 0.179-0.063 0.272-0.041 0.23 0.06 5.68 1.41 10.23-5.24 0.025-0.043 0.059-0.079 0.099-0.108 0.04-0.028 0.086-0.048 0.134-0.059 0.048-0.01 0.098-0.01 0.146-1e-3 0.048 0.01 0.094 0.03 0.135 0.058 0.04 0.028 0.074 0.064 0.1 0.106s0.043 0.088 0.05 0.137c8e-3 0.049 5e-3 0.098-8e-3 0.146s-0.035 0.092-0.066 0.131c-4.86 7.08-10.94 5.54-11 5.52l-0.04-0.01z" opacity=".15" stroke="#000" stroke-miterlimit="10"/>
<path d="m713.86 537.74-74.7 29c-4.354 1.342-9.046 1.069-13.215-0.767-4.169-1.837-7.537-5.115-9.485-9.233l-41.36-109.07 38.51-16.28 38.23 83.43 66.89-15.57-4.87 38.49z" fill="#21252B"/>
<path d="m641.16 560.71c-0.35 0.11-0.7 0.2-1 0.29-9.16 2.27-18.16-4.41-19.16-13.77l-4.15-38.71 0.89 50.52c0 1 4.44 4.93 5.28 5.32 2.343 1.568 5.008 2.593 7.799 3 2.79 0.406 5.637 0.184 8.331-0.65l74.7-29 0.71-5.62-73.4 28.62z" fill="#000" opacity=".3"/>
<path d="m616 465.6 3.76 203.24c-0.09 1-2.51 3.52-3.42 3.52h-1.64c-6.23 0-11.55-5-12.56-11.64-13.92-98.29-31.27-229.35-32.28-251.43l25.42 7.1c12.13 3.38 20.4 13.23 20.48 24.39 0.07 10.52 0.16 22.07 0.24 24.82z" fill="#21252B"/>
<path d="m578.04 607.05-82.1-14.26 22.56-102.83 82.24 14.5-22.7 102.59z" fill="#61656D"/>
<path d="m549.48 505.29c1.248 0 2.26-1.012 2.26-2.26 0-1.249-1.012-2.26-2.26-2.26s-2.26 1.011-2.26 2.26c0 1.248 1.012 2.26 2.26 2.26z" fill="#AEB2B7"/>
<path d="m572.84 509.42c1.248 0 2.26-1.011 2.26-2.26 0-1.248-1.012-2.26-2.26-2.26s-2.26 1.012-2.26 2.26c0 1.249 1.012 2.26 2.26 2.26z" fill="#AEB2B7"/>
<path d="m495.54 562.84 10-12.81 6.19-1.15 18-4.23c0.668-0.138 1.257-0.525 1.649-1.082 0.392-0.558 0.557-1.243 0.461-1.918l-0.07-0.93c0.011-0.7-0.255-1.377-0.74-1.882-0.485-0.506-1.149-0.799-1.85-0.818l-15.37 1.12 19.4-1.33c0.685-0.115 1.297-0.494 1.706-1.054 0.409-0.561 0.583-1.259 0.484-1.946l-0.05-0.74c0.011-0.7-0.253-1.376-0.735-1.882-0.483-0.507-1.145-0.804-1.845-0.828l-19.77 1.31 23.31-1.59c0.683-0.118 1.294-0.497 1.703-1.057 0.408-0.56 0.583-1.256 0.487-1.943v-0.37c0.011-0.701-0.254-1.379-0.739-1.886s-1.149-0.803-1.851-0.824l-23.65 1.62s9-3.82 9.13-3.85l12.58-2.92c0.616-0.199 1.142-0.609 1.484-1.158s0.479-1.202 0.386-1.842c0.011-0.365-0.055-0.728-0.193-1.066-0.139-0.339-0.347-0.644-0.611-0.896-0.264-0.253-0.578-0.447-0.921-0.571-0.344-0.124-0.71-0.174-1.075-0.147l-23.59 4.32c-0.206 0.043-0.405 0.118-0.59 0.22l-27.42 13.78 14.1 30.35z" fill="#F39494"/>
<path d="m533.24 531.29-22.94 1.57" opacity=".3" stroke="#000" stroke-linecap="round" stroke-linejoin="round" stroke-width="1.03"/>
<path d="m529.93 537.95-17.74 1.28" opacity=".3" stroke="#000" stroke-linecap="round" stroke-linejoin="round" stroke-width="1.03"/>
<g opacity=".3">
<path d="m469.28 540.26c-0.44 0.34-0.71 0.17-0.6-0.37l9.84-50.48c0.046-0.244 0.181-0.462 0.379-0.612 0.198-0.149 0.444-0.22 0.691-0.198 0.177 0.012 0.342 0.094 0.459 0.226 0.118 0.133 0.179 0.306 0.171 0.484l-3.84 85.63c-0.029 0.3-0.129 0.59-0.29 0.845-0.162 0.256-0.381 0.469-0.64 0.625l-3 1.61c-0.48 0.26-0.84 0-0.79-0.53l3.87-41.16c0.05-0.55-0.26-0.72-0.7-0.38l-5.55 4.31z" fill="#000" opacity=".3"/>
</g>
<path d="m443.78 442.51-22 113.25c-5.09 36.73 23.52 45 38.28 36.35 0.421-0.247 0.819-0.532 1.19-0.85l38.42-31.92-13.15-32.53-18 14.06 16.89-86.64" fill="#21252B"/>
<path d="m811.29 399.91c-8.343-4.338-17.785-6.104-27.132-5.075s-18.179 4.807-25.379 10.856c-7.199 6.049-12.443 14.097-15.069 23.127-2.625 9.03-2.513 18.635 0.321 27.601 2.835 8.966 8.264 16.89 15.603 22.77 7.338 5.88 16.255 9.452 25.624 10.263 9.368 0.812 18.767-1.173 27.007-5.704 8.24-4.53 14.951-11.403 19.285-19.748 5.807-11.186 6.934-24.221 3.135-36.238-3.798-12.018-12.213-22.036-23.395-27.852zm-40.12 77.17c-6.919-3.597-12.617-9.164-16.373-15.999-3.755-6.835-5.399-14.63-4.724-22.399 0.675-7.77 3.638-15.165 8.516-21.25 4.877-6.085 11.45-10.587 18.886-12.936 7.436-2.35 15.402-2.441 22.891-0.264 7.488 2.178 14.163 6.528 19.179 12.499s8.149 13.295 9.003 21.047-0.611 15.583-4.208 22.502c-4.823 9.278-13.134 16.261-23.105 19.412-9.972 3.15-20.786 2.211-30.065-2.612z" fill="#21252B"/>
<path d="m742.14 530.64 28-51.71 7.7 4-27.5 52.15c-0.115 0.219-0.272 0.413-0.462 0.57-0.19 0.158-0.41 0.276-0.647 0.347-0.236 0.072-0.485 0.096-0.73 0.071-0.246-0.026-0.484-0.1-0.701-0.218l-4.91-2.72c-0.428-0.233-0.746-0.625-0.887-1.091-0.14-0.466-0.091-0.969 0.137-1.399z" fill="#21252B"/>
<path d="m748.24 533.92 27.42-52-10.51-3.73-26.61 50.44c-0.225 0.429-0.274 0.928-0.136 1.391 0.139 0.464 0.453 0.855 0.876 1.089l6.43 3.55c0.214 0.121 0.45 0.198 0.694 0.226s0.492 7e-3 0.727-0.062c0.236-0.069 0.456-0.184 0.646-0.34 0.191-0.155 0.348-0.347 0.463-0.564z" fill="#3F4249"/>
<path d="m765.15 478.21-3.28 6.3c0.76 0.45 1.52 0.88 2.31 1.29 2.506 1.297 5.123 2.368 7.82 3.2l3.68-7.06-10.53-3.73z" fill="#000" opacity=".3"/>
<path d="m808.69 398.9c-8.346-4.328-17.789-6.085-27.133-5.047-9.345 1.038-18.172 4.823-25.365 10.877-7.194 6.054-12.43 14.105-15.048 23.135s-2.5 18.634 0.34 27.597 8.274 16.882 15.614 22.757c7.341 5.875 16.259 9.441 25.626 10.248s18.763-1.182 27-5.715c8.238-4.533 14.945-11.407 19.276-19.752 5.806-11.193 6.928-24.235 3.119-36.256-3.809-12.02-12.236-22.036-23.429-27.844zm-40.12 77.17c-6.918-3.598-12.614-9.166-16.368-16.001s-5.397-14.63-4.721-22.399c0.676-7.768 3.64-15.162 8.518-21.246s11.45-10.585 18.886-12.935c7.436-2.349 15.401-2.44 22.889-0.262 7.488 2.177 14.162 6.526 19.178 12.497 5.016 5.97 8.149 13.294 9.003 21.045s-0.609 15.582-4.205 22.501c-2.388 4.596-5.658 8.676-9.623 12.007-3.966 3.332-8.548 5.849-13.487 7.409-4.938 1.561-10.136 2.132-15.295 1.684-5.16-0.449-10.18-1.91-14.775-4.3z" fill="#3F4249"/>
<path d="m753.94 528.26 4.26-2c0.918-0.406 1.709-1.052 2.29-1.87 0.464-0.77 0.75-1.633 0.838-2.528 0.089-0.894-0.023-1.797-0.328-2.642l-11-5.65c-0.554-0.288-1.182-0.403-1.803-0.33-0.62 0.073-1.204 0.331-1.677 0.74-0.248 0.207-0.444 0.469-0.574 0.764-0.13 0.296-0.19 0.618-0.174 0.941 0.015 0.322 0.106 0.637 0.263 0.919 0.158 0.282 0.379 0.524 0.645 0.706l5.93 4.1c0.605 0.424 1.116 0.969 1.5 1.6l-0.17 5.25z" fill="#F39494"/>
<path d="m760.06 516.64-0.95 1.8-10-5.25 0.96-1.5 9.99 4.95z" fill="#000" opacity=".3"/>
<path d="m753.55 504.98 12.3 4.94h2.74l-13.13-7.78-1.91 2.84z" fill="#000" opacity=".3"/>
<path d="m749.68 503.51c3.82 1.41 10.63 4.05 15.11 5.8 1.191 0.553 2.126 1.539 2.617 2.758 0.49 1.218 0.498 2.577 0.023 3.802-0.166 0.574-0.455 1.106-0.846 1.558-0.392 0.452-0.876 0.814-1.421 1.06s-1.137 0.371-1.735 0.366-1.188-0.139-1.728-0.394l-14.52-7.23c-0.985-0.566-1.715-1.489-2.041-2.577-0.325-1.088-0.221-2.259 0.291-3.273 0.339-0.793 0.967-1.427 1.756-1.774s1.68-0.381 2.494-0.096z" fill="#F39494"/>
<path d="m760.68 507.37c1.939 1.33 4.161 2.189 6.49 2.51 0.526 0.033 1.054-0.043 1.55-0.224s0.948-0.463 1.33-0.827c0.381-0.365 0.683-0.804 0.886-1.291s0.303-1.011 0.294-1.538v-0.19c0.18-3.45-1.92-6.48-4.9-7.06l-1-0.19c-1.725-0.342-3.388-0.946-4.93-1.79l-1.94-1.07c-0.837-0.447-1.816-0.546-2.725-0.277-0.91 0.27-1.677 0.886-2.135 1.717-0.62 0.97-0.853 2.138-0.655 3.272 0.198 1.135 0.813 2.154 1.725 2.858l6.01 4.1z" fill="#F39494"/>
</svg>
