<?xml version="1.0" encoding="UTF-8"?>
<svg class="gridItem__media" enable-background="new 0 0 1600 1200" fill="none" version="1.1" viewBox="0 0 1600 1200" xml:space="preserve" xmlns="http://www.w3.org/2000/svg" xmlns:cc="http://creativecommons.org/ns#" xmlns:dc="http://purl.org/dc/elements/1.1/" xmlns:rdf="http://www.w3.org/1999/02/22-rdf-syntax-ns#"><metadata><rdf:RDF><cc:Work rdf:about=""><dc:format>image/svg+xml</dc:format><dc:type rdf:resource="http://purl.org/dc/dcmitype/StillImage"/><dc:title/></cc:Work></rdf:RDF></metadata>
<path d="m1404.1 492.6-146.6-294.8c-4.8-9.59-12.3-17.567-21.57-22.95-9.28-5.384-19.92-7.938-30.63-7.35l-751.1 43.3c-8.266 0.455-16.318 2.79-23.544 6.828-7.227 4.038-13.436 9.671-18.156 16.472l-205.6 294.2c-6.777 9.788-10.214 21.502-9.8 33.4l18.2 470h1168.6l25.8-512c0.51-9.366-1.42-18.704-5.6-27.1z" fill="#F3F3F3"/>
<path d="m595 778.6c-0.689-4.586-2.991-8.777-6.491-11.819-3.501-3.042-7.971-4.737-12.609-4.781h-10.4l-4 1v0.7l-88.2 11.2c-5.423 0.657-10.521 2.937-14.625 6.542-4.104 3.604-7.024 8.365-8.375 13.658l-61.6 236.5h14.9l60.5-232.8c0.669-2.523 2.071-4.792 4.029-6.518 1.958-1.727 4.384-2.834 6.971-3.182l99.8-12.7c1.377-0.171 2.766 0.204 3.869 1.045 1.103 0.842 1.832 2.082 2.031 3.455l38.2 250.6h14.6l-38.6-252.9z" fill="#858990"/>
<path d="m394.2 1031.5h-14.9l61.6-236.5c1.351-5.293 4.27-10.054 8.375-13.659 4.104-3.604 9.202-5.885 14.625-6.541l99.8-12.7c5.087-0.686 10.24 0.662 14.34 3.751s6.816 7.67 7.56 12.749l38.6 252.9h-14.6l-38.2-250.7c-0.199-1.373-0.928-2.614-2.031-3.455s-2.492-1.217-3.869-1.045l-99.8 12.7c-2.587 0.348-5.013 1.455-6.971 3.182-1.958 1.726-3.36 3.994-4.029 6.518l-60.5 232.8z" fill="#B1B5BA"/>
<path d="m299.8 848.8-50.1-208.8c-0.345-1.471-0.354-3.001-0.029-4.476s0.977-2.858 1.908-4.048 2.116-2.156 3.47-2.827c1.353-0.671 2.84-1.029 4.351-1.049h-13.6c-1.511 0.02-2.998 0.378-4.351 1.049-1.354 0.671-2.539 1.637-3.47 2.827s-1.583 2.573-1.908 4.048-0.316 3.005 0.029 4.476l50.2 208.8 162.6 0.4-149.1-0.4z" fill="#858990"/>
<path d="m406.9 635.2c-0.551-2.16-1.802-4.076-3.557-5.451-1.754-1.375-3.914-2.13-6.143-2.149h-137.8c-1.51 0.02-2.997 0.378-4.351 1.049-1.353 0.671-2.539 1.637-3.47 2.827-0.93 1.19-1.582 2.573-1.908 4.048-0.325 1.475-0.315 3.005 0.029 4.476l50.1 208.8 159.8 0.4-52.7-214z" fill="#61656D"/>
<path d="m623.6 848.8h-216.3c-3.977 0-7.2 3.221-7.2 7.195s3.223 7.195 7.2 7.195h216.3c3.976 0 7.2-3.221 7.2-7.195s-3.224-7.195-7.2-7.195z" fill="#61656D"/>
<path d="m462.9 848.8h-184.5c-3.976 0-7.2 3.221-7.2 7.195s3.224 7.195 7.2 7.195h184.5c3.977 0 7.2-3.221 7.2-7.195s-3.223-7.195-7.2-7.195z" fill="#858990"/>
<path d="m490.7 853.5c0.463 1.298 0.549 2.701 0.248 4.046s-0.976 2.577-1.948 3.554c-0.671 0.668-1.466 1.198-2.341 1.558s-1.813 0.545-2.759 0.542h-205.5c-0.89-0.011-1.77-0.18-2.6-0.5l3.6-13.9h204.5c1.485-0.039 2.945 0.394 4.168 1.239 1.222 0.845 2.144 2.058 2.632 3.461z" fill="#858990"/>
<path d="m303.1 852.8 12.2-46.7h1.6l-11.9 46.7h-1.9z" fill="#858990"/>
<path d="m448.1 778.6c-0.69-4.586-2.991-8.777-6.492-11.819-3.5-3.042-7.971-4.737-12.608-4.781h-10.4l-4.1 1v0.7l-88.2 11.2c-5.409 0.696-10.487 2.99-14.584 6.589-4.097 3.598-7.028 8.337-8.416 13.611l-61.5 236.5h14.9l60.5-232.8c0.662-2.509 2.049-4.768 3.988-6.493 1.938-1.725 4.343-2.841 6.912-3.207l99.9-12.8c1.377-0.171 2.766 0.204 3.869 1.045 1.103 0.842 1.832 2.082 2.031 3.455l38.2 250.7h14.5l-38.5-252.9z" fill="#858990"/>
<path d="m247.3 1031.5h-14.9l61.5-236.5c1.389-5.274 4.319-10.013 8.416-13.612 4.098-3.598 9.176-5.892 14.584-6.588l99.9-12.7c5.088-0.686 10.24 0.662 14.34 3.751s6.817 7.67 7.56 12.749l38.5 252.9h-14.5l-38.2-250.7c-0.198-1.373-0.928-2.614-2.031-3.455s-2.492-1.217-3.869-1.045l-99.8 12.7c-2.587 0.348-5.013 1.455-6.971 3.182-1.958 1.726-3.36 3.994-4.029 6.518l-60.5 232.8z" fill="#B1B5BA"/>
<g opacity=".1">
<path d="m964.2 321.9h-50v46.8h50v-46.8z" fill="#000" opacity=".1"/>
</g>
<path d="m1230.1 250.9h-388.4v257.57h388.4v-257.57z" fill="#fff"/>
<path d="m1235.9 250.9h-5.8v257.57h5.8v-257.57z" fill="#E2E2E2"/>
<path d="m1220.4 261.1h-367.6v238.2h367.6v-238.2z" fill="#ECECEC"/>
<path d="m859.9 261.1h-7.1v238.2h7.1v-238.2z" fill="#E2E2E2"/>
<path d="m960.3 315.7h-50v46.8h50v-46.8z" fill="#fff"/>
<path d="m953 330.6h-36.5c-0.387 0-0.7 0.313-0.7 0.7v0.04c0 0.386 0.313 0.7 0.7 0.7h36.5c0.386 0 0.7-0.314 0.7-0.7v-0.04c0-0.387-0.314-0.7-0.7-0.7z" fill="#ECECEC"/>
<path d="m953 338h-36.5c-0.387 0-0.7 0.313-0.7 0.7v0.04c0 0.387 0.313 0.7 0.7 0.7h36.5c0.386 0 0.7-0.313 0.7-0.7v-0.04c0-0.387-0.314-0.7-0.7-0.7z" fill="#ECECEC"/>
<path d="m953 345.3h-36.5c-0.387 0-0.7 0.313-0.7 0.7v0.04c0 0.386 0.313 0.7 0.7 0.7h36.5c0.386 0 0.7-0.314 0.7-0.7v-0.04c0-0.387-0.314-0.7-0.7-0.7z" fill="#ECECEC"/>
<path d="m948.1 352.7h-27.8c-0.387 0-0.7 0.314-0.7 0.7v0.04c0 0.387 0.313 0.7 0.7 0.7h27.8c0.386 0 0.7-0.313 0.7-0.7v-0.04c0-0.386-0.314-0.7-0.7-0.7z" fill="#ECECEC"/>
<g opacity=".1">
<path d="m946.2 407.6h56.401v52.8s-34.301 9.8-44.201-0.2-12.2-52.6-12.2-52.6z" fill="#000" opacity=".1"/>
</g>
<path d="m943.7 404.3h56.401v52.8s-35.601 0-45.101-9.4-11.3-43.4-11.3-43.4z" fill="#fff"/>
<path d="m991.8 421.2h-41.1c-0.441 0-0.8 0.358-0.8 0.8v0.02c0 0.442 0.359 0.8 0.8 0.8h41.1c0.442 0 0.8-0.358 0.8-0.8v-0.02c0-0.442-0.358-0.8-0.8-0.8z" fill="#ECECEC"/>
<path d="m991.8 423.7h-41.1c-0.441 0-0.8 0.358-0.8 0.8v0.02c0 0.442 0.359 0.8 0.8 0.8h41.1c0.442 0 0.8-0.358 0.8-0.8v-0.02c0-0.442-0.358-0.8-0.8-0.8z" fill="#ECECEC"/>
<path d="m991.8 437.8h-41.1c-0.441 0-0.8 0.358-0.8 0.8v0.02c0 0.442 0.359 0.8 0.8 0.8h41.1c0.442 0 0.8-0.358 0.8-0.8v-0.02c0-0.442-0.358-0.8-0.8-0.8z" fill="#ECECEC"/>
<path d="m986.4 446.1h-31.4c-0.442 0-0.8 0.358-0.8 0.8v0.02c0 0.441 0.358 0.8 0.8 0.8h31.4c0.442 0 0.8-0.359 0.8-0.8v-0.02c0-0.442-0.358-0.8-0.8-0.8z" fill="#ECECEC"/>
<path d="m1145 384.5h-58.3v58.31h58.3v-58.31z" fill="#000" opacity=".1"/>
<path d="m1138.6 379.1h-58.3v58.31h58.3v-58.31z" fill="#fff"/>
<path d="m1112 387c0 0.69-0.28 1.351-0.76 1.838-0.49 0.488-1.15 0.762-1.84 0.762-0.67-0.026-1.31-0.311-1.78-0.796-0.46-0.485-0.72-1.131-0.72-1.804 0-0.663 0.26-1.299 0.73-1.768s1.11-0.732 1.77-0.732c0.67 0 1.32 0.26 1.8 0.726 0.49 0.466 0.77 1.102 0.8 1.774z" fill="#000" opacity=".15"/>
<path d="m973.8 410.2c0 0.663-0.264 1.299-0.732 1.768-0.469 0.469-1.105 0.732-1.768 0.732s-1.299-0.263-1.768-0.732-0.732-1.105-0.732-1.768 0.263-1.299 0.732-1.768c0.469-0.468 1.105-0.732 1.768-0.732s1.299 0.264 1.768 0.732c0.468 0.469 0.732 1.105 0.732 1.768z" fill="#000" opacity=".15"/>
<path d="m980.2 293.1s40.101-7.4 50.201 2.6 6.5 54.1 6.5 54.1h-56.701v-56.7z" fill="#000" opacity=".1"/>
<path d="m973.7 285s33.801-4.8 43.801 5.2 12.8 51.5 12.8 51.5h-56.601v-56.7z" fill="#E2E2E2"/>
<path d="m936.1 321.4c0 0.504-0.2 0.987-0.556 1.343-0.357 0.356-0.84 0.557-1.344 0.557-0.245 0-0.487-0.05-0.713-0.146-0.225-0.097-0.428-0.239-0.596-0.416-0.169-0.178-0.299-0.389-0.384-0.619-0.084-0.23-0.12-0.475-0.107-0.719 0-0.478 0.19-0.936 0.527-1.273 0.338-0.338 0.796-0.527 1.273-0.527 0.487-1e-3 0.956 0.185 1.31 0.52 0.353 0.335 0.565 0.793 0.59 1.28z" fill="#000" opacity=".15"/>
<path d="m1004 290.2c-0.03 0.513-0.25 0.996-0.62 1.35s-0.87 0.551-1.38 0.55c-0.51 0-0.99-0.2-1.35-0.556-0.35-0.357-0.55-0.84-0.55-1.344-0.02-0.258 0.02-0.515 0.11-0.758 0.09-0.242 0.23-0.463 0.41-0.65 0.18-0.188 0.39-0.337 0.63-0.438 0.23-0.102 0.49-0.154 0.75-0.154 0.53 0 1.04 0.211 1.41 0.586 0.38 0.375 0.59 0.884 0.59 1.414z" fill="#000" opacity=".15"/>
<path d="m1018.8 299.8h-32.9c-1.271 0-2.3 1.025-2.3 2.29s1.029 2.29 2.3 2.29h32.9c1.27 0 2.3-1.025 2.3-2.29s-1.03-2.29-2.3-2.29z" fill="#B1B5BA"/>
<path d="m1020.4 311.2h-36.1c-0.387 0-0.7 0.296-0.7 0.66 0 0.365 0.313 0.66 0.7 0.66h36.1c0.39 0 0.7-0.295 0.7-0.66 0-0.364-0.31-0.66-0.7-0.66z" fill="#B1B5BA"/>
<path d="m1020.4 319.4h-36.1c-0.387 0-0.7 0.296-0.7 0.66 0 0.365 0.313 0.66 0.7 0.66h36.1c0.39 0 0.7-0.295 0.7-0.66 0-0.364-0.31-0.66-0.7-0.66z" fill="#B1B5BA"/>
<path d="m1020.4 327.6h-36.1c-0.387 0-0.7 0.295-0.7 0.66 0 0.364 0.313 0.66 0.7 0.66h36.1c0.39 0 0.7-0.296 0.7-0.66 0-0.365-0.31-0.66-0.7-0.66z" fill="#B1B5BA"/>
<path d="m1124.9 399.4h-36.1c-0.39 0-0.7 0.296-0.7 0.66 0 0.365 0.31 0.66 0.7 0.66h36.1c0.39 0 0.7-0.295 0.7-0.66 0-0.364-0.31-0.66-0.7-0.66z" fill="#B1B5BA"/>
<path d="m1124.9 407.6h-36.1c-0.39 0-0.7 0.295-0.7 0.66 0 0.364 0.31 0.66 0.7 0.66h36.1c0.39 0 0.7-0.296 0.7-0.66 0-0.365-0.31-0.66-0.7-0.66z" fill="#B1B5BA"/>
<path d="m1119.9 415.8h-31.1c-0.39 0-0.7 0.295-0.7 0.66 0 0.364 0.31 0.66 0.7 0.66h31.1c0.39 0 0.7-0.296 0.7-0.66 0-0.365-0.31-0.66-0.7-0.66z" fill="#B1B5BA"/>
<path d="m1192.8 301.2h-100.6v46.68h100.6v-46.68z" fill="#000" opacity=".1"/>
<path d="m1188.7 297.1h-100.6v46.68h100.6v-46.68z" fill="#E2E2E2"/>
<path d="m1396.4 1032.7h-1199.7c-0.16 0-0.312-0.06-0.425-0.18-0.112-0.11-0.175-0.26-0.175-0.42s0.063-0.31 0.175-0.42c0.113-0.12 0.265-0.18 0.425-0.18h1199.8c0.16 0 0.31 0.06 0.42 0.18 0.12 0.11 0.18 0.26 0.18 0.42 0 0.4-0.3 0.6-0.7 0.6z" fill="#B2B6BB"/>
<path d="m384.8 523.6h110.1v-152.33h-110.1v152.33z" fill="#fff"/>
<path d="m399.5 509.5h80.7v-124.13h-80.7v124.13z" fill="#ddd"/>
<path d="m498.2 371.2h-3.2v152.33h3.2v-152.33z" fill="#DADDDF"/>
<path d="m421 489.3h37.8v-59.99h-37.8v59.99z" fill="#B1B5BA"/>
<path class="change-color-in-svg" d="m439.9 421.8c4.942 0 9.683-1.956 13.188-5.442 3.504-3.485 5.485-8.216 5.512-13.158h-37.3c0 4.933 1.959 9.664 5.448 13.152 3.488 3.489 8.219 5.448 13.152 5.448z" fill="#8fbcbb"/>
<path d="m1114.8 717.1-15.9-78" stroke="#868A91" stroke-miterlimit="10" stroke-width=".46275"/>
<path d="m1119.2 612.8-2.2 101.4" stroke="#868A91" stroke-miterlimit="10" stroke-width=".46275"/>
<path d="m1142.3 631.6-24.2 30.4" stroke="#868A91" stroke-miterlimit="10" stroke-width=".46275"/>
<path d="m1126.8 736.5-2.4-3.6c-2.4-3.615-3.69-7.859-3.7-12.2v-8.6h-9.3v8.6c0.03 4.332-1.22 8.576-3.6 12.2l-2.4 3.6c-2.47 3.765-4.14 8.001-4.89 12.44-0.76 4.44-0.59 8.988 0.49 13.36l2.7 10.7h24.8l2.7-10.7c1.08-4.372 1.25-8.92 0.49-13.36-0.75-4.439-2.42-8.675-4.89-12.44z" fill="#61656D"/>
<path d="m1126.8 736.5-2.4-3.6c-2.4-3.615-3.69-7.859-3.7-12.2v-8.6h-2.6v8.6c0.07 4.209 1.09 8.347 3 12.1l2.8 5.2c6.8 15.4-6.1 35-6.1 35h10.7l2.7-10.7c1.08-4.372 1.25-8.92 0.49-13.36-0.75-4.439-2.42-8.675-4.89-12.44z" fill="#000" opacity=".2"/>
<path d="m1108.6 686.6 28.8-23.8" stroke="#868A91" stroke-miterlimit="10" stroke-width=".46275"/>
<path d="m1086.9 681.3 25.5 24" stroke="#868A91" stroke-miterlimit="10" stroke-width=".46275"/>
<path class="change-color-in-svg" d="m1127.9 649.7 4-17.5c0.32-1.427 1-2.749 1.97-3.841 0.98-1.091 2.21-1.916 3.6-2.396 1.38-0.481 2.86-0.601 4.3-0.35 1.44 0.252 2.79 0.867 3.93 1.787 1.15 0.904 2.04 2.084 2.61 3.43 0.56 1.346 0.77 2.813 0.61 4.263s-0.69 2.836-1.53 4.027c-0.84 1.19-1.97 2.147-3.29 2.78l-16.2 7.8z" fill="#8fbcbb"/>
<path d="m1127.9 649.7 4-17.5c0.32-1.427 1-2.749 1.97-3.841 0.98-1.091 2.21-1.916 3.6-2.396 1.38-0.481 2.86-0.601 4.3-0.35 1.44 0.252 2.79 0.867 3.93 1.787 1.15 0.904 2.04 2.084 2.61 3.43 0.56 1.346 0.77 2.813 0.61 4.263s-0.69 2.836-1.53 4.027c-0.84 1.19-1.97 2.147-3.29 2.78l-16.2 7.8z" fill="#fff" opacity=".3"/>
<path class="change-color-in-svg" d="m1149 634.3c-0.04 1.595-0.52 3.147-1.38 4.487-0.87 1.34-2.08 2.417-3.52 3.113l-16.2 7.8 17.8-22.3c1.06 0.807 1.91 1.853 2.48 3.053s0.86 2.518 0.82 3.847z" fill="#8fbcbb"/>
<path class="change-color-in-svg" d="m1118.7 641.9-11.4-23.6c-0.95-1.936-1.39-4.083-1.28-6.238 0.1-2.154 0.76-4.246 1.9-6.077s2.73-3.342 4.62-4.389c1.88-1.047 4-1.596 6.16-1.596 2.15 8e-3 4.25 0.559 6.13 1.6 1.87 1.042 3.45 2.541 4.59 4.358s1.79 3.893 1.91 6.033c0.12 2.141-0.3 4.277-1.23 6.209l-11.4 23.7z" fill="#8fbcbb"/>
<path d="m1118.7 641.9-11.4-23.6c-0.95-1.936-1.39-4.083-1.28-6.238 0.1-2.154 0.76-4.246 1.9-6.077s2.73-3.342 4.62-4.389c1.88-1.047 4-1.596 6.16-1.596 2.15 8e-3 4.25 0.559 6.13 1.6 1.87 1.042 3.45 2.541 4.59 4.358s1.79 3.893 1.91 6.033c0.12 2.141-0.3 4.277-1.23 6.209l-11.4 23.7z" fill="#fff" opacity=".3"/>
<path d="m1119.2 600.1-0.5 41.8 11.4-23.7c0.92-1.888 1.35-3.976 1.26-6.073-0.1-2.097-0.71-4.137-1.8-5.935-1.08-1.798-2.6-3.297-4.4-4.361-1.81-1.064-3.86-1.659-5.96-1.731z" fill="#fff" opacity=".3"/>
<path class="change-color-in-svg" d="m1106 673.5-16.6-19.8c-1.37-1.614-2.31-3.55-2.73-5.627s-0.3-4.225 0.34-6.245c0.64-2.019 1.78-3.843 3.32-5.3s3.42-2.499 5.47-3.028c2.06-0.536 4.21-0.539 6.27-0.01s3.94 1.574 5.48 3.034c1.54 1.461 2.69 3.291 3.33 5.316 0.63 2.025 0.75 4.18 0.32 6.26l-5.2 25.4z" fill="#8fbcbb"/>
<path d="m1111.2 648.1c0.43-2.08 0.31-4.235-0.32-6.26-0.64-2.025-1.78-3.855-3.33-5.316-1.54-1.46-3.42-2.505-5.48-3.034s-4.21-0.526-6.27 0.01l10.3 39.9 5.1-25.3z" fill="#fff" opacity=".3"/>
<path class="change-color-in-svg" d="m1103.7 697.1-7.6-19c-0.63-1.537-1.63-2.89-2.92-3.936s-2.83-1.751-4.46-2.049c-1.63-0.299-3.31-0.182-4.89 0.339-1.58 0.522-3 1.432-4.13 2.646-1.14 1.222-1.95 2.716-2.36 4.34-0.4 1.625-0.38 3.325 0.06 4.939s1.29 3.088 2.46 4.282c1.18 1.194 2.63 2.068 4.24 2.539l19.6 5.9z" fill="#8fbcbb"/>
<path d="m1103.7 697.1-7.6-19c-0.63-1.537-1.63-2.89-2.92-3.936s-2.83-1.751-4.46-2.049c-1.63-0.299-3.31-0.182-4.89 0.339-1.58 0.522-3 1.432-4.13 2.646-1.14 1.222-1.95 2.716-2.36 4.34-0.4 1.625-0.38 3.325 0.06 4.939s1.29 3.088 2.46 4.282c1.18 1.194 2.63 2.068 4.24 2.539l19.6 5.9z" fill="#fff" opacity=".3"/>
<path d="m1080 674.8 23.6 22.3h0.1l-7.6-19c-0.6-1.52-1.56-2.867-2.81-3.918s-2.74-1.774-4.34-2.102c-1.6-0.327-3.26-0.25-4.82 0.225-1.56 0.474-2.98 1.332-4.13 2.495z" fill="#fff" opacity=".3"/>
<path class="change-color-in-svg" d="m1116.3 680.5 8.3-20c0.67-1.636 1.74-3.077 3.11-4.184 1.38-1.108 3.02-1.847 4.76-2.147s3.53-0.152 5.2 0.431c1.66 0.583 3.16 1.581 4.33 2.9 1.19 1.313 2.03 2.909 2.43 4.636 0.4 1.726 0.35 3.527-0.14 5.23s-1.41 3.253-2.67 4.501c-1.26 1.249-2.81 2.155-4.52 2.633l-20.8 6z" fill="#8fbcbb"/>
<path d="m1116.3 680.5 8.3-20c0.67-1.636 1.74-3.077 3.11-4.184 1.38-1.108 3.02-1.847 4.76-2.147s3.53-0.152 5.2 0.431c1.66 0.583 3.16 1.581 4.33 2.9 1.19 1.313 2.03 2.909 2.43 4.636 0.4 1.726 0.35 3.527-0.14 5.23s-1.41 3.253-2.67 4.501c-1.26 1.249-2.81 2.155-4.52 2.633l-20.8 6z" fill="#fff" opacity=".3"/>
<path d="m1117.1 704.8 39.3-21.6" stroke="#868A91" stroke-miterlimit="10" stroke-width=".46275"/>
<path class="change-color-in-svg" d="m1123.5 701.2 14.3-19.5c1.17-1.584 2.72-2.845 4.51-3.669s3.76-1.182 5.72-1.043c1.97 0.14 3.87 0.773 5.52 1.842 1.66 1.068 3.01 2.537 3.95 4.27 0.93 1.743 1.41 3.695 1.38 5.671-0.03 1.977-0.56 3.915-1.53 5.632-0.98 1.718-2.38 3.16-4.07 4.191-1.68 1.031-3.61 1.618-5.58 1.706l-24.2 0.9z" fill="#8fbcbb"/>
<path d="m1123.5 701.2 14.3-19.5c1.17-1.584 2.72-2.845 4.51-3.669s3.76-1.182 5.72-1.043c1.97 0.14 3.87 0.773 5.52 1.842 1.66 1.068 3.01 2.537 3.95 4.27 0.93 1.743 1.41 3.695 1.38 5.671-0.03 1.977-0.56 3.915-1.53 5.632-0.98 1.718-2.38 3.16-4.07 4.191-1.68 1.031-3.61 1.618-5.58 1.706l-24.2 0.9z" fill="#fff" opacity=".3"/>
<path class="change-color-in-svg" d="m1157.9 693.4c-0.9 1.977-2.33 3.668-4.13 4.886-1.8 1.217-3.9 1.914-6.07 2.014l-24.2 0.9 34-18.1c0.85 1.572 1.33 3.318 1.4 5.103 0.06 1.786-0.28 3.563-1 5.197z" fill="#8fbcbb"/>
<path d="m1124.6 660.5-8.3 20 25.7-23c-1.17-1.319-2.67-2.317-4.33-2.9-1.67-0.583-3.46-0.731-5.2-0.431s-3.38 1.039-4.76 2.147c-1.37 1.107-2.44 2.548-3.11 4.184z" fill="#fff" opacity=".3"/>
<path d="m1263.9 781.8h-11.6l34.9 249.7h4.5l-27.8-249.7z" fill="#B1B5BA"/>
<path d="m1033 1031.5h4.5l34.9-249.7h-11.6l-27.8 249.7z" fill="#B1B5BA"/>
<path d="m1291.7 1031.5h-2l-29.9-242.7c-0.07-0.842-0.44-1.63-1.05-2.218s-1.41-0.937-2.25-0.982l-3.8-0.4-0.4-3.4h11.6l27.8 249.7z" fill="#858990"/>
<path d="m1035.9 1031.5 31.1-242.4c0.1-0.881-0.14-1.766-0.65-2.485-0.52-0.72-1.28-1.223-2.15-1.415l-3.7-0.7 0.3-2.7h11.6l-34.8 249.7h-1.7z" fill="#858990"/>
<path d="m1299.6 781.8h-11.6l34.9 249.7h4.5l-27.8-249.7z" fill="#B1B5BA"/>
<path d="m1068.7 1031.5h4.6l34.9-249.7h-11.6l-27.9 249.7z" fill="#B1B5BA"/>
<path d="m1327.4 1031.5h-1.9l-11.7-88.499-3.6-2.1-21.7-155.7-0.5-3.4h11.6l27.8 249.7z" fill="#858990"/>
<path d="m1071.6 1031.5 11.3-87.799-4.1-2.8 17.8-159.1h11.6l-34.9 249.7h-1.7z" fill="#858990"/>
<path d="m1075.1 777.3c0 1.177 0.46 2.306 1.28 3.148 0.82 0.841 1.94 1.326 3.12 1.352h239.3c1.07-0.16 2.04-0.697 2.74-1.514 0.7-0.816 1.09-1.858 1.09-2.936 0-1.077-0.39-2.119-1.09-2.936-0.7-0.816-1.67-1.353-2.74-1.514h-239.3c-0.58 0-1.15 0.114-1.68 0.335-0.54 0.221-1.02 0.546-1.43 0.954-0.41 0.409-0.73 0.894-0.96 1.428-0.22 0.533-0.33 1.106-0.33 1.683z" fill="#858990"/>
<path d="m1040.3 777.3c0 1.177 0.46 2.306 1.28 3.148 0.83 0.841 1.94 1.326 3.12 1.352h189.6c1.07-0.16 2.04-0.697 2.74-1.514 0.71-0.816 1.09-1.858 1.09-2.936 0-1.077-0.38-2.119-1.09-2.936-0.7-0.816-1.67-1.353-2.74-1.514h-189.6c-1.17 0-2.29 0.464-3.11 1.289-0.83 0.825-1.29 1.944-1.29 3.111z" fill="#B1B5BA"/>
<path d="m1172.2 754.7h69.6v18.2h-69.6c-2.41 0-4.73-0.959-6.43-2.665-1.71-1.707-2.67-4.021-2.67-6.435 0-2.413 0.96-4.728 2.67-6.434 1.7-1.707 4.02-2.666 6.43-2.666z" fill="#858990"/>
<path d="m1236 772.9h35.2v-2.6h-10.9v-12.9h10.9v-2.7h-35.2c-2.41 0-4.73 0.959-6.43 2.666-1.71 1.706-2.67 4.021-2.67 6.434 0 2.414 0.96 4.728 2.67 6.435 1.7 1.706 4.02 2.665 6.43 2.665z" fill="#61656D"/>
<path d="m1268.6 770.2h-32.5c-1.7 0-3.33-0.674-4.53-1.874-1.2-1.201-1.87-2.828-1.87-4.526 0-1.697 0.67-3.325 1.87-4.525 1.2-1.201 2.83-1.875 4.53-1.875h32.5v12.8z" fill="#fff"/>
<path d="m1161.8 740.7h58.1v14h-58.1c-0.64 0-1.25-0.253-1.7-0.703s-0.7-1.06-0.7-1.697v-9.2c0-0.636 0.25-1.247 0.7-1.697s1.06-0.703 1.7-0.703z" fill="#B1B5BA"/>
<path d="m1194.8 745.4h-20c-0.55 0-1 0.448-1 1v3.09c0 0.553 0.45 1 1 1h20c0.55 0 1-0.447 1-1v-3.09c0-0.552-0.45-1-1-1z" fill="#858990"/>
<path d="m1242.4 754.7h-31.6c-0.64 0-1.25-0.253-1.7-0.703s-0.7-1.06-0.7-1.697v-9.2c0-0.636 0.25-1.247 0.7-1.697s1.06-0.703 1.7-0.703h31.6v14z" fill="#858990"/>
<path d="m1242.4 752.6h-30.7c-0.32 0-0.62-0.127-0.85-0.352-0.22-0.225-0.35-0.53-0.35-0.848v-7.5c0-0.319 0.13-0.624 0.35-0.849 0.23-0.225 0.53-0.351 0.85-0.351h30.7v9.9z" fill="#fff"/>
<path d="m1260.3 740.7h-68.7v-14h68.7c0.88 0 1.72 0.348 2.34 0.967 0.61 0.619 0.96 1.458 0.96 2.333v7.5c-0.02 0.858-0.38 1.672-1 2.269-0.62 0.598-1.44 0.932-2.3 0.931z" fill="#61656D"/>
<path d="m1168.1 728.8h31.6c0.32 0 0.63 0.126 0.85 0.351 0.23 0.225 0.35 0.531 0.35 0.849v7.5c0 0.318-0.12 0.623-0.35 0.848-0.22 0.225-0.53 0.352-0.85 0.352h-31.6v-9.9z" fill="#fff"/>
<path d="m1200.6 726.7h-34.8v2.1h33.9c0.15-0.014 0.31 4e-3 0.45 0.053 0.15 0.049 0.28 0.128 0.39 0.232 0.12 0.103 0.21 0.229 0.27 0.37 0.06 0.14 0.09 0.292 0.09 0.445v7.6c0 0.153-0.03 0.305-0.09 0.446-0.06 0.14-0.15 0.266-0.27 0.37-0.11 0.103-0.24 0.182-0.39 0.231-0.14 0.049-0.3 0.067-0.45 0.053h-33.9v2.1h34.8c0.64 0 1.25-0.253 1.7-0.703s0.7-1.06 0.7-1.697v-9.2c0-0.636-0.25-1.247-0.7-1.697s-1.06-0.703-1.7-0.703z" fill="#858990"/>
<path class="change-color-in-svg" d="m903 728.3 91.4-71.5c5.802-4.61 10.472-10.483 13.662-17.172 3.19-6.69 4.81-14.018 4.74-21.428v-139.7h-132.2l-0.2 3.7v-3.7h-132.3v139.7c-0.072 7.41 1.548 14.738 4.737 21.428 3.188 6.689 7.861 12.562 13.663 17.172l91.5 71.5c1.915 1.536 3.458 3.486 4.515 5.702 1.056 2.216 1.598 4.643 1.585 7.098 5e-3 2.44-0.541 4.849-1.597 7.048s-2.596 4.131-4.503 5.652l-91.5 71.5c-5.802 4.61-10.475 10.483-13.663 17.172-3.189 6.69-4.809 14.018-4.737 21.428v139.7h132.3v-3.6l0.2 3.7h132.2v-139.8c0-15.2-6.8-29.6-18.402-38.6l-91.4-71.5c-1.924-1.506-3.476-3.435-4.533-5.637-1.058-2.203-1.594-4.62-1.567-7.063-0.035-2.459 0.497-4.893 1.555-7.113s2.613-4.166 4.545-5.687z" fill="#8fbcbb"/>
<path d="m903 728.3 91.4-71.5c5.802-4.61 10.472-10.483 13.662-17.172 3.19-6.69 4.81-14.018 4.74-21.428v-139.7h-132.2l-0.2 3.7v-3.7h-132.3v139.7c-0.072 7.41 1.548 14.738 4.737 21.428 3.188 6.689 7.861 12.562 13.663 17.172l91.5 71.5c1.915 1.536 3.458 3.486 4.515 5.702 1.056 2.216 1.598 4.643 1.585 7.098 5e-3 2.44-0.541 4.849-1.597 7.048s-2.596 4.131-4.503 5.652l-91.5 71.5c-5.802 4.61-10.475 10.483-13.663 17.172-3.189 6.69-4.809 14.018-4.737 21.428v139.7h132.3v-3.6l0.2 3.7h132.2v-139.8c0-15.2-6.8-29.6-18.402-38.6l-91.4-71.5c-1.924-1.506-3.476-3.435-4.533-5.637-1.058-2.203-1.594-4.62-1.567-7.063-0.035-2.459 0.497-4.893 1.555-7.113s2.613-4.166 4.545-5.687z" fill="#fff" opacity=".6"/>
<path d="m898.5 733.9c0.996-2.193 2.505-4.114 4.4-5.6l60.6-47.3c5.416-8.186 8.302-17.785 8.3-27.6v-174.9h-91.2l-0.2 3.7v-3.7h-132.3v139.7c-0.072 7.41 1.548 14.738 4.737 21.428 3.188 6.689 7.861 12.562 13.663 17.172l91.5 71.5c1.915 1.536 3.458 3.486 4.515 5.702 1.056 2.216 1.598 4.643 1.585 7.098-5e-3 2.467-0.587 4.899-1.7 7.1-0.996 2.193-2.505 4.114-4.4 5.6l-91.5 71.5c-3.951 3.114-7.392 6.825-10.2 11-5.38 8.197-8.232 17.795-8.2 27.6v139.7h132.3v-3.6l0.2 3.7h91.2l-0.2-154.4c0-25.5-2.2-43.4-17.2-55.1l-51.4-40.4c-9.3-7.7-5.1-18.4-5.1-18.4 0.112-0.531 0.315-1.038 0.6-1.5z" fill="#fff" opacity=".4"/>
<path d="m1012.9 1003.7h-262.5v8.67h262.5v-8.67z" fill="#000" opacity=".5"/>
<path class="change-color-in-svg" d="m977.3 537.1c-24.2 0-46.6 26.9-97 38.7-26.3 7-59.1 6-99.1-1.8-2.252-0.426-4.57-0.351-6.79 0.22-2.219 0.572-4.286 1.626-6.052 3.086-1.766 1.461-3.189 3.293-4.167 5.366s-1.487 4.336-1.491 6.628v27.9c-5e-3 5.572 1.263 11.073 3.706 16.081 2.444 5.008 5.999 9.393 10.394 12.819 65.1 51.3 69.8 52.4 91.6 70.3 1.749 1.495 3.154 3.35 4.121 5.439 0.966 2.088 1.471 4.36 1.479 6.661v192.8c0.021 12.593-4.897 24.693-13.7 33.7l-28 35.8-10 12.8h116.5l-40.4-50.4c-6.955-7.266-10.826-16.943-10.8-27v-196.2c9e-3 -2.291 0.504-4.555 1.452-6.64 0.948-2.086 2.328-3.947 4.048-5.46 21.8-18.4-2 3 91-71.4 4.305-3.466 7.779-7.851 10.167-12.835s3.63-10.439 3.633-15.965v-57.5c0.1-11.1-4.4-23.1-20.6-23.1z" fill="#8fbcbb" opacity=".5"/>
<path d="m1038.9 1031.6h-279.7c-7.3 0-13.2-6.2-13.2-14 0-7.7 5.9-14 13.2-14h279.7c7.3 0 13.3 6.3 13.3 14 0 7.8-6 14-13.3 14z" fill="#21252B"/>
<path d="m1021.2 1031.6h-279.7c-7.3 0-13.2-6.2-13.2-14 0-7.7 5.9-14 13.2-14h279.7c7.3 0 13.2 6.3 13.2 14 0 7.8-5.9 14-13.2 14z" fill="#3F4249"/>
<path d="m1038.9 496.3h-279.7c-7.3 0-13.2-6.3-13.2-14s5.9-14 13.2-14h279.7c7.3 0 13.3 6.3 13.3 14s-6 14-13.3 14z" fill="#21252B"/>
<path d="m1021.2 496.3h-279.7c-7.3 0-13.2-6.3-13.2-14s5.9-14 13.2-14h279.7c7.3 0 13.2 6.3 13.2 14s-5.9 14-13.2 14z" fill="#3F4249"/>
<path class="change-color-in-svg" d="m577.7 572.3v-141.7c-0.6-6.6-10.2-34.4-3-46l43.7-11 58.9-1.9c0.3 0.3 32.7 48.9 32.7 48.9l4 151-136.3 0.7z" fill="#8fbcbb"/>
<path d="m689.8 959.8h34.7l0.8 19.9c0.118 2.578 0.818 5.095 2.048 7.364 1.23 2.268 2.957 4.229 5.052 5.736l25.4 18.2-63.6-1.6-4.4-49.6z" fill="#FB9C9C"/>
<path d="m716.1 1003.1 11.5-14c-1.852-4.741-2.704-9.814-2.5-14.9h-34v4.5l19.1 0.6c1.547 0.026 3.022 0.66 4.107 1.763 1.085 1.104 1.693 2.59 1.693 4.137l0.1 17.9z" fill="#000" opacity=".15"/>
<path d="m579.5 959.7 33.9-0.1-5.3 48.5h-28.6v-48.4z" fill="#FB9C9C"/>
<path d="m608 1007.9 3.8-33.8h-32.2l0.5 4.2 17.8 0.3c0.868 0.012 1.705 0.329 2.363 0.896 0.658 0.566 1.096 1.347 1.237 2.204l3.5 18.3 3 7.9z" fill="#000" opacity=".15"/>
<path d="m578.2 580.8 136-0.8 12.8 394.1h-37.2l-34.5-323.2c-0.1-0.99-0.564-1.908-1.304-2.573-0.74-0.666-1.701-1.032-2.696-1.027-1.023-0.033-2.021 0.319-2.799 0.985-0.777 0.666-1.277 1.599-1.401 2.615l-32.3 323.2h-37.3l0.7-393.3z" fill="#3F4249"/>
















<path d="m715 581.7 5.7 408.3" opacity=".7" stroke="#61656D" stroke-miterlimit="10"/>
<path d="m576.7 966.1h40.3l-0.8 8h-39.7l0.2-8z" fill="#3F4249"/>
<path d="m601.8 966.1h15.2l-0.8 8-15.5-0.1 1.1-7.9z" fill="#000" opacity=".15"/>
<path d="m687.9 966.1h39.9l0.4 8h-39.4l-0.9-8z" fill="#3F4249"/>
<path d="m727.8 966.1-11.7-0.1v8.1h12.1l-0.4-8z" fill="#000" opacity=".15"/>
<path d="m601.8 966.1 26.8-301.6c1.2-9.8 10-17.2 20.2-17.2h2.8c-1.039-0.031-2.05 0.335-2.83 1.021-0.779 0.687-1.269 1.644-1.37 2.679l-32 315.1h-13.6z" fill="#000" opacity=".2"/>
<path d="m708.1 580.4 8.1 385.4 11.6 0.3-13.4-385.7h-6.3z" fill="#32353A"/>
<path class="change-color-in-svg" d="m576.5 1026.8h34.7c0.788 0.02 1.562-0.21 2.21-0.66 0.647-0.45 1.134-1.09 1.39-1.84 0 0.7 0.1 1.4 0.1 2.1v1.2c-0.052 0.94-0.468 1.82-1.159 2.45-0.691 0.64-1.603 0.98-2.541 0.95h-34.7c-0.468 0.03-0.937-0.04-1.378-0.2s-0.847-0.4-1.192-0.72c-0.345-0.31-0.623-0.7-0.817-1.12-0.194-0.43-0.301-0.89-0.313-1.36v-0.5c0.017-0.9 0.083-1.8 0.2-2.7 0.24 0.73 0.712 1.36 1.345 1.79 0.632 0.43 1.389 0.65 2.155 0.61z" fill="#8fbcbb"/>
<path d="m576.5 1026.8h34.7c0.788 0.02 1.562-0.21 2.21-0.66 0.647-0.45 1.134-1.09 1.39-1.84 0 0.7 0.1 1.4 0.1 2.1v1.2c-0.052 0.94-0.468 1.82-1.159 2.45-0.691 0.64-1.603 0.98-2.541 0.95h-34.7c-0.468 0.03-0.937-0.04-1.378-0.2s-0.847-0.4-1.192-0.72c-0.345-0.31-0.623-0.7-0.817-1.12-0.194-0.43-0.301-0.89-0.313-1.36v-0.5c0.017-0.9 0.083-1.8 0.2-2.7 0.24 0.73 0.712 1.36 1.345 1.79 0.632 0.43 1.389 0.65 2.155 0.61z" fill="#000" opacity=".4"/>
<path class="change-color-in-svg" d="m581.6 990.1 0.8-0.9c3.289-3.131 7.671-4.851 12.211-4.795s8.878 1.884 12.089 5.095l0.5 0.6c0.799 0.78 1.432 1.714 1.862 2.745 0.429 1.031 0.646 2.138 0.638 3.255v3.6c-0.019 2.08 0.319 4.14 1 6.1l3 9.9c0.754 2.36 1.158 4.82 1.2 7.3v1.2c-0.052 0.94-0.468 1.82-1.159 2.45-0.691 0.64-1.603 0.98-2.541 0.95h-34.7c-0.468 0.03-0.937-0.04-1.378-0.2s-0.847-0.4-1.192-0.72c-0.345-0.31-0.623-0.7-0.817-1.12-0.194-0.43-0.301-0.89-0.313-1.36v-0.5c0.025-2.89 0.498-5.76 1.4-8.5l3.5-9.6c0.745-2.23 1.15-4.55 1.2-6.9v-2.7c0.036-1.114 0.294-2.209 0.757-3.221 0.464-1.013 1.124-1.924 1.943-2.679z" fill="#8fbcbb"/>
<path d="m604.2 997.9c0.718 0 1.3-0.582 1.3-1.3s-0.582-1.3-1.3-1.3-1.3 0.582-1.3 1.3 0.582 1.3 1.3 1.3z" fill="#231F20" opacity=".4"/>
<path d="m603.5 1003.1c0.718 0 1.3-0.58 1.3-1.3s-0.582-1.3-1.3-1.3-1.3 0.58-1.3 1.3 0.582 1.3 1.3 1.3z" fill="#231F20" opacity=".4"/>
<path d="m603.1 1006.9c0.718 0 1.3-0.58 1.3-1.3s-0.582-1.3-1.3-1.3-1.3 0.58-1.3 1.3 0.582 1.3 1.3 1.3z" fill="#231F20" opacity=".4"/>
<path d="m603.7 1013c0.718 0 1.3-0.58 1.3-1.3s-0.582-1.3-1.3-1.3-1.3 0.58-1.3 1.3 0.582 1.3 1.3 1.3z" fill="#231F20" opacity=".4"/>
<path d="m603.8 1018.4c0.718 0 1.3-0.58 1.3-1.3s-0.582-1.3-1.3-1.3-1.3 0.58-1.3 1.3 0.582 1.3 1.3 1.3z" fill="#231F20" opacity=".4"/>
<path d="m587.4 1019.5c0.718 0 1.3-0.58 1.3-1.3s-0.582-1.3-1.3-1.3-1.3 0.58-1.3 1.3 0.582 1.3 1.3 1.3z" fill="#231F20" opacity=".4"/>
<path d="m587.2 1014.5c0.718 0 1.3-0.58 1.3-1.3s-0.582-1.3-1.3-1.3-1.3 0.58-1.3 1.3 0.582 1.3 1.3 1.3z" fill="#231F20" opacity=".4"/>
<path d="m587 1008c0.718 0 1.3-0.58 1.3-1.3s-0.582-1.3-1.3-1.3-1.3 0.58-1.3 1.3 0.582 1.3 1.3 1.3z" fill="#231F20" opacity=".4"/>
<path d="m587.4 1001.8c0.718 0 1.3-0.58 1.3-1.3 0-0.719-0.582-1.301-1.3-1.301s-1.3 0.582-1.3 1.301c0 0.72 0.582 1.3 1.3 1.3z" fill="#231F20" opacity=".4"/>
<path d="m587.6 996.9c0.718 0 1.3-0.582 1.3-1.3s-0.582-1.3-1.3-1.3-1.3 0.582-1.3 1.3 0.582 1.3 1.3 1.3z" fill="#231F20" opacity=".4"/>
<path d="m603.7 996.3s-5.9-6.3-16.1-1.1" stroke="#fff" stroke-linecap="round" stroke-miterlimit="10"/>
<path d="m603.5 1001.4s-5.9-6.301-16.1-1" stroke="#fff" stroke-linecap="round" stroke-miterlimit="10"/>
<path d="m603.1 1005.4c-1.5-1.2-9.2-3.6-16.1 1.2" stroke="#fff" stroke-linecap="round" stroke-miterlimit="10"/>
<path d="m603.3 1011.7s-6.7-5.5-16.1 1.1" stroke="#fff" stroke-linecap="round" stroke-miterlimit="10"/>
<path d="m603.8 1016.8s-6.7-5.4-16.1 1.2" stroke="#fff" stroke-linecap="round" stroke-miterlimit="10"/>
<path class="change-color-in-svg" d="m690.2 1026.2 93 0.2c0.211-0.45 0.379-0.92 0.5-1.4 0.094 1.1 0.127 2.2 0.1 3.3-0.047 0.83-0.4 1.62-0.99 2.21s-1.377 0.94-2.21 0.99l-87.4-0.2c-0.415 0-0.827-0.08-1.21-0.25-0.382-0.16-0.729-0.39-1.018-0.69s-0.515-0.66-0.665-1.04c-0.15-0.39-0.22-0.8-0.207-1.22l0.1-1.9z" fill="#8fbcbb"/>
<path d="m690.2 1026.2 93 0.2c0.211-0.45 0.379-0.92 0.5-1.4 0.094 1.1 0.127 2.2 0.1 3.3-0.047 0.83-0.4 1.62-0.99 2.21s-1.377 0.94-2.21 0.99l-87.4-0.2c-0.415 0-0.827-0.08-1.21-0.25-0.382-0.16-0.729-0.39-1.018-0.69s-0.515-0.66-0.665-1.04c-0.15-0.39-0.22-0.8-0.207-1.22l0.1-1.9z" fill="#000" opacity=".4"/>
<path class="change-color-in-svg" d="m778.1 1015.7c-16.6-7.4-30-13.6-42.4-24.6-2.8-2.6-5-4.4-8.7-4.8l-13.9 8.7c-0.852 0.553-1.85 0.838-2.866 0.821-1.015-0.018-2.002-0.339-2.834-0.921l-15-7.9c-2.5-0.2-4.5 3-4.4 5.6l2.2 33.6 93 0.2c2-4.1-2.1-9.4-5.1-10.7z" fill="#8fbcbb"/>
<path d="m761.9 1017.4c0.939 0 1.7-0.76 1.7-1.7s-0.761-1.7-1.7-1.7-1.7 0.76-1.7 1.7 0.761 1.7 1.7 1.7z" fill="#231F20" opacity=".4"/>
<path d="m751.7 1014.6c0.939 0 1.7-0.76 1.7-1.7s-0.761-1.7-1.7-1.7-1.7 0.76-1.7 1.7 0.761 1.7 1.7 1.7z" fill="#231F20" opacity=".4"/>
<path d="m743.2 1008.7c0.939 0 1.7-0.76 1.7-1.7s-0.761-1.7-1.7-1.7-1.7 0.76-1.7 1.7 0.761 1.7 1.7 1.7z" fill="#231F20" opacity=".4"/>
<path d="m735 1002.7c0.939 0 1.7-0.76 1.7-1.7s-0.761-1.7-1.7-1.7-1.7 0.76-1.7 1.7 0.761 1.7 1.7 1.7z" fill="#231F20" opacity=".4"/>
<path d="m727.7 995.4c0.939 0 1.7-0.761 1.7-1.7s-0.761-1.7-1.7-1.7-1.7 0.761-1.7 1.7 0.761 1.7 1.7 1.7z" fill="#231F20" opacity=".4"/>
<path d="m765.1 1011.7-1.1 3.1c-0.078 0.21-0.197 0.4-0.35 0.57-0.153 0.16-0.337 0.3-0.542 0.39-0.204 0.09-0.425 0.14-0.65 0.15s-0.448-0.03-0.658-0.11c-0.213-0.07-0.407-0.19-0.568-0.35-0.16-0.16-0.284-0.35-0.36-0.56-0.077-0.21-0.106-0.44-0.083-0.66 0.022-0.22 0.094-0.44 0.211-0.63l1.6-3 2.5 1.1z" fill="#fff"/>
<path d="m756 1007.4-2.1 4.7c-0.105 0.2-0.247 0.37-0.42 0.51-0.172 0.15-0.371 0.25-0.585 0.32-0.213 0.06-0.437 0.08-0.66 0.06-0.222-0.02-0.438-0.08-0.635-0.19-0.19-0.08-0.36-0.21-0.5-0.36-0.14-0.16-0.246-0.34-0.312-0.54-0.066-0.19-0.09-0.4-0.071-0.61 0.02-0.21 0.082-0.41 0.183-0.59l2.5-4.5 2.6 1.2z" fill="#fff"/>
<path d="m748.4 1002.7-2.9 4c-0.144 0.17-0.321 0.31-0.52 0.41-0.198 0.11-0.416 0.17-0.639 0.19s-0.447-0.01-0.66-0.08-0.411-0.18-0.581-0.32h-0.1c-0.147-0.12-0.269-0.26-0.359-0.43-0.09-0.16-0.146-0.34-0.164-0.53-0.019-0.18 0-0.37 0.056-0.55 0.055-0.18 0.146-0.35 0.267-0.49l2.8-3.8 2.8 1.6z" fill="#fff"/>
<path d="m741 997.7-3.7 3.5c-0.314 0.29-0.724 0.45-1.15 0.45s-0.836-0.16-1.15-0.45c-0.159-0.16-0.28-0.36-0.357-0.57-0.077-0.22-0.107-0.45-0.088-0.675 0.019-0.228 0.087-0.448 0.198-0.647 0.111-0.2 0.263-0.373 0.447-0.508l3.7-2.8 2.1 1.7z" fill="#fff"/>
<path d="m733.7 991.2-3.6 2.8c-0.154 0.14-0.335 0.246-0.532 0.312s-0.405 0.09-0.612 0.071-0.407-0.08-0.589-0.181c-0.182-0.1-0.341-0.237-0.467-0.402-0.144-0.166-0.246-0.364-0.3-0.577-0.053-0.213-0.055-0.435-7e-3 -0.65 0.049-0.214 0.147-0.413 0.288-0.583 0.14-0.169 0.318-0.302 0.519-0.39l4.4-2.1 0.9 1.7z" fill="#fff"/>
<path d="m578.1 566.6h136l0.3 13.8-136.3 0.4v-14.2z" fill="#1A1A1A"/>
<path d="m663.6 566.6h-26.5v14.17h26.5v-14.17z" fill="#61656D"/>
<path d="m662.2 566.6h-23.7v14.17h23.7v-14.17z" fill="#DADDDF"/>
<path class="change-color-in-svg" d="m660.7 451.5-14.9 1.4c0.1 0.1 0.1 0.3 0.1 0.6l0.3 1.2c0.1 0.1 0.1 0.3 0.2 0.5 0 0.053 0.021 0.104 0.059 0.142 0.037 0.037 0.088 0.058 0.141 0.058l1.9 2.2 0.2 0.3c0 0.1 0.1 0.1 0.1 0.2 0.103 0.36 0.103 0.741 0 1.1 5e-3 0.055-2e-3 0.109-0.019 0.161-0.017 0.051-0.045 0.099-0.081 0.139-6e-3 0.077-0.042 0.149-0.1 0.2l-0.7 0.6h-0.3c-0.1 0-0.1 1.3-0.2 1.3 0.543-0.239 1.114-0.407 1.7-0.5 0.406 0.266 0.726 0.643 0.922 1.087 0.195 0.444 0.257 0.935 0.178 1.413l-0.3 1.2c-0.113 0.531-0.384 1.015-0.776 1.39-0.393 0.374-0.889 0.622-1.424 0.71l0.8 1c0.232 0.285 0.372 0.634 0.4 1l0.5 2.6c0.039 0.457-0.065 0.914-0.298 1.309-0.233 0.394-0.583 0.706-1.002 0.891l-9.2 3.8-4.2 1.8-21.3 18.9-4.4-29.6 11.1-9c0.503-0.317 0.943-0.724 1.3-1.2l3.9-4.7c1.623-2.031 3.817-3.528 6.3-4.3l1.2-0.4 27.4-2.6c4 0.2 3 4.8 0.5 5.1z" fill="#8fbcbb"/>
<path class="change-color-in-svg" d="m650.2 463.7-0.3 1.2c-0.113 0.53-0.383 1.014-0.776 1.389-0.392 0.375-0.888 0.622-1.424 0.711l0.8 1c0.233 0.285 0.372 0.633 0.4 1l0.5 2.6c0.04 0.456-0.064 0.914-0.297 1.308s-0.584 0.706-1.003 0.892l-9.2 3.8 2.6-9.3c0.459-1.658 1.334-3.171 2.541-4.396 1.208-1.225 2.708-2.122 4.359-2.604h0.7c0.389 0.257 0.699 0.619 0.893 1.043s0.266 0.894 0.207 1.357z" fill="#8fbcbb"/>
<path class="change-color-in-svg" d="m585.8 515.9h-38.6v-76.1l38.3-0.1 0.3 76.2z" fill="#8fbcbb"/>
<path class="change-color-in-svg" d="m614.1 465.5-66.9 40.6v9.2c0 11.1 9.7 19.6 21.5 19.6 4.783 0.051 9.452-1.459 13.3-4.3l36.4-36.9-4.3-28.2z" fill="#8fbcbb"/>
<path class="change-color-in-svg" d="m616.2 406.4-30.3 11.8-0.3 33.6-38.4 0.4v-32.8c0-14.8 10.1-27.9 26.4-34.4l2.4-0.8 34.4-8.1 3.5 7.4 2.3 22.9z" fill="#8fbcbb"/>
<path class="change-color-in-svg" d="m593.7 477.9-3.7-31.5c-0.2-1.8-2.3-2.9-4.2-2.3-0.592 0.135-1.12 0.465-1.501 0.936-0.381 0.472-0.592 1.058-0.599 1.664l0.4 33.4-11.9 7.6c-1.7 1.1-0.5 3.6 1.3 2.5l20.2-12.3z" fill="#8fbcbb"/>
<path class="change-color-in-svg" d="m585.6 444.6-38.4 0.2v7.4h38.4v-7.6z" fill="#8fbcbb"/>
<path d="m660.7 451.5-14.9 1.4c0.1 0.1 0.1 0.3 0.1 0.6l0.3 1.2c0.1 0.1 0.1 0.3 0.2 0.5 0 0.053 0.021 0.104 0.059 0.142 0.037 0.037 0.088 0.058 0.141 0.058l1.9 2.2 0.2 0.3c0 0.1 0.1 0.1 0.1 0.2 0.103 0.36 0.103 0.741 0 1.1 5e-3 0.055-2e-3 0.109-0.019 0.161-0.017 0.051-0.045 0.099-0.081 0.139-6e-3 0.077-0.042 0.149-0.1 0.2l-0.7 0.6h-0.3c-0.1 0-0.1 1.3-0.2 1.3 0.543-0.239 1.114-0.407 1.7-0.5 0.406 0.266 0.726 0.643 0.922 1.087 0.195 0.444 0.257 0.935 0.178 1.413l-0.3 1.2c-0.113 0.531-0.384 1.015-0.776 1.39-0.393 0.374-0.889 0.622-1.424 0.71l0.8 1c0.232 0.285 0.372 0.634 0.4 1l0.5 2.6c0.039 0.457-0.065 0.914-0.298 1.309-0.233 0.394-0.583 0.706-1.002 0.891l-9.2 3.8-4.2 1.8-21.3 18.9-4.4-29.6 11.1-9c0.503-0.317 0.943-0.724 1.3-1.2l3.9-4.7c1.623-2.031 3.817-3.528 6.3-4.3l1.2-0.4 27.4-2.6c4 0.2 3 4.8 0.5 5.1z" fill="#FC9D9D"/>
<path d="m650.2 463.7-0.3 1.2c-0.113 0.53-0.383 1.014-0.776 1.389-0.392 0.375-0.888 0.622-1.424 0.711l0.8 1c0.233 0.285 0.372 0.633 0.4 1l0.5 2.6c0.04 0.456-0.064 0.914-0.297 1.308s-0.584 0.706-1.003 0.892l-9.2 3.8 2.6-9.3c0.459-1.658 1.334-3.171 2.541-4.396 1.208-1.225 2.708-2.122 4.359-2.604h0.7c0.389 0.257 0.699 0.619 0.893 1.043s0.266 0.894 0.207 1.357z" fill="#000" opacity=".15"/>
<path d="m585.8 515.9h-38.6v-76.1l38.3-0.1 0.3 76.2z" fill="#FC9D9D"/>
<path d="m614.1 465.5-66.9 40.6v9.2c0 11.1 9.7 19.6 21.5 19.6 4.783 0.051 9.452-1.459 13.3-4.3l36.4-36.9-4.3-28.2z" fill="#FC9D9D"/>
<path class="change-color-in-svg" d="m616.2 406.4-30.3 11.8-0.3 33.6-38.4 0.4v-32.8c0-14.8 10.1-27.9 26.4-34.4l2.4-0.8 34.4-8.1 3.5 7.4 2.3 22.9z" fill="#8fbcbb"/>
<path d="m593.7 477.9-3.7-31.5c-0.2-1.8-2.3-2.9-4.2-2.3-0.592 0.135-1.12 0.465-1.501 0.936-0.381 0.472-0.592 1.058-0.599 1.664l0.4 33.4-11.9 7.6c-1.7 1.1-0.5 3.6 1.3 2.5l20.2-12.3z" fill="#000" opacity=".15"/>
<path d="m585.6 444.6-38.4 0.2v7.4h38.4v-7.6z" fill="#fff"/>
<path d="m651.2 482 3.2 2.2 5.6-6.3c0.44-0.498 1.038-0.828 1.693-0.938 0.656-0.109 1.329 0.01 1.907 0.338 0.167 0.098 0.31 0.232 0.419 0.393 0.108 0.16 0.18 0.343 0.208 0.535 0.029 0.192 0.015 0.388-0.042 0.573s-0.154 0.356-0.285 0.499c-2.7 3.4-8.3 10.1-8.4 10.1s-6.9-3.6-6.9-3.6l2.6-3.8z" fill="#FC9D9D"/>
<path d="m649.9 478.6 2.7 1.7 2.9-2.6c0.268-0.241 0.607-0.391 0.967-0.427s0.721 0.044 1.033 0.227h0.1c0.255 0.141 0.477 0.335 0.649 0.57s0.291 0.505 0.348 0.791c0.058 0.286 0.052 0.58-0.017 0.864-0.069 0.283-0.199 0.548-0.38 0.775-1.9 2.5-5 6.5-5.1 6.5s-6.5-3.5-6.5-3.5l3.3-4.9z" fill="#FC9D9D"/>
<path d="m651.2 482 3.2 2.2 5.6-6.3c0.44-0.498 1.038-0.828 1.693-0.938 0.656-0.109 1.329 0.01 1.907 0.338 0.167 0.098 0.31 0.232 0.419 0.393 0.108 0.16 0.18 0.343 0.208 0.535 0.029 0.192 0.015 0.388-0.042 0.573s-0.154 0.356-0.285 0.499c-2.7 3.4-8.3 10.1-8.4 10.1s-6.9-3.6-6.9-3.6l2.6-3.8z" fill="#000" opacity=".15"/>
<path d="m649.9 478.6 2.7 1.7 2.9-2.6c0.268-0.241 0.607-0.391 0.967-0.427s0.721 0.044 1.033 0.227h0.1c0.255 0.141 0.477 0.335 0.649 0.57s0.291 0.505 0.348 0.791c0.058 0.286 0.052 0.58-0.017 0.864-0.069 0.283-0.199 0.548-0.38 0.775-1.9 2.5-5 6.5-5.1 6.5s-6.5-3.5-6.5-3.5l3.3-4.9z" fill="#000" opacity=".15"/>
<path d="m689.1 454.3-34.7 7.1c-1.652 0.447-3.159 1.319-4.37 2.53-1.21 1.211-2.083 2.717-2.53 4.37l-2.8 10c-0.436 1.633-0.363 3.36 0.208 4.95 0.572 1.591 1.616 2.969 2.992 3.95l6.9 4.7c1.5 1 3.1 0.5 4.5-0.7l6.4-5.3c1-0.8 1.5-2.3 0.4-3.1-0.315-0.243-0.702-0.375-1.1-0.375s-0.785 0.132-1.1 0.375l-3.1 2.2c-0.739 0.543-1.658 0.784-2.569 0.672s-1.744-0.567-2.331-1.272l-2.9-3.2c-0.227-0.315-0.332-0.701-0.295-1.088 0.037-0.386 0.213-0.746 0.495-1.012l2.3-1.7c1.4-1.2 4.7-3.1 6.4-2.3l5.6 4.1c1.729 1.397 3.877 2.172 6.1 2.2 2.056 0.088 4.065-0.63 5.6-2 1.2-1 2.8-2.6 3.8-3.5 0.364-0.223 0.775-0.36 1.2-0.4l10.5-1.2-5.6-20z" fill="#FC9D9D"/>
<path d="m786.9 433.1-27.4 28.1-46.1-37.8 22.3-30.7 51.2 40.4z" fill="#FC9D9D"/>
<path class="change-color-in-svg" d="m754.2 407.4-25.8 28.3-18.5-15.1-21.3 16.6-12.4-48 1-17.5h12.1c10.432-0.059 20.665 2.854 29.5 8.4 4.573 2.982 8.948 6.256 13.1 9.8l22.3 17.5z" fill="#8fbcbb"/>
<path d="m750 434.4-13.299 3.7-25.901-20.5c-0.274-0.394-0.67-0.687-1.128-0.835-0.457-0.148-0.949-0.142-1.403 0.017-0.453 0.158-0.842 0.461-1.107 0.862-0.266 0.4-0.392 0.876-0.362 1.356l1 147.6h6.2l-4.099-146 25.199 20.6 15.7-4.2c0.232-0.086 0.438-0.231 0.595-0.421 0.158-0.19 0.262-0.419 0.303-0.663s0.016-0.494-0.071-0.725c-0.088-0.231-0.235-0.435-0.426-0.591-0.359-0.222-0.79-0.294-1.201-0.2z" fill="#000" opacity=".15"/>
<path d="m728.4 435.7-5.8-4.7 25.4-28.6 6.2 5-25.8 28.3z" fill="#fff"/>
<path d="m685.8 454.9 87.7-24.3c23.9-4 28.5 29.8 4.6 33.8l-90.1 10.7-2.2-20.2z" fill="#FC9D9D"/>
<path d="m683.5 475.7-3.1-20.2 6-1.2 3.3 20.6-6.2 0.8z" fill="#3F4249"/>
<path d="m676.7 455.4c-0.077-0.197-0.113-0.407-0.104-0.618s0.063-0.417 0.157-0.606c0.095-0.189 0.228-0.356 0.391-0.489 0.163-0.134 0.353-0.232 0.556-0.287l10.6-2.5c0.37-0.072 0.753-0.011 1.083 0.171 0.329 0.183 0.583 0.477 0.717 0.829v0.2c0.06 0.197 0.079 0.404 0.056 0.608-0.024 0.205-0.089 0.403-0.192 0.581s-0.242 0.333-0.408 0.455c-0.166 0.123-0.355 0.21-0.556 0.256l-10.6 2.299c-0.17 0.062-0.351 0.087-0.532 0.074-0.181-0.012-0.357-0.063-0.517-0.148-0.16-0.084-0.3-0.202-0.412-0.344-0.113-0.142-0.194-0.306-0.239-0.481z" fill="#21252B"/>
<path d="m621.4 372.3-11.5 3.4c0.7 2.9 4.3 6.7 7.1 8.8 13.5 10.3 35 11.7 50.1 0 4.1-3.2 6.5-8.7 7.1-12.8l-10.6-0.3-42.2 0.9z" fill="#fff"/>
<path d="m648.6 278.2c-15.7-0.8-33.1 3.8-33.9 26.4l-1.9 16.9h61.5l1.1-18.4c0-9.7 0-17.4-13.3-22.2-4.329-1.608-8.886-2.519-13.5-2.7z" fill="#1A1A1A"/>
<path d="m665 318.2s-41.9-26.2-43.3 5.8l-0.6 8.4-2.8 41.2c7.2 19 49.1 11.2 47.1-1.1l-2.9-23.4c0.54-2.464 0.808-4.979 0.8-7.5 0.5-12.3 1.7-23.4 1.7-23.4z" fill="#FC9D9D"/>
<path d="m671.8 294.8s12.6 62.9-19.2 67c-27.7 3.7-30.8-39.3-30.8-39.3l0.8-17.3c0.104-2.83 1.315-5.505 3.373-7.45 2.057-1.945 4.796-3.005 7.627-2.95h38.2z" fill="#FC9D9D"/>
<path d="m620.9 334.3s2.7 0.1 4.1-1.1l-4.5 6.9 0.4-5.8z" fill="#000" opacity=".15"/>
<path d="m622.4 317.6s-2-5.8-8.1-3.1-5.6 19 6.2 19.8c6.2 0.5 5-3.1 4-7.9l-2.1-8.8z" fill="#FC9D9D"/>
<path d="m613.8 318.8c0.985-0.703 2.206-0.991 3.401-0.8 0.568 0.118 1.103 0.357 1.57 0.703 0.466 0.345 0.851 0.788 1.13 1.297 0.9 1.3 0.999 2.7 1.199 4.4l0.301 1.4c0 0.5-0.301 0.9-0.601 0.9s-0.899-0.3-0.899-0.6l-0.2-1.5c-0.076-1.239-0.454-2.441-1.101-3.5-0.6-0.9-1.099-1.5-1.699-1.5-0.388-0.082-0.79-0.07-1.173 0.034-0.382 0.105-0.735 0.299-1.027 0.566-0.5 0.2-0.901 0.2-1.101-0.2s0-1.1 0.2-1.2z" fill="#000" opacity=".3"/>
<path d="m664.9 368.8-1.3-12c-2.8 2.8-10.4 6.7-19 4.8-4.316-1.182-8.203-3.577-11.2-6.9-0.11-0.099-0.252-0.153-0.4-0.153-0.147 0-0.29 0.054-0.4 0.153-0.062 0.046-0.112 0.107-0.147 0.176s-0.053 0.146-0.053 0.224c0 0.077 0.018 0.154 0.053 0.223 0.035 0.07 0.085 0.13 0.147 0.177 3.809 4.293 9.019 7.093 14.7 7.9 5.214 3.479 11.332 5.357 17.6 5.4z" fill="#000" opacity=".15"/>
<path d="m654.9 349.3c-1.343 0.011-2.682 0.145-4 0.4-0.205-0.022-0.396-0.113-0.542-0.258-0.145-0.146-0.237-0.337-0.258-0.542 0.017-0.216 0.105-0.421 0.249-0.584 0.144-0.162 0.338-0.273 0.551-0.316l3.7-0.3c0.5 0 0.9 0.2 0.9 0.8s-0.3 0.6-0.6 0.8z" fill="#000" opacity=".3"/>
<path d="m656.2 345.5c-7.1 1.1-10.2-2.6-11.2-4.5-0.08-0.183-0.103-0.385-0.068-0.581 0.036-0.196 0.129-0.377 0.268-0.519 0.187-0.051 0.383-0.059 0.573-0.025 0.19 0.035 0.37 0.112 0.527 0.225 1 2 4.5 5.9 12.9 3.1 0.091-0.049 0.191-0.078 0.293-0.084 0.103-6e-3 0.206 0.011 0.301 0.049 0.096 0.038 0.182 0.097 0.252 0.172s0.123 0.165 0.154 0.263c0.3 0.5 0 0.8-0.3 1.1-1.201 0.399-2.441 0.667-3.7 0.8z" fill="#000" opacity=".3"/>
<path d="m658.2 339.2-3.3 0.2c-0.5 0-0.9-0.2-0.9-0.6s0.3-0.8 0.6-0.8l3.4-0.2c0.407-0.05 0.779-0.255 1.039-0.571 0.261-0.316 0.39-0.72 0.361-1.129-0.05-0.407-0.255-0.779-0.571-1.039-0.316-0.261-0.72-0.39-1.129-0.361-0.5 0-0.8-0.3-0.8-0.6s0.2-0.9 0.6-0.9c0.807-0.056 1.603 0.206 2.22 0.729 0.616 0.523 1.004 1.266 1.08 2.071 0.073 0.385 0.061 0.782-0.036 1.163-0.096 0.38-0.274 0.735-0.522 1.04-0.247 0.305-0.558 0.552-0.911 0.724s-0.739 0.265-1.131 0.273z" fill="#000" opacity=".3"/>
<path d="m679.3 327.3c-0.165 2.111-0.953 4.126-2.264 5.789s-3.086 2.899-5.1 3.553c-2.015 0.654-4.178 0.695-6.215 0.119-2.038-0.576-3.859-1.744-5.232-3.356-1.374-1.612-2.238-3.595-2.484-5.698-0.246-2.104 0.138-4.233 1.103-6.118s2.467-3.441 4.317-4.472c1.85-1.03 3.964-1.489 6.075-1.317 2.823 0.229 5.44 1.569 7.277 3.725 1.837 2.155 2.744 4.951 2.523 7.775z" fill="#fff" opacity=".19"/>
<path d="m653.1 325.2c-0.113 1.407-0.504 2.777-1.149 4.032-0.646 1.256-1.533 2.371-2.611 3.282-1.079 0.911-2.326 1.6-3.672 2.026-1.345 0.427-2.762 0.583-4.168 0.46-2.711-0.368-5.179-1.759-6.896-3.89-1.717-2.13-2.552-4.838-2.335-7.565 0.218-2.727 1.472-5.268 3.505-7.099s4.691-2.814 7.426-2.746c1.406 0.101 2.779 0.479 4.039 1.113 1.26 0.633 2.382 1.509 3.302 2.578s1.62 2.309 2.059 3.649 0.609 2.754 0.5 4.16z" fill="#fff" opacity=".19"/>
<path d="m653.1 325.2c-0.113 1.407-0.504 2.777-1.149 4.032-0.646 1.256-1.533 2.371-2.611 3.282-1.079 0.911-2.326 1.6-3.672 2.026-1.345 0.427-2.762 0.583-4.168 0.46-2.711-0.368-5.179-1.759-6.896-3.89-1.717-2.13-2.552-4.838-2.335-7.565 0.218-2.727 1.472-5.268 3.505-7.099s4.691-2.814 7.426-2.746c1.406 0.101 2.779 0.479 4.039 1.113 1.26 0.633 2.382 1.509 3.302 2.578s1.62 2.309 2.059 3.649 0.609 2.754 0.5 4.16v0z" stroke="#1A1A1A" stroke-linecap="round" stroke-linejoin="round" stroke-width=".42821"/>
<path d="m679.3 327.3c-0.165 2.111-0.953 4.126-2.264 5.789s-3.086 2.899-5.1 3.553c-2.015 0.654-4.178 0.695-6.215 0.119-2.038-0.576-3.859-1.744-5.232-3.356-1.374-1.612-2.238-3.595-2.484-5.698-0.246-2.104 0.138-4.233 1.103-6.118s2.467-3.441 4.317-4.472c1.85-1.03 3.964-1.489 6.075-1.317 2.823 0.229 5.44 1.569 7.277 3.725 1.837 2.155 2.744 4.951 2.523 7.775v0z" stroke="#1A1A1A" stroke-linecap="round" stroke-linejoin="round" stroke-width=".42821"/>
<path d="m653.1 325.2s2.7-2.2 4.8 0.4" stroke="#1A1A1A" stroke-linecap="round" stroke-linejoin="round" stroke-width=".42821"/>
<path d="m631.7 323.5-9-4.3" stroke="#1A1A1A" stroke-miterlimit="10" stroke-width=".42821"/>
<path d="m648.05 325.6c0.11-1.377-0.916-2.582-2.292-2.693s-2.582 0.915-2.692 2.292c-0.111 1.376 0.915 2.581 2.291 2.692s2.582-0.915 2.693-2.291z" fill="#21252B"/>
<path d="m647.1 325.5c0.331 0 0.6-0.269 0.6-0.6 0-0.332-0.269-0.6-0.6-0.6s-0.6 0.268-0.6 0.6c0 0.331 0.269 0.6 0.6 0.6z" fill="#fff"/>
<path d="m667.61 327.41c0.111-1.376-0.915-2.582-2.291-2.692-1.376-0.111-2.582 0.915-2.693 2.291-0.11 1.376 0.916 2.582 2.292 2.692 1.376 0.111 2.581-0.915 2.692-2.291z" fill="#21252B"/>
<path d="m666.6 327.3c0.331 0 0.6-0.269 0.6-0.6 0-0.332-0.269-0.6-0.6-0.6s-0.6 0.268-0.6 0.6c0 0.331 0.269 0.6 0.6 0.6z" fill="#fff"/>
<path d="m623.5 322.3c0.232 1e-3 0.461-0.046 0.674-0.138 0.213-0.091 0.405-0.226 0.565-0.394 0.159-0.169 0.282-0.368 0.361-0.586 0.08-0.218 0.113-0.45 0.1-0.682-0.2-4.9-0.1-16.7 4.9-18.9 4.7 0.8 37.9 5.2 41.7-1.8l2.2 21.6h0.3l-0.4-27.9-42.2-5.1-13.4 8.9 5.2 25z" fill="#1A1A1A"/>
</svg>
